<?xml version="1.0" encoding="UTF-8" standalone="no"?>
<!DOCTYPE svg PUBLIC "-//W3C//DTD SVG 1.1//EN" "http://www.w3.org/Graphics/SVG/1.1/DTD/svg11.dtd">
<svg width="100%" height="100%" viewBox="0 0 1280 800" version="1.1" xmlns="http://www.w3.org/2000/svg" xmlns:xlink="http://www.w3.org/1999/xlink" xml:space="preserve" xmlns:serif="http://www.serif.com/" style="fill-rule:evenodd;clip-rule:evenodd;stroke-linecap:round;stroke-linejoin:round;stroke-miterlimit:1.5;">
    <g id="Layer1">
        <g transform="matrix(0.596245,0,0,0.596245,424.175,302.727)">
            <path d="M611.125,150.535C502.894,188.866 392.987,224.918 416.311,442.069C377.952,467.317 320.555,478.02 294.513,512.513C280.865,536.275 283.602,551.312 309.787,553.865C321.086,567.919 343.404,569.092 373.424,561.261C373.43,565.437 393.95,570.714 400.132,562.467C419.466,550.959 437.267,538.164 454.175,524.619C465.053,584.645 501.682,582 537.47,581.401C515.363,621.39 504.127,646.587 506.853,652.784L514.772,667.859C513.172,712.023 523.833,724.08 536.98,729.626C538.701,754.826 553.044,754.198 574.125,739.781C586.006,738.892 598.987,698.483 612.54,637.509L626.675,596.616C647.767,597.816 668.946,599.432 687.976,590.716C709.34,600.782 730.885,588.349 752.429,576.066C763.407,587.172 786.854,570.832 814.579,545.073C824.599,547.609 832.657,554.354 866.603,505.522C879.253,502.57 891.829,496.456 903.44,449.411C908.42,448.774 912.776,437.521 914.664,384.391C947.792,418.134 974.081,462.029 991.54,519.029C994.918,565.201 1005.32,589.795 1022.05,594.915C1039.59,592.889 1050,569.807 1050.57,517.634C1040.93,376.92 986.472,260.803 929.181,264.724C914.425,263.224 903.066,266.471 895.105,274.465" style="fill:none;stroke:black;stroke-width:1.68px;"/>
        </g>
        <g transform="matrix(0.596245,0,0,0.596245,424.175,302.727)">
            <path d="M895.105,274.465L865.199,221.305C865.121,204.886 880.269,189.635 912.055,175.661C925.164,167.465 935.175,166.907 963.455,121.309C973.67,106.449 980.558,91.369 959.798,74.454C953.63,70.131 944.843,66.274 926.721,64.082C907.537,66.381 886.094,77.121 863.051,93.842L826.824,126.019C805.493,147.354 768.623,150.661 718.408,138.487C722.856,118.242 730.447,98.621 699.22,71.29C620.086,21.114 522.432,6.206 394.392,49.165C371.062,58.671 368.396,74.978 395.094,85.326L456.897,92.055C540.292,105.383 594.442,122.422 611.639,150.571" style="fill:none;stroke:black;stroke-width:1.68px;"/>
        </g>
    </g>
</svg>
