%TF.GenerationSoftware,KiCad,Pcbnew,(5.1.5-0-10_14)*%
%TF.CreationDate,2020-02-16T20:03:40+10:00*%
%TF.ProjectId,turtleboard,74757274-6c65-4626-9f61-72642e6b6963,rev?*%
%TF.SameCoordinates,Original*%
%TF.FileFunction,Soldermask,Top*%
%TF.FilePolarity,Negative*%
%FSLAX46Y46*%
G04 Gerber Fmt 4.6, Leading zero omitted, Abs format (unit mm)*
G04 Created by KiCad (PCBNEW (5.1.5-0-10_14)) date 2020-02-16 20:03:40*
%MOMM*%
%LPD*%
G04 APERTURE LIST*
%ADD10C,0.100000*%
G04 APERTURE END LIST*
D10*
G36*
X210933512Y-121023927D02*
G01*
X211082812Y-121053624D01*
X211246784Y-121121544D01*
X211394354Y-121220147D01*
X211519853Y-121345646D01*
X211618456Y-121493216D01*
X211686376Y-121657188D01*
X211721000Y-121831259D01*
X211721000Y-122008741D01*
X211686376Y-122182812D01*
X211618456Y-122346784D01*
X211519853Y-122494354D01*
X211394354Y-122619853D01*
X211246784Y-122718456D01*
X211082812Y-122786376D01*
X210933512Y-122816073D01*
X210908742Y-122821000D01*
X210731258Y-122821000D01*
X210706488Y-122816073D01*
X210557188Y-122786376D01*
X210393216Y-122718456D01*
X210245646Y-122619853D01*
X210120147Y-122494354D01*
X210021544Y-122346784D01*
X209953624Y-122182812D01*
X209919000Y-122008741D01*
X209919000Y-121831259D01*
X209953624Y-121657188D01*
X210021544Y-121493216D01*
X210120147Y-121345646D01*
X210245646Y-121220147D01*
X210393216Y-121121544D01*
X210557188Y-121053624D01*
X210706488Y-121023927D01*
X210731258Y-121019000D01*
X210908742Y-121019000D01*
X210933512Y-121023927D01*
G37*
G36*
X195693512Y-121023927D02*
G01*
X195842812Y-121053624D01*
X196006784Y-121121544D01*
X196154354Y-121220147D01*
X196279853Y-121345646D01*
X196378456Y-121493216D01*
X196446376Y-121657188D01*
X196481000Y-121831259D01*
X196481000Y-122008741D01*
X196446376Y-122182812D01*
X196378456Y-122346784D01*
X196279853Y-122494354D01*
X196154354Y-122619853D01*
X196006784Y-122718456D01*
X195842812Y-122786376D01*
X195693512Y-122816073D01*
X195668742Y-122821000D01*
X195491258Y-122821000D01*
X195466488Y-122816073D01*
X195317188Y-122786376D01*
X195153216Y-122718456D01*
X195005646Y-122619853D01*
X194880147Y-122494354D01*
X194781544Y-122346784D01*
X194713624Y-122182812D01*
X194679000Y-122008741D01*
X194679000Y-121831259D01*
X194713624Y-121657188D01*
X194781544Y-121493216D01*
X194880147Y-121345646D01*
X195005646Y-121220147D01*
X195153216Y-121121544D01*
X195317188Y-121053624D01*
X195466488Y-121023927D01*
X195491258Y-121019000D01*
X195668742Y-121019000D01*
X195693512Y-121023927D01*
G37*
G36*
X207170721Y-121390174D02*
G01*
X207270995Y-121431709D01*
X207270996Y-121431710D01*
X207361242Y-121492010D01*
X207437990Y-121568758D01*
X207437991Y-121568760D01*
X207498291Y-121659005D01*
X207539826Y-121759279D01*
X207561000Y-121865730D01*
X207561000Y-121974270D01*
X207539826Y-122080721D01*
X207498291Y-122180995D01*
X207497077Y-122182812D01*
X207437990Y-122271242D01*
X207361242Y-122347990D01*
X207315812Y-122378345D01*
X207270995Y-122408291D01*
X207170721Y-122449826D01*
X207064270Y-122471000D01*
X206955730Y-122471000D01*
X206849279Y-122449826D01*
X206749005Y-122408291D01*
X206704188Y-122378345D01*
X206658758Y-122347990D01*
X206582010Y-122271242D01*
X206522923Y-122182812D01*
X206521709Y-122180995D01*
X206480174Y-122080721D01*
X206459000Y-121974270D01*
X206459000Y-121865730D01*
X206480174Y-121759279D01*
X206521709Y-121659005D01*
X206582009Y-121568760D01*
X206582010Y-121568758D01*
X206658758Y-121492010D01*
X206749004Y-121431710D01*
X206749005Y-121431709D01*
X206849279Y-121390174D01*
X206955730Y-121369000D01*
X207064270Y-121369000D01*
X207170721Y-121390174D01*
G37*
G36*
X199844674Y-118887465D02*
G01*
X199882367Y-118898899D01*
X199917103Y-118917466D01*
X199947548Y-118942452D01*
X199972534Y-118972897D01*
X199991101Y-119007633D01*
X200002535Y-119045326D01*
X200007000Y-119090661D01*
X200007000Y-120177339D01*
X200002535Y-120222674D01*
X199991101Y-120260367D01*
X199972534Y-120295103D01*
X199947548Y-120325548D01*
X199917103Y-120350534D01*
X199882367Y-120369101D01*
X199844674Y-120380535D01*
X199799339Y-120385000D01*
X198962661Y-120385000D01*
X198917326Y-120380535D01*
X198879633Y-120369101D01*
X198844897Y-120350534D01*
X198814452Y-120325548D01*
X198789466Y-120295103D01*
X198770899Y-120260367D01*
X198759465Y-120222674D01*
X198755000Y-120177339D01*
X198755000Y-119090661D01*
X198759465Y-119045326D01*
X198770899Y-119007633D01*
X198789466Y-118972897D01*
X198814452Y-118942452D01*
X198844897Y-118917466D01*
X198879633Y-118898899D01*
X198917326Y-118887465D01*
X198962661Y-118883000D01*
X199799339Y-118883000D01*
X199844674Y-118887465D01*
G37*
G36*
X207745674Y-118887465D02*
G01*
X207783367Y-118898899D01*
X207818103Y-118917466D01*
X207848548Y-118942452D01*
X207873534Y-118972897D01*
X207892101Y-119007633D01*
X207903535Y-119045326D01*
X207908000Y-119090661D01*
X207908000Y-120177339D01*
X207903535Y-120222674D01*
X207892101Y-120260367D01*
X207873534Y-120295103D01*
X207848548Y-120325548D01*
X207818103Y-120350534D01*
X207783367Y-120369101D01*
X207745674Y-120380535D01*
X207700339Y-120385000D01*
X206863661Y-120385000D01*
X206818326Y-120380535D01*
X206780633Y-120369101D01*
X206745897Y-120350534D01*
X206715452Y-120325548D01*
X206690466Y-120295103D01*
X206671899Y-120260367D01*
X206660465Y-120222674D01*
X206656000Y-120177339D01*
X206656000Y-119090661D01*
X206660465Y-119045326D01*
X206671899Y-119007633D01*
X206690466Y-118972897D01*
X206715452Y-118942452D01*
X206745897Y-118917466D01*
X206780633Y-118898899D01*
X206818326Y-118887465D01*
X206863661Y-118883000D01*
X207700339Y-118883000D01*
X207745674Y-118887465D01*
G37*
G36*
X205695674Y-118887465D02*
G01*
X205733367Y-118898899D01*
X205768103Y-118917466D01*
X205798548Y-118942452D01*
X205823534Y-118972897D01*
X205842101Y-119007633D01*
X205853535Y-119045326D01*
X205858000Y-119090661D01*
X205858000Y-120177339D01*
X205853535Y-120222674D01*
X205842101Y-120260367D01*
X205823534Y-120295103D01*
X205798548Y-120325548D01*
X205768103Y-120350534D01*
X205733367Y-120369101D01*
X205695674Y-120380535D01*
X205650339Y-120385000D01*
X204813661Y-120385000D01*
X204768326Y-120380535D01*
X204730633Y-120369101D01*
X204695897Y-120350534D01*
X204665452Y-120325548D01*
X204640466Y-120295103D01*
X204621899Y-120260367D01*
X204610465Y-120222674D01*
X204606000Y-120177339D01*
X204606000Y-119090661D01*
X204610465Y-119045326D01*
X204621899Y-119007633D01*
X204640466Y-118972897D01*
X204665452Y-118942452D01*
X204695897Y-118917466D01*
X204730633Y-118898899D01*
X204768326Y-118887465D01*
X204813661Y-118883000D01*
X205650339Y-118883000D01*
X205695674Y-118887465D01*
G37*
G36*
X201894674Y-118887465D02*
G01*
X201932367Y-118898899D01*
X201967103Y-118917466D01*
X201997548Y-118942452D01*
X202022534Y-118972897D01*
X202041101Y-119007633D01*
X202052535Y-119045326D01*
X202057000Y-119090661D01*
X202057000Y-120177339D01*
X202052535Y-120222674D01*
X202041101Y-120260367D01*
X202022534Y-120295103D01*
X201997548Y-120325548D01*
X201967103Y-120350534D01*
X201932367Y-120369101D01*
X201894674Y-120380535D01*
X201849339Y-120385000D01*
X201012661Y-120385000D01*
X200967326Y-120380535D01*
X200929633Y-120369101D01*
X200894897Y-120350534D01*
X200864452Y-120325548D01*
X200839466Y-120295103D01*
X200820899Y-120260367D01*
X200809465Y-120222674D01*
X200805000Y-120177339D01*
X200805000Y-119090661D01*
X200809465Y-119045326D01*
X200820899Y-119007633D01*
X200839466Y-118972897D01*
X200864452Y-118942452D01*
X200894897Y-118917466D01*
X200929633Y-118898899D01*
X200967326Y-118887465D01*
X201012661Y-118883000D01*
X201849339Y-118883000D01*
X201894674Y-118887465D01*
G37*
G36*
X210933512Y-118483927D02*
G01*
X211082812Y-118513624D01*
X211246784Y-118581544D01*
X211394354Y-118680147D01*
X211519853Y-118805646D01*
X211618456Y-118953216D01*
X211686376Y-119117188D01*
X211721000Y-119291259D01*
X211721000Y-119468741D01*
X211686376Y-119642812D01*
X211618456Y-119806784D01*
X211519853Y-119954354D01*
X211394354Y-120079853D01*
X211246784Y-120178456D01*
X211082812Y-120246376D01*
X210933512Y-120276073D01*
X210908742Y-120281000D01*
X210731258Y-120281000D01*
X210706488Y-120276073D01*
X210557188Y-120246376D01*
X210393216Y-120178456D01*
X210245646Y-120079853D01*
X210120147Y-119954354D01*
X210021544Y-119806784D01*
X209953624Y-119642812D01*
X209919000Y-119468741D01*
X209919000Y-119291259D01*
X209953624Y-119117188D01*
X210021544Y-118953216D01*
X210120147Y-118805646D01*
X210245646Y-118680147D01*
X210393216Y-118581544D01*
X210557188Y-118513624D01*
X210706488Y-118483927D01*
X210731258Y-118479000D01*
X210908742Y-118479000D01*
X210933512Y-118483927D01*
G37*
G36*
X195693512Y-118483927D02*
G01*
X195842812Y-118513624D01*
X196006784Y-118581544D01*
X196154354Y-118680147D01*
X196279853Y-118805646D01*
X196378456Y-118953216D01*
X196446376Y-119117188D01*
X196481000Y-119291259D01*
X196481000Y-119468741D01*
X196446376Y-119642812D01*
X196378456Y-119806784D01*
X196279853Y-119954354D01*
X196154354Y-120079853D01*
X196006784Y-120178456D01*
X195842812Y-120246376D01*
X195693512Y-120276073D01*
X195668742Y-120281000D01*
X195491258Y-120281000D01*
X195466488Y-120276073D01*
X195317188Y-120246376D01*
X195153216Y-120178456D01*
X195005646Y-120079853D01*
X194880147Y-119954354D01*
X194781544Y-119806784D01*
X194713624Y-119642812D01*
X194679000Y-119468741D01*
X194679000Y-119291259D01*
X194713624Y-119117188D01*
X194781544Y-118953216D01*
X194880147Y-118805646D01*
X195005646Y-118680147D01*
X195153216Y-118581544D01*
X195317188Y-118513624D01*
X195466488Y-118483927D01*
X195491258Y-118479000D01*
X195668742Y-118479000D01*
X195693512Y-118483927D01*
G37*
G36*
X210933512Y-115943927D02*
G01*
X211082812Y-115973624D01*
X211246784Y-116041544D01*
X211394354Y-116140147D01*
X211519853Y-116265646D01*
X211618456Y-116413216D01*
X211686376Y-116577188D01*
X211721000Y-116751259D01*
X211721000Y-116928741D01*
X211686376Y-117102812D01*
X211618456Y-117266784D01*
X211519853Y-117414354D01*
X211394354Y-117539853D01*
X211246784Y-117638456D01*
X211082812Y-117706376D01*
X210933512Y-117736073D01*
X210908742Y-117741000D01*
X210731258Y-117741000D01*
X210706488Y-117736073D01*
X210557188Y-117706376D01*
X210393216Y-117638456D01*
X210245646Y-117539853D01*
X210120147Y-117414354D01*
X210021544Y-117266784D01*
X209953624Y-117102812D01*
X209919000Y-116928741D01*
X209919000Y-116751259D01*
X209953624Y-116577188D01*
X210021544Y-116413216D01*
X210120147Y-116265646D01*
X210245646Y-116140147D01*
X210393216Y-116041544D01*
X210557188Y-115973624D01*
X210706488Y-115943927D01*
X210731258Y-115939000D01*
X210908742Y-115939000D01*
X210933512Y-115943927D01*
G37*
G36*
X195693512Y-115943927D02*
G01*
X195842812Y-115973624D01*
X196006784Y-116041544D01*
X196154354Y-116140147D01*
X196279853Y-116265646D01*
X196378456Y-116413216D01*
X196446376Y-116577188D01*
X196481000Y-116751259D01*
X196481000Y-116928741D01*
X196446376Y-117102812D01*
X196378456Y-117266784D01*
X196279853Y-117414354D01*
X196154354Y-117539853D01*
X196006784Y-117638456D01*
X195842812Y-117706376D01*
X195693512Y-117736073D01*
X195668742Y-117741000D01*
X195491258Y-117741000D01*
X195466488Y-117736073D01*
X195317188Y-117706376D01*
X195153216Y-117638456D01*
X195005646Y-117539853D01*
X194880147Y-117414354D01*
X194781544Y-117266784D01*
X194713624Y-117102812D01*
X194679000Y-116928741D01*
X194679000Y-116751259D01*
X194713624Y-116577188D01*
X194781544Y-116413216D01*
X194880147Y-116265646D01*
X195005646Y-116140147D01*
X195153216Y-116041544D01*
X195317188Y-115973624D01*
X195466488Y-115943927D01*
X195491258Y-115939000D01*
X195668742Y-115939000D01*
X195693512Y-115943927D01*
G37*
G36*
X206926000Y-117501000D02*
G01*
X205374000Y-117501000D01*
X205374000Y-111099000D01*
X206926000Y-111099000D01*
X206926000Y-117501000D01*
G37*
G36*
X201026000Y-117501000D02*
G01*
X199474000Y-117501000D01*
X199474000Y-111099000D01*
X201026000Y-111099000D01*
X201026000Y-117501000D01*
G37*
G36*
X210933512Y-113403927D02*
G01*
X211082812Y-113433624D01*
X211246784Y-113501544D01*
X211394354Y-113600147D01*
X211519853Y-113725646D01*
X211618456Y-113873216D01*
X211686376Y-114037188D01*
X211721000Y-114211259D01*
X211721000Y-114388741D01*
X211686376Y-114562812D01*
X211618456Y-114726784D01*
X211519853Y-114874354D01*
X211394354Y-114999853D01*
X211246784Y-115098456D01*
X211082812Y-115166376D01*
X210933512Y-115196073D01*
X210908742Y-115201000D01*
X210731258Y-115201000D01*
X210706488Y-115196073D01*
X210557188Y-115166376D01*
X210393216Y-115098456D01*
X210245646Y-114999853D01*
X210120147Y-114874354D01*
X210021544Y-114726784D01*
X209953624Y-114562812D01*
X209919000Y-114388741D01*
X209919000Y-114211259D01*
X209953624Y-114037188D01*
X210021544Y-113873216D01*
X210120147Y-113725646D01*
X210245646Y-113600147D01*
X210393216Y-113501544D01*
X210557188Y-113433624D01*
X210706488Y-113403927D01*
X210731258Y-113399000D01*
X210908742Y-113399000D01*
X210933512Y-113403927D01*
G37*
G36*
X195693512Y-113403927D02*
G01*
X195842812Y-113433624D01*
X196006784Y-113501544D01*
X196154354Y-113600147D01*
X196279853Y-113725646D01*
X196378456Y-113873216D01*
X196446376Y-114037188D01*
X196481000Y-114211259D01*
X196481000Y-114388741D01*
X196446376Y-114562812D01*
X196378456Y-114726784D01*
X196279853Y-114874354D01*
X196154354Y-114999853D01*
X196006784Y-115098456D01*
X195842812Y-115166376D01*
X195693512Y-115196073D01*
X195668742Y-115201000D01*
X195491258Y-115201000D01*
X195466488Y-115196073D01*
X195317188Y-115166376D01*
X195153216Y-115098456D01*
X195005646Y-114999853D01*
X194880147Y-114874354D01*
X194781544Y-114726784D01*
X194713624Y-114562812D01*
X194679000Y-114388741D01*
X194679000Y-114211259D01*
X194713624Y-114037188D01*
X194781544Y-113873216D01*
X194880147Y-113725646D01*
X195005646Y-113600147D01*
X195153216Y-113501544D01*
X195317188Y-113433624D01*
X195466488Y-113403927D01*
X195491258Y-113399000D01*
X195668742Y-113399000D01*
X195693512Y-113403927D01*
G37*
G36*
X195693512Y-110863927D02*
G01*
X195842812Y-110893624D01*
X196006784Y-110961544D01*
X196154354Y-111060147D01*
X196279853Y-111185646D01*
X196378456Y-111333216D01*
X196446376Y-111497188D01*
X196481000Y-111671259D01*
X196481000Y-111848741D01*
X196446376Y-112022812D01*
X196378456Y-112186784D01*
X196279853Y-112334354D01*
X196154354Y-112459853D01*
X196006784Y-112558456D01*
X195842812Y-112626376D01*
X195693512Y-112656073D01*
X195668742Y-112661000D01*
X195491258Y-112661000D01*
X195466488Y-112656073D01*
X195317188Y-112626376D01*
X195153216Y-112558456D01*
X195005646Y-112459853D01*
X194880147Y-112334354D01*
X194781544Y-112186784D01*
X194713624Y-112022812D01*
X194679000Y-111848741D01*
X194679000Y-111671259D01*
X194713624Y-111497188D01*
X194781544Y-111333216D01*
X194880147Y-111185646D01*
X195005646Y-111060147D01*
X195153216Y-110961544D01*
X195317188Y-110893624D01*
X195466488Y-110863927D01*
X195491258Y-110859000D01*
X195668742Y-110859000D01*
X195693512Y-110863927D01*
G37*
G36*
X210933512Y-110863927D02*
G01*
X211082812Y-110893624D01*
X211246784Y-110961544D01*
X211394354Y-111060147D01*
X211519853Y-111185646D01*
X211618456Y-111333216D01*
X211686376Y-111497188D01*
X211721000Y-111671259D01*
X211721000Y-111848741D01*
X211686376Y-112022812D01*
X211618456Y-112186784D01*
X211519853Y-112334354D01*
X211394354Y-112459853D01*
X211246784Y-112558456D01*
X211082812Y-112626376D01*
X210933512Y-112656073D01*
X210908742Y-112661000D01*
X210731258Y-112661000D01*
X210706488Y-112656073D01*
X210557188Y-112626376D01*
X210393216Y-112558456D01*
X210245646Y-112459853D01*
X210120147Y-112334354D01*
X210021544Y-112186784D01*
X209953624Y-112022812D01*
X209919000Y-111848741D01*
X209919000Y-111671259D01*
X209953624Y-111497188D01*
X210021544Y-111333216D01*
X210120147Y-111185646D01*
X210245646Y-111060147D01*
X210393216Y-110961544D01*
X210557188Y-110893624D01*
X210706488Y-110863927D01*
X210731258Y-110859000D01*
X210908742Y-110859000D01*
X210933512Y-110863927D01*
G37*
G36*
X210933512Y-108323927D02*
G01*
X211082812Y-108353624D01*
X211246784Y-108421544D01*
X211394354Y-108520147D01*
X211519853Y-108645646D01*
X211618456Y-108793216D01*
X211686376Y-108957188D01*
X211721000Y-109131259D01*
X211721000Y-109308741D01*
X211686376Y-109482812D01*
X211618456Y-109646784D01*
X211519853Y-109794354D01*
X211394354Y-109919853D01*
X211246784Y-110018456D01*
X211082812Y-110086376D01*
X210933512Y-110116073D01*
X210908742Y-110121000D01*
X210731258Y-110121000D01*
X210706488Y-110116073D01*
X210557188Y-110086376D01*
X210393216Y-110018456D01*
X210245646Y-109919853D01*
X210120147Y-109794354D01*
X210021544Y-109646784D01*
X209953624Y-109482812D01*
X209919000Y-109308741D01*
X209919000Y-109131259D01*
X209953624Y-108957188D01*
X210021544Y-108793216D01*
X210120147Y-108645646D01*
X210245646Y-108520147D01*
X210393216Y-108421544D01*
X210557188Y-108353624D01*
X210706488Y-108323927D01*
X210731258Y-108319000D01*
X210908742Y-108319000D01*
X210933512Y-108323927D01*
G37*
G36*
X195693512Y-108323927D02*
G01*
X195842812Y-108353624D01*
X196006784Y-108421544D01*
X196154354Y-108520147D01*
X196279853Y-108645646D01*
X196378456Y-108793216D01*
X196446376Y-108957188D01*
X196481000Y-109131259D01*
X196481000Y-109308741D01*
X196446376Y-109482812D01*
X196378456Y-109646784D01*
X196279853Y-109794354D01*
X196154354Y-109919853D01*
X196006784Y-110018456D01*
X195842812Y-110086376D01*
X195693512Y-110116073D01*
X195668742Y-110121000D01*
X195491258Y-110121000D01*
X195466488Y-110116073D01*
X195317188Y-110086376D01*
X195153216Y-110018456D01*
X195005646Y-109919853D01*
X194880147Y-109794354D01*
X194781544Y-109646784D01*
X194713624Y-109482812D01*
X194679000Y-109308741D01*
X194679000Y-109131259D01*
X194713624Y-108957188D01*
X194781544Y-108793216D01*
X194880147Y-108645646D01*
X195005646Y-108520147D01*
X195153216Y-108421544D01*
X195317188Y-108353624D01*
X195466488Y-108323927D01*
X195491258Y-108319000D01*
X195668742Y-108319000D01*
X195693512Y-108323927D01*
G37*
G36*
X203908674Y-108473465D02*
G01*
X203946367Y-108484899D01*
X203981103Y-108503466D01*
X204011548Y-108528452D01*
X204036534Y-108558897D01*
X204055101Y-108593633D01*
X204066535Y-108631326D01*
X204071000Y-108676661D01*
X204071000Y-109763339D01*
X204066535Y-109808674D01*
X204055101Y-109846367D01*
X204036534Y-109881103D01*
X204011548Y-109911548D01*
X203981103Y-109936534D01*
X203946367Y-109955101D01*
X203908674Y-109966535D01*
X203863339Y-109971000D01*
X203026661Y-109971000D01*
X202981326Y-109966535D01*
X202943633Y-109955101D01*
X202908897Y-109936534D01*
X202878452Y-109911548D01*
X202853466Y-109881103D01*
X202834899Y-109846367D01*
X202823465Y-109808674D01*
X202819000Y-109763339D01*
X202819000Y-108676661D01*
X202823465Y-108631326D01*
X202834899Y-108593633D01*
X202853466Y-108558897D01*
X202878452Y-108528452D01*
X202908897Y-108503466D01*
X202943633Y-108484899D01*
X202981326Y-108473465D01*
X203026661Y-108469000D01*
X203863339Y-108469000D01*
X203908674Y-108473465D01*
G37*
G36*
X199073674Y-108473465D02*
G01*
X199111367Y-108484899D01*
X199146103Y-108503466D01*
X199176548Y-108528452D01*
X199201534Y-108558897D01*
X199220101Y-108593633D01*
X199231535Y-108631326D01*
X199236000Y-108676661D01*
X199236000Y-109763339D01*
X199231535Y-109808674D01*
X199220101Y-109846367D01*
X199201534Y-109881103D01*
X199176548Y-109911548D01*
X199146103Y-109936534D01*
X199111367Y-109955101D01*
X199073674Y-109966535D01*
X199028339Y-109971000D01*
X198191661Y-109971000D01*
X198146326Y-109966535D01*
X198108633Y-109955101D01*
X198073897Y-109936534D01*
X198043452Y-109911548D01*
X198018466Y-109881103D01*
X197999899Y-109846367D01*
X197988465Y-109808674D01*
X197984000Y-109763339D01*
X197984000Y-108676661D01*
X197988465Y-108631326D01*
X197999899Y-108593633D01*
X198018466Y-108558897D01*
X198043452Y-108528452D01*
X198073897Y-108503466D01*
X198108633Y-108484899D01*
X198146326Y-108473465D01*
X198191661Y-108469000D01*
X199028339Y-108469000D01*
X199073674Y-108473465D01*
G37*
G36*
X201123674Y-108473465D02*
G01*
X201161367Y-108484899D01*
X201196103Y-108503466D01*
X201226548Y-108528452D01*
X201251534Y-108558897D01*
X201270101Y-108593633D01*
X201281535Y-108631326D01*
X201286000Y-108676661D01*
X201286000Y-109763339D01*
X201281535Y-109808674D01*
X201270101Y-109846367D01*
X201251534Y-109881103D01*
X201226548Y-109911548D01*
X201196103Y-109936534D01*
X201161367Y-109955101D01*
X201123674Y-109966535D01*
X201078339Y-109971000D01*
X200241661Y-109971000D01*
X200196326Y-109966535D01*
X200158633Y-109955101D01*
X200123897Y-109936534D01*
X200093452Y-109911548D01*
X200068466Y-109881103D01*
X200049899Y-109846367D01*
X200038465Y-109808674D01*
X200034000Y-109763339D01*
X200034000Y-108676661D01*
X200038465Y-108631326D01*
X200049899Y-108593633D01*
X200068466Y-108558897D01*
X200093452Y-108528452D01*
X200123897Y-108503466D01*
X200158633Y-108484899D01*
X200196326Y-108473465D01*
X200241661Y-108469000D01*
X201078339Y-108469000D01*
X201123674Y-108473465D01*
G37*
G36*
X205958674Y-108473465D02*
G01*
X205996367Y-108484899D01*
X206031103Y-108503466D01*
X206061548Y-108528452D01*
X206086534Y-108558897D01*
X206105101Y-108593633D01*
X206116535Y-108631326D01*
X206121000Y-108676661D01*
X206121000Y-109763339D01*
X206116535Y-109808674D01*
X206105101Y-109846367D01*
X206086534Y-109881103D01*
X206061548Y-109911548D01*
X206031103Y-109936534D01*
X205996367Y-109955101D01*
X205958674Y-109966535D01*
X205913339Y-109971000D01*
X205076661Y-109971000D01*
X205031326Y-109966535D01*
X204993633Y-109955101D01*
X204958897Y-109936534D01*
X204928452Y-109911548D01*
X204903466Y-109881103D01*
X204884899Y-109846367D01*
X204873465Y-109808674D01*
X204869000Y-109763339D01*
X204869000Y-108676661D01*
X204873465Y-108631326D01*
X204884899Y-108593633D01*
X204903466Y-108558897D01*
X204928452Y-108528452D01*
X204958897Y-108503466D01*
X204993633Y-108484899D01*
X205031326Y-108473465D01*
X205076661Y-108469000D01*
X205913339Y-108469000D01*
X205958674Y-108473465D01*
G37*
G36*
X199724674Y-106448465D02*
G01*
X199762367Y-106459899D01*
X199797103Y-106478466D01*
X199827548Y-106503452D01*
X199852534Y-106533897D01*
X199871101Y-106568633D01*
X199882535Y-106606326D01*
X199887000Y-106651661D01*
X199887000Y-107488339D01*
X199882535Y-107533674D01*
X199871101Y-107571367D01*
X199852534Y-107606103D01*
X199827548Y-107636548D01*
X199797103Y-107661534D01*
X199762367Y-107680101D01*
X199724674Y-107691535D01*
X199679339Y-107696000D01*
X198592661Y-107696000D01*
X198547326Y-107691535D01*
X198509633Y-107680101D01*
X198474897Y-107661534D01*
X198444452Y-107636548D01*
X198419466Y-107606103D01*
X198400899Y-107571367D01*
X198389465Y-107533674D01*
X198385000Y-107488339D01*
X198385000Y-106651661D01*
X198389465Y-106606326D01*
X198400899Y-106568633D01*
X198419466Y-106533897D01*
X198444452Y-106503452D01*
X198474897Y-106478466D01*
X198509633Y-106459899D01*
X198547326Y-106448465D01*
X198592661Y-106444000D01*
X199679339Y-106444000D01*
X199724674Y-106448465D01*
G37*
G36*
X207852674Y-106448465D02*
G01*
X207890367Y-106459899D01*
X207925103Y-106478466D01*
X207955548Y-106503452D01*
X207980534Y-106533897D01*
X207999101Y-106568633D01*
X208010535Y-106606326D01*
X208015000Y-106651661D01*
X208015000Y-107488339D01*
X208010535Y-107533674D01*
X207999101Y-107571367D01*
X207980534Y-107606103D01*
X207955548Y-107636548D01*
X207925103Y-107661534D01*
X207890367Y-107680101D01*
X207852674Y-107691535D01*
X207807339Y-107696000D01*
X206720661Y-107696000D01*
X206675326Y-107691535D01*
X206637633Y-107680101D01*
X206602897Y-107661534D01*
X206572452Y-107636548D01*
X206547466Y-107606103D01*
X206528899Y-107571367D01*
X206517465Y-107533674D01*
X206513000Y-107488339D01*
X206513000Y-106651661D01*
X206517465Y-106606326D01*
X206528899Y-106568633D01*
X206547466Y-106533897D01*
X206572452Y-106503452D01*
X206602897Y-106478466D01*
X206637633Y-106459899D01*
X206675326Y-106448465D01*
X206720661Y-106444000D01*
X207807339Y-106444000D01*
X207852674Y-106448465D01*
G37*
G36*
X195693512Y-105783927D02*
G01*
X195842812Y-105813624D01*
X196006784Y-105881544D01*
X196154354Y-105980147D01*
X196279853Y-106105646D01*
X196378456Y-106253216D01*
X196446376Y-106417188D01*
X196481000Y-106591259D01*
X196481000Y-106768741D01*
X196446376Y-106942812D01*
X196378456Y-107106784D01*
X196279853Y-107254354D01*
X196154354Y-107379853D01*
X196006784Y-107478456D01*
X195842812Y-107546376D01*
X195698715Y-107575038D01*
X195668742Y-107581000D01*
X195491258Y-107581000D01*
X195461285Y-107575038D01*
X195317188Y-107546376D01*
X195153216Y-107478456D01*
X195005646Y-107379853D01*
X194880147Y-107254354D01*
X194781544Y-107106784D01*
X194713624Y-106942812D01*
X194679000Y-106768741D01*
X194679000Y-106591259D01*
X194713624Y-106417188D01*
X194781544Y-106253216D01*
X194880147Y-106105646D01*
X195005646Y-105980147D01*
X195153216Y-105881544D01*
X195317188Y-105813624D01*
X195466488Y-105783927D01*
X195491258Y-105779000D01*
X195668742Y-105779000D01*
X195693512Y-105783927D01*
G37*
G36*
X210933512Y-105783927D02*
G01*
X211082812Y-105813624D01*
X211246784Y-105881544D01*
X211394354Y-105980147D01*
X211519853Y-106105646D01*
X211618456Y-106253216D01*
X211686376Y-106417188D01*
X211721000Y-106591259D01*
X211721000Y-106768741D01*
X211686376Y-106942812D01*
X211618456Y-107106784D01*
X211519853Y-107254354D01*
X211394354Y-107379853D01*
X211246784Y-107478456D01*
X211082812Y-107546376D01*
X210938715Y-107575038D01*
X210908742Y-107581000D01*
X210731258Y-107581000D01*
X210701285Y-107575038D01*
X210557188Y-107546376D01*
X210393216Y-107478456D01*
X210245646Y-107379853D01*
X210120147Y-107254354D01*
X210021544Y-107106784D01*
X209953624Y-106942812D01*
X209919000Y-106768741D01*
X209919000Y-106591259D01*
X209953624Y-106417188D01*
X210021544Y-106253216D01*
X210120147Y-106105646D01*
X210245646Y-105980147D01*
X210393216Y-105881544D01*
X210557188Y-105813624D01*
X210706488Y-105783927D01*
X210731258Y-105779000D01*
X210908742Y-105779000D01*
X210933512Y-105783927D01*
G37*
G36*
X205381000Y-107371000D02*
G01*
X203719000Y-107371000D01*
X203719000Y-106619000D01*
X205381000Y-106619000D01*
X205381000Y-107371000D01*
G37*
G36*
X202681000Y-107371000D02*
G01*
X201019000Y-107371000D01*
X201019000Y-104719000D01*
X202681000Y-104719000D01*
X202681000Y-107371000D01*
G37*
G36*
X199724674Y-104398465D02*
G01*
X199762367Y-104409899D01*
X199797103Y-104428466D01*
X199827548Y-104453452D01*
X199852534Y-104483897D01*
X199871101Y-104518633D01*
X199882535Y-104556326D01*
X199887000Y-104601661D01*
X199887000Y-105438339D01*
X199882535Y-105483674D01*
X199871101Y-105521367D01*
X199852534Y-105556103D01*
X199827548Y-105586548D01*
X199797103Y-105611534D01*
X199762367Y-105630101D01*
X199724674Y-105641535D01*
X199679339Y-105646000D01*
X198592661Y-105646000D01*
X198547326Y-105641535D01*
X198509633Y-105630101D01*
X198474897Y-105611534D01*
X198444452Y-105586548D01*
X198419466Y-105556103D01*
X198400899Y-105521367D01*
X198389465Y-105483674D01*
X198385000Y-105438339D01*
X198385000Y-104601661D01*
X198389465Y-104556326D01*
X198400899Y-104518633D01*
X198419466Y-104483897D01*
X198444452Y-104453452D01*
X198474897Y-104428466D01*
X198509633Y-104409899D01*
X198547326Y-104398465D01*
X198592661Y-104394000D01*
X199679339Y-104394000D01*
X199724674Y-104398465D01*
G37*
G36*
X207852674Y-104398465D02*
G01*
X207890367Y-104409899D01*
X207925103Y-104428466D01*
X207955548Y-104453452D01*
X207980534Y-104483897D01*
X207999101Y-104518633D01*
X208010535Y-104556326D01*
X208015000Y-104601661D01*
X208015000Y-105438339D01*
X208010535Y-105483674D01*
X207999101Y-105521367D01*
X207980534Y-105556103D01*
X207955548Y-105586548D01*
X207925103Y-105611534D01*
X207890367Y-105630101D01*
X207852674Y-105641535D01*
X207807339Y-105646000D01*
X206720661Y-105646000D01*
X206675326Y-105641535D01*
X206637633Y-105630101D01*
X206602897Y-105611534D01*
X206572452Y-105586548D01*
X206547466Y-105556103D01*
X206528899Y-105521367D01*
X206517465Y-105483674D01*
X206513000Y-105438339D01*
X206513000Y-104601661D01*
X206517465Y-104556326D01*
X206528899Y-104518633D01*
X206547466Y-104483897D01*
X206572452Y-104453452D01*
X206602897Y-104428466D01*
X206637633Y-104409899D01*
X206675326Y-104398465D01*
X206720661Y-104394000D01*
X207807339Y-104394000D01*
X207852674Y-104398465D01*
G37*
G36*
X205381000Y-105471000D02*
G01*
X203719000Y-105471000D01*
X203719000Y-104719000D01*
X205381000Y-104719000D01*
X205381000Y-105471000D01*
G37*
G36*
X195693512Y-103243927D02*
G01*
X195842812Y-103273624D01*
X196006784Y-103341544D01*
X196154354Y-103440147D01*
X196279853Y-103565646D01*
X196378456Y-103713216D01*
X196446376Y-103877188D01*
X196481000Y-104051259D01*
X196481000Y-104228741D01*
X196446376Y-104402812D01*
X196378456Y-104566784D01*
X196279853Y-104714354D01*
X196154354Y-104839853D01*
X196006784Y-104938456D01*
X195842812Y-105006376D01*
X195693512Y-105036073D01*
X195668742Y-105041000D01*
X195491258Y-105041000D01*
X195466488Y-105036073D01*
X195317188Y-105006376D01*
X195153216Y-104938456D01*
X195005646Y-104839853D01*
X194880147Y-104714354D01*
X194781544Y-104566784D01*
X194713624Y-104402812D01*
X194679000Y-104228741D01*
X194679000Y-104051259D01*
X194713624Y-103877188D01*
X194781544Y-103713216D01*
X194880147Y-103565646D01*
X195005646Y-103440147D01*
X195153216Y-103341544D01*
X195317188Y-103273624D01*
X195466488Y-103243927D01*
X195491258Y-103239000D01*
X195668742Y-103239000D01*
X195693512Y-103243927D01*
G37*
G36*
X210933512Y-103243927D02*
G01*
X211082812Y-103273624D01*
X211246784Y-103341544D01*
X211394354Y-103440147D01*
X211519853Y-103565646D01*
X211618456Y-103713216D01*
X211686376Y-103877188D01*
X211721000Y-104051259D01*
X211721000Y-104228741D01*
X211686376Y-104402812D01*
X211618456Y-104566784D01*
X211519853Y-104714354D01*
X211394354Y-104839853D01*
X211246784Y-104938456D01*
X211082812Y-105006376D01*
X210933512Y-105036073D01*
X210908742Y-105041000D01*
X210731258Y-105041000D01*
X210706488Y-105036073D01*
X210557188Y-105006376D01*
X210393216Y-104938456D01*
X210245646Y-104839853D01*
X210120147Y-104714354D01*
X210021544Y-104566784D01*
X209953624Y-104402812D01*
X209919000Y-104228741D01*
X209919000Y-104051259D01*
X209953624Y-103877188D01*
X210021544Y-103713216D01*
X210120147Y-103565646D01*
X210245646Y-103440147D01*
X210393216Y-103341544D01*
X210557188Y-103273624D01*
X210706488Y-103243927D01*
X210731258Y-103239000D01*
X210908742Y-103239000D01*
X210933512Y-103243927D01*
G37*
G36*
X207736674Y-102123465D02*
G01*
X207774367Y-102134899D01*
X207809103Y-102153466D01*
X207839548Y-102178452D01*
X207864534Y-102208897D01*
X207883101Y-102243633D01*
X207894535Y-102281326D01*
X207899000Y-102326661D01*
X207899000Y-103413339D01*
X207894535Y-103458674D01*
X207883101Y-103496367D01*
X207864534Y-103531103D01*
X207839548Y-103561548D01*
X207809103Y-103586534D01*
X207774367Y-103605101D01*
X207736674Y-103616535D01*
X207691339Y-103621000D01*
X206854661Y-103621000D01*
X206809326Y-103616535D01*
X206771633Y-103605101D01*
X206736897Y-103586534D01*
X206706452Y-103561548D01*
X206681466Y-103531103D01*
X206662899Y-103496367D01*
X206651465Y-103458674D01*
X206647000Y-103413339D01*
X206647000Y-102326661D01*
X206651465Y-102281326D01*
X206662899Y-102243633D01*
X206681466Y-102208897D01*
X206706452Y-102178452D01*
X206736897Y-102153466D01*
X206771633Y-102134899D01*
X206809326Y-102123465D01*
X206854661Y-102119000D01*
X207691339Y-102119000D01*
X207736674Y-102123465D01*
G37*
G36*
X205686674Y-102123465D02*
G01*
X205724367Y-102134899D01*
X205759103Y-102153466D01*
X205789548Y-102178452D01*
X205814534Y-102208897D01*
X205833101Y-102243633D01*
X205844535Y-102281326D01*
X205849000Y-102326661D01*
X205849000Y-103413339D01*
X205844535Y-103458674D01*
X205833101Y-103496367D01*
X205814534Y-103531103D01*
X205789548Y-103561548D01*
X205759103Y-103586534D01*
X205724367Y-103605101D01*
X205686674Y-103616535D01*
X205641339Y-103621000D01*
X204804661Y-103621000D01*
X204759326Y-103616535D01*
X204721633Y-103605101D01*
X204686897Y-103586534D01*
X204656452Y-103561548D01*
X204631466Y-103531103D01*
X204612899Y-103496367D01*
X204601465Y-103458674D01*
X204597000Y-103413339D01*
X204597000Y-102326661D01*
X204601465Y-102281326D01*
X204612899Y-102243633D01*
X204631466Y-102208897D01*
X204656452Y-102178452D01*
X204686897Y-102153466D01*
X204721633Y-102134899D01*
X204759326Y-102123465D01*
X204804661Y-102119000D01*
X205641339Y-102119000D01*
X205686674Y-102123465D01*
G37*
G36*
X202402674Y-102123465D02*
G01*
X202440367Y-102134899D01*
X202475103Y-102153466D01*
X202505548Y-102178452D01*
X202530534Y-102208897D01*
X202549101Y-102243633D01*
X202560535Y-102281326D01*
X202565000Y-102326661D01*
X202565000Y-103413339D01*
X202560535Y-103458674D01*
X202549101Y-103496367D01*
X202530534Y-103531103D01*
X202505548Y-103561548D01*
X202475103Y-103586534D01*
X202440367Y-103605101D01*
X202402674Y-103616535D01*
X202357339Y-103621000D01*
X201520661Y-103621000D01*
X201475326Y-103616535D01*
X201437633Y-103605101D01*
X201402897Y-103586534D01*
X201372452Y-103561548D01*
X201347466Y-103531103D01*
X201328899Y-103496367D01*
X201317465Y-103458674D01*
X201313000Y-103413339D01*
X201313000Y-102326661D01*
X201317465Y-102281326D01*
X201328899Y-102243633D01*
X201347466Y-102208897D01*
X201372452Y-102178452D01*
X201402897Y-102153466D01*
X201437633Y-102134899D01*
X201475326Y-102123465D01*
X201520661Y-102119000D01*
X202357339Y-102119000D01*
X202402674Y-102123465D01*
G37*
G36*
X200352674Y-102123465D02*
G01*
X200390367Y-102134899D01*
X200425103Y-102153466D01*
X200455548Y-102178452D01*
X200480534Y-102208897D01*
X200499101Y-102243633D01*
X200510535Y-102281326D01*
X200515000Y-102326661D01*
X200515000Y-103413339D01*
X200510535Y-103458674D01*
X200499101Y-103496367D01*
X200480534Y-103531103D01*
X200455548Y-103561548D01*
X200425103Y-103586534D01*
X200390367Y-103605101D01*
X200352674Y-103616535D01*
X200307339Y-103621000D01*
X199470661Y-103621000D01*
X199425326Y-103616535D01*
X199387633Y-103605101D01*
X199352897Y-103586534D01*
X199322452Y-103561548D01*
X199297466Y-103531103D01*
X199278899Y-103496367D01*
X199267465Y-103458674D01*
X199263000Y-103413339D01*
X199263000Y-102326661D01*
X199267465Y-102281326D01*
X199278899Y-102243633D01*
X199297466Y-102208897D01*
X199322452Y-102178452D01*
X199352897Y-102153466D01*
X199387633Y-102134899D01*
X199425326Y-102123465D01*
X199470661Y-102119000D01*
X200307339Y-102119000D01*
X200352674Y-102123465D01*
G37*
G36*
X211721000Y-102501000D02*
G01*
X209919000Y-102501000D01*
X209919000Y-100699000D01*
X211721000Y-100699000D01*
X211721000Y-102501000D01*
G37*
G36*
X196481000Y-102501000D02*
G01*
X194679000Y-102501000D01*
X194679000Y-100699000D01*
X196481000Y-100699000D01*
X196481000Y-102501000D01*
G37*
G36*
X200410383Y-99364489D02*
G01*
X200410386Y-99364490D01*
X200410385Y-99364490D01*
X200474258Y-99390946D01*
X200531748Y-99429360D01*
X200580640Y-99478252D01*
X200619054Y-99535742D01*
X200640624Y-99587818D01*
X200645511Y-99599617D01*
X200659000Y-99667430D01*
X200659000Y-99736570D01*
X200645511Y-99804383D01*
X200645510Y-99804385D01*
X200619054Y-99868258D01*
X200574246Y-99935317D01*
X200573230Y-99936555D01*
X200561679Y-99958166D01*
X200554566Y-99981615D01*
X200552164Y-100006001D01*
X200554566Y-100030387D01*
X200561679Y-100053836D01*
X200573230Y-100075447D01*
X200588775Y-100094389D01*
X200607717Y-100109934D01*
X200629328Y-100121485D01*
X200652777Y-100128598D01*
X200677163Y-100131000D01*
X205718837Y-100131000D01*
X205743223Y-100128598D01*
X205766672Y-100121485D01*
X205788283Y-100109934D01*
X205807225Y-100094389D01*
X205822770Y-100075447D01*
X205834321Y-100053836D01*
X205841434Y-100030387D01*
X205843836Y-100006001D01*
X205841434Y-99981615D01*
X205834321Y-99958166D01*
X205822770Y-99936555D01*
X205821754Y-99935317D01*
X205776946Y-99868258D01*
X205750490Y-99804385D01*
X205750489Y-99804383D01*
X205737000Y-99736570D01*
X205737000Y-99667430D01*
X205750489Y-99599617D01*
X205755376Y-99587818D01*
X205776946Y-99535742D01*
X205815360Y-99478252D01*
X205864252Y-99429360D01*
X205921742Y-99390946D01*
X205985615Y-99364490D01*
X205985614Y-99364490D01*
X205985617Y-99364489D01*
X206053430Y-99351000D01*
X206122570Y-99351000D01*
X206190383Y-99364489D01*
X206190386Y-99364490D01*
X206190385Y-99364490D01*
X206254258Y-99390946D01*
X206311748Y-99429360D01*
X206360640Y-99478252D01*
X206399054Y-99535742D01*
X206420624Y-99587818D01*
X206425511Y-99599617D01*
X206439000Y-99667430D01*
X206439000Y-99736570D01*
X206425511Y-99804383D01*
X206425510Y-99804385D01*
X206399054Y-99868258D01*
X206354246Y-99935317D01*
X206353230Y-99936555D01*
X206341679Y-99958166D01*
X206334566Y-99981615D01*
X206332164Y-100006001D01*
X206334566Y-100030387D01*
X206341679Y-100053836D01*
X206353230Y-100075447D01*
X206368775Y-100094389D01*
X206387717Y-100109934D01*
X206409328Y-100121485D01*
X206432777Y-100128598D01*
X206457163Y-100131000D01*
X206749000Y-100131000D01*
X206749000Y-101393000D01*
X199647000Y-101393000D01*
X199647000Y-100131000D01*
X199938837Y-100131000D01*
X199963223Y-100128598D01*
X199986672Y-100121485D01*
X200008283Y-100109934D01*
X200027225Y-100094389D01*
X200042770Y-100075447D01*
X200054321Y-100053836D01*
X200061434Y-100030387D01*
X200063836Y-100006001D01*
X200061434Y-99981615D01*
X200054321Y-99958166D01*
X200042770Y-99936555D01*
X200041754Y-99935317D01*
X199996946Y-99868258D01*
X199970490Y-99804385D01*
X199970489Y-99804383D01*
X199957000Y-99736570D01*
X199957000Y-99667430D01*
X199970489Y-99599617D01*
X199975376Y-99587818D01*
X199996946Y-99535742D01*
X200035360Y-99478252D01*
X200084252Y-99429360D01*
X200141742Y-99390946D01*
X200205615Y-99364490D01*
X200205614Y-99364490D01*
X200205617Y-99364489D01*
X200273430Y-99351000D01*
X200342570Y-99351000D01*
X200410383Y-99364489D01*
G37*
G36*
X198976213Y-99138249D02*
G01*
X199070652Y-99166897D01*
X199157687Y-99213418D01*
X199233975Y-99276025D01*
X199296582Y-99352313D01*
X199343103Y-99439348D01*
X199371751Y-99533787D01*
X199379000Y-99607388D01*
X199379000Y-100756612D01*
X199371751Y-100830213D01*
X199343103Y-100924652D01*
X199296582Y-101011687D01*
X199233975Y-101087975D01*
X199157687Y-101150582D01*
X199070651Y-101197103D01*
X198976212Y-101225751D01*
X198878000Y-101235424D01*
X198779787Y-101225751D01*
X198685348Y-101197103D01*
X198598313Y-101150582D01*
X198522025Y-101087975D01*
X198459418Y-101011687D01*
X198412897Y-100924651D01*
X198384249Y-100830212D01*
X198377000Y-100756611D01*
X198377001Y-99607388D01*
X198384250Y-99533787D01*
X198412898Y-99439348D01*
X198459419Y-99352313D01*
X198522026Y-99276025D01*
X198598314Y-99213418D01*
X198685349Y-99166897D01*
X198779788Y-99138249D01*
X198878000Y-99128576D01*
X198976213Y-99138249D01*
G37*
G36*
X207616213Y-99138249D02*
G01*
X207710652Y-99166897D01*
X207797687Y-99213418D01*
X207873975Y-99276025D01*
X207936582Y-99352313D01*
X207983103Y-99439348D01*
X208011751Y-99533787D01*
X208019000Y-99607388D01*
X208019000Y-100756612D01*
X208011751Y-100830213D01*
X207983103Y-100924652D01*
X207936582Y-101011687D01*
X207873975Y-101087975D01*
X207797687Y-101150582D01*
X207710651Y-101197103D01*
X207616212Y-101225751D01*
X207518000Y-101235424D01*
X207419787Y-101225751D01*
X207325348Y-101197103D01*
X207238313Y-101150582D01*
X207162025Y-101087975D01*
X207099418Y-101011687D01*
X207052897Y-100924651D01*
X207024249Y-100830212D01*
X207017000Y-100756611D01*
X207017001Y-99607388D01*
X207024250Y-99533787D01*
X207052898Y-99439348D01*
X207099419Y-99352313D01*
X207162026Y-99276025D01*
X207238314Y-99213418D01*
X207325349Y-99166897D01*
X207419788Y-99138249D01*
X207518000Y-99128576D01*
X207616213Y-99138249D01*
G37*
G36*
X198976213Y-95118249D02*
G01*
X199070652Y-95146897D01*
X199157687Y-95193418D01*
X199233975Y-95256025D01*
X199296582Y-95332313D01*
X199343103Y-95419348D01*
X199371751Y-95513787D01*
X199379000Y-95587388D01*
X199379000Y-96436612D01*
X199371751Y-96510213D01*
X199343103Y-96604652D01*
X199296582Y-96691687D01*
X199233975Y-96767975D01*
X199157687Y-96830582D01*
X199070651Y-96877103D01*
X198976212Y-96905751D01*
X198878000Y-96915424D01*
X198779787Y-96905751D01*
X198685348Y-96877103D01*
X198598313Y-96830582D01*
X198522025Y-96767975D01*
X198459418Y-96691687D01*
X198412897Y-96604651D01*
X198384249Y-96510212D01*
X198377000Y-96436611D01*
X198377000Y-95587398D01*
X198384250Y-95513786D01*
X198401474Y-95457009D01*
X198412898Y-95419348D01*
X198459419Y-95332313D01*
X198522026Y-95256025D01*
X198598314Y-95193418D01*
X198685349Y-95146897D01*
X198779788Y-95118249D01*
X198878000Y-95108576D01*
X198976213Y-95118249D01*
G37*
G36*
X207616213Y-95118249D02*
G01*
X207710652Y-95146897D01*
X207797687Y-95193418D01*
X207873975Y-95256025D01*
X207936582Y-95332313D01*
X207983103Y-95419348D01*
X208011751Y-95513787D01*
X208019000Y-95587388D01*
X208019000Y-96436612D01*
X208011751Y-96510213D01*
X207983103Y-96604652D01*
X207936582Y-96691687D01*
X207873975Y-96767975D01*
X207797687Y-96830582D01*
X207710651Y-96877103D01*
X207616212Y-96905751D01*
X207518000Y-96915424D01*
X207419787Y-96905751D01*
X207325348Y-96877103D01*
X207238313Y-96830582D01*
X207162025Y-96767975D01*
X207099418Y-96691687D01*
X207052897Y-96604651D01*
X207024249Y-96510212D01*
X207017000Y-96436611D01*
X207017000Y-95587398D01*
X207024250Y-95513786D01*
X207041474Y-95457009D01*
X207052898Y-95419348D01*
X207099419Y-95332313D01*
X207162026Y-95256025D01*
X207238314Y-95193418D01*
X207325349Y-95146897D01*
X207419788Y-95118249D01*
X207518000Y-95108576D01*
X207616213Y-95118249D01*
G37*
G36*
X195740721Y-95355174D02*
G01*
X195840995Y-95396709D01*
X195874884Y-95419353D01*
X195931242Y-95457010D01*
X196007990Y-95533758D01*
X196007991Y-95533760D01*
X196068291Y-95624005D01*
X196109826Y-95724279D01*
X196131000Y-95830730D01*
X196131000Y-95939270D01*
X196109826Y-96045721D01*
X196068291Y-96145995D01*
X196068290Y-96145996D01*
X196007990Y-96236242D01*
X195931242Y-96312990D01*
X195885812Y-96343345D01*
X195840995Y-96373291D01*
X195740721Y-96414826D01*
X195634270Y-96436000D01*
X195525730Y-96436000D01*
X195419279Y-96414826D01*
X195319005Y-96373291D01*
X195274188Y-96343345D01*
X195228758Y-96312990D01*
X195152010Y-96236242D01*
X195091710Y-96145996D01*
X195091709Y-96145995D01*
X195050174Y-96045721D01*
X195029000Y-95939270D01*
X195029000Y-95830730D01*
X195050174Y-95724279D01*
X195091709Y-95624005D01*
X195152009Y-95533760D01*
X195152010Y-95533758D01*
X195228758Y-95457010D01*
X195285116Y-95419353D01*
X195319005Y-95396709D01*
X195419279Y-95355174D01*
X195525730Y-95334000D01*
X195634270Y-95334000D01*
X195740721Y-95355174D01*
G37*
M02*
