%TF.GenerationSoftware,KiCad,Pcbnew,(5.1.5-0-10_14)*%
%TF.CreationDate,2020-02-16T20:03:40+10:00*%
%TF.ProjectId,turtleboard,74757274-6c65-4626-9f61-72642e6b6963,rev?*%
%TF.SameCoordinates,Original*%
%TF.FileFunction,Copper,L1,Top*%
%TF.FilePolarity,Positive*%
%FSLAX46Y46*%
G04 Gerber Fmt 4.6, Leading zero omitted, Abs format (unit mm)*
G04 Created by KiCad (PCBNEW (5.1.5-0-10_14)) date 2020-02-16 20:03:40*
%MOMM*%
%LPD*%
G04 APERTURE LIST*
%ADD10R,0.600000X1.160000*%
%ADD11R,0.300000X1.160000*%
%ADD12O,0.900000X1.700000*%
%ADD13O,0.900000X2.000000*%
%ADD14R,1.450000X0.450000*%
%ADD15O,1.700000X1.700000*%
%ADD16R,1.700000X1.700000*%
%ADD17C,0.100000*%
%ADD18R,1.560000X0.650000*%
%ADD19C,0.800000*%
%ADD20C,0.250000*%
%ADD21C,0.254000*%
G04 APERTURE END LIST*
D10*
X199998000Y-100762000D03*
X200798000Y-100762000D03*
X199998000Y-100762000D03*
X200798000Y-100762000D03*
X206398000Y-100762000D03*
X206398000Y-100762000D03*
X205598000Y-100762000D03*
X205598000Y-100762000D03*
D11*
X201448000Y-100762000D03*
X202448000Y-100762000D03*
X201948000Y-100762000D03*
X204448000Y-100762000D03*
X204948000Y-100762000D03*
X202948000Y-100762000D03*
X203448000Y-100762000D03*
X203948000Y-100762000D03*
D12*
X198878000Y-96012000D03*
X207518000Y-96012000D03*
D13*
X198878000Y-100182000D03*
X207518000Y-100182000D03*
D14*
X206150000Y-111375000D03*
X206150000Y-112025000D03*
X206150000Y-112675000D03*
X206150000Y-113325000D03*
X206150000Y-113975000D03*
X206150000Y-114625000D03*
X206150000Y-115275000D03*
X206150000Y-115925000D03*
X206150000Y-116575000D03*
X206150000Y-117225000D03*
X200250000Y-117225000D03*
X200250000Y-116575000D03*
X200250000Y-115925000D03*
X200250000Y-115275000D03*
X200250000Y-114625000D03*
X200250000Y-113975000D03*
X200250000Y-113325000D03*
X200250000Y-112675000D03*
X200250000Y-112025000D03*
X200250000Y-111375000D03*
D15*
X210820000Y-121920000D03*
X210820000Y-119380000D03*
X210820000Y-116840000D03*
X210820000Y-114300000D03*
X210820000Y-111760000D03*
X210820000Y-109220000D03*
X210820000Y-106680000D03*
X210820000Y-104140000D03*
D16*
X210820000Y-101600000D03*
D15*
X195580000Y-121920000D03*
X195580000Y-119380000D03*
X195580000Y-116840000D03*
X195580000Y-114300000D03*
X195580000Y-111760000D03*
X195580000Y-109220000D03*
X195580000Y-106680000D03*
X195580000Y-104140000D03*
D16*
X195580000Y-101600000D03*
%TA.AperFunction,SMDPad,CuDef*%
D17*
G36*
X198959505Y-108521204D02*
G01*
X198983773Y-108524804D01*
X199007572Y-108530765D01*
X199030671Y-108539030D01*
X199052850Y-108549520D01*
X199073893Y-108562132D01*
X199093599Y-108576747D01*
X199111777Y-108593223D01*
X199128253Y-108611401D01*
X199142868Y-108631107D01*
X199155480Y-108652150D01*
X199165970Y-108674329D01*
X199174235Y-108697428D01*
X199180196Y-108721227D01*
X199183796Y-108745495D01*
X199185000Y-108769999D01*
X199185000Y-109670001D01*
X199183796Y-109694505D01*
X199180196Y-109718773D01*
X199174235Y-109742572D01*
X199165970Y-109765671D01*
X199155480Y-109787850D01*
X199142868Y-109808893D01*
X199128253Y-109828599D01*
X199111777Y-109846777D01*
X199093599Y-109863253D01*
X199073893Y-109877868D01*
X199052850Y-109890480D01*
X199030671Y-109900970D01*
X199007572Y-109909235D01*
X198983773Y-109915196D01*
X198959505Y-109918796D01*
X198935001Y-109920000D01*
X198284999Y-109920000D01*
X198260495Y-109918796D01*
X198236227Y-109915196D01*
X198212428Y-109909235D01*
X198189329Y-109900970D01*
X198167150Y-109890480D01*
X198146107Y-109877868D01*
X198126401Y-109863253D01*
X198108223Y-109846777D01*
X198091747Y-109828599D01*
X198077132Y-109808893D01*
X198064520Y-109787850D01*
X198054030Y-109765671D01*
X198045765Y-109742572D01*
X198039804Y-109718773D01*
X198036204Y-109694505D01*
X198035000Y-109670001D01*
X198035000Y-108769999D01*
X198036204Y-108745495D01*
X198039804Y-108721227D01*
X198045765Y-108697428D01*
X198054030Y-108674329D01*
X198064520Y-108652150D01*
X198077132Y-108631107D01*
X198091747Y-108611401D01*
X198108223Y-108593223D01*
X198126401Y-108576747D01*
X198146107Y-108562132D01*
X198167150Y-108549520D01*
X198189329Y-108539030D01*
X198212428Y-108530765D01*
X198236227Y-108524804D01*
X198260495Y-108521204D01*
X198284999Y-108520000D01*
X198935001Y-108520000D01*
X198959505Y-108521204D01*
G37*
%TD.AperFunction*%
%TA.AperFunction,SMDPad,CuDef*%
G36*
X201009505Y-108521204D02*
G01*
X201033773Y-108524804D01*
X201057572Y-108530765D01*
X201080671Y-108539030D01*
X201102850Y-108549520D01*
X201123893Y-108562132D01*
X201143599Y-108576747D01*
X201161777Y-108593223D01*
X201178253Y-108611401D01*
X201192868Y-108631107D01*
X201205480Y-108652150D01*
X201215970Y-108674329D01*
X201224235Y-108697428D01*
X201230196Y-108721227D01*
X201233796Y-108745495D01*
X201235000Y-108769999D01*
X201235000Y-109670001D01*
X201233796Y-109694505D01*
X201230196Y-109718773D01*
X201224235Y-109742572D01*
X201215970Y-109765671D01*
X201205480Y-109787850D01*
X201192868Y-109808893D01*
X201178253Y-109828599D01*
X201161777Y-109846777D01*
X201143599Y-109863253D01*
X201123893Y-109877868D01*
X201102850Y-109890480D01*
X201080671Y-109900970D01*
X201057572Y-109909235D01*
X201033773Y-109915196D01*
X201009505Y-109918796D01*
X200985001Y-109920000D01*
X200334999Y-109920000D01*
X200310495Y-109918796D01*
X200286227Y-109915196D01*
X200262428Y-109909235D01*
X200239329Y-109900970D01*
X200217150Y-109890480D01*
X200196107Y-109877868D01*
X200176401Y-109863253D01*
X200158223Y-109846777D01*
X200141747Y-109828599D01*
X200127132Y-109808893D01*
X200114520Y-109787850D01*
X200104030Y-109765671D01*
X200095765Y-109742572D01*
X200089804Y-109718773D01*
X200086204Y-109694505D01*
X200085000Y-109670001D01*
X200085000Y-108769999D01*
X200086204Y-108745495D01*
X200089804Y-108721227D01*
X200095765Y-108697428D01*
X200104030Y-108674329D01*
X200114520Y-108652150D01*
X200127132Y-108631107D01*
X200141747Y-108611401D01*
X200158223Y-108593223D01*
X200176401Y-108576747D01*
X200196107Y-108562132D01*
X200217150Y-108549520D01*
X200239329Y-108539030D01*
X200262428Y-108530765D01*
X200286227Y-108524804D01*
X200310495Y-108521204D01*
X200334999Y-108520000D01*
X200985001Y-108520000D01*
X201009505Y-108521204D01*
G37*
%TD.AperFunction*%
%TA.AperFunction,SMDPad,CuDef*%
G36*
X201780505Y-118935204D02*
G01*
X201804773Y-118938804D01*
X201828572Y-118944765D01*
X201851671Y-118953030D01*
X201873850Y-118963520D01*
X201894893Y-118976132D01*
X201914599Y-118990747D01*
X201932777Y-119007223D01*
X201949253Y-119025401D01*
X201963868Y-119045107D01*
X201976480Y-119066150D01*
X201986970Y-119088329D01*
X201995235Y-119111428D01*
X202001196Y-119135227D01*
X202004796Y-119159495D01*
X202006000Y-119183999D01*
X202006000Y-120084001D01*
X202004796Y-120108505D01*
X202001196Y-120132773D01*
X201995235Y-120156572D01*
X201986970Y-120179671D01*
X201976480Y-120201850D01*
X201963868Y-120222893D01*
X201949253Y-120242599D01*
X201932777Y-120260777D01*
X201914599Y-120277253D01*
X201894893Y-120291868D01*
X201873850Y-120304480D01*
X201851671Y-120314970D01*
X201828572Y-120323235D01*
X201804773Y-120329196D01*
X201780505Y-120332796D01*
X201756001Y-120334000D01*
X201105999Y-120334000D01*
X201081495Y-120332796D01*
X201057227Y-120329196D01*
X201033428Y-120323235D01*
X201010329Y-120314970D01*
X200988150Y-120304480D01*
X200967107Y-120291868D01*
X200947401Y-120277253D01*
X200929223Y-120260777D01*
X200912747Y-120242599D01*
X200898132Y-120222893D01*
X200885520Y-120201850D01*
X200875030Y-120179671D01*
X200866765Y-120156572D01*
X200860804Y-120132773D01*
X200857204Y-120108505D01*
X200856000Y-120084001D01*
X200856000Y-119183999D01*
X200857204Y-119159495D01*
X200860804Y-119135227D01*
X200866765Y-119111428D01*
X200875030Y-119088329D01*
X200885520Y-119066150D01*
X200898132Y-119045107D01*
X200912747Y-119025401D01*
X200929223Y-119007223D01*
X200947401Y-118990747D01*
X200967107Y-118976132D01*
X200988150Y-118963520D01*
X201010329Y-118953030D01*
X201033428Y-118944765D01*
X201057227Y-118938804D01*
X201081495Y-118935204D01*
X201105999Y-118934000D01*
X201756001Y-118934000D01*
X201780505Y-118935204D01*
G37*
%TD.AperFunction*%
%TA.AperFunction,SMDPad,CuDef*%
G36*
X199730505Y-118935204D02*
G01*
X199754773Y-118938804D01*
X199778572Y-118944765D01*
X199801671Y-118953030D01*
X199823850Y-118963520D01*
X199844893Y-118976132D01*
X199864599Y-118990747D01*
X199882777Y-119007223D01*
X199899253Y-119025401D01*
X199913868Y-119045107D01*
X199926480Y-119066150D01*
X199936970Y-119088329D01*
X199945235Y-119111428D01*
X199951196Y-119135227D01*
X199954796Y-119159495D01*
X199956000Y-119183999D01*
X199956000Y-120084001D01*
X199954796Y-120108505D01*
X199951196Y-120132773D01*
X199945235Y-120156572D01*
X199936970Y-120179671D01*
X199926480Y-120201850D01*
X199913868Y-120222893D01*
X199899253Y-120242599D01*
X199882777Y-120260777D01*
X199864599Y-120277253D01*
X199844893Y-120291868D01*
X199823850Y-120304480D01*
X199801671Y-120314970D01*
X199778572Y-120323235D01*
X199754773Y-120329196D01*
X199730505Y-120332796D01*
X199706001Y-120334000D01*
X199055999Y-120334000D01*
X199031495Y-120332796D01*
X199007227Y-120329196D01*
X198983428Y-120323235D01*
X198960329Y-120314970D01*
X198938150Y-120304480D01*
X198917107Y-120291868D01*
X198897401Y-120277253D01*
X198879223Y-120260777D01*
X198862747Y-120242599D01*
X198848132Y-120222893D01*
X198835520Y-120201850D01*
X198825030Y-120179671D01*
X198816765Y-120156572D01*
X198810804Y-120132773D01*
X198807204Y-120108505D01*
X198806000Y-120084001D01*
X198806000Y-119183999D01*
X198807204Y-119159495D01*
X198810804Y-119135227D01*
X198816765Y-119111428D01*
X198825030Y-119088329D01*
X198835520Y-119066150D01*
X198848132Y-119045107D01*
X198862747Y-119025401D01*
X198879223Y-119007223D01*
X198897401Y-118990747D01*
X198917107Y-118976132D01*
X198938150Y-118963520D01*
X198960329Y-118953030D01*
X198983428Y-118944765D01*
X199007227Y-118938804D01*
X199031495Y-118935204D01*
X199055999Y-118934000D01*
X199706001Y-118934000D01*
X199730505Y-118935204D01*
G37*
%TD.AperFunction*%
%TA.AperFunction,SMDPad,CuDef*%
G36*
X205572505Y-102171204D02*
G01*
X205596773Y-102174804D01*
X205620572Y-102180765D01*
X205643671Y-102189030D01*
X205665850Y-102199520D01*
X205686893Y-102212132D01*
X205706599Y-102226747D01*
X205724777Y-102243223D01*
X205741253Y-102261401D01*
X205755868Y-102281107D01*
X205768480Y-102302150D01*
X205778970Y-102324329D01*
X205787235Y-102347428D01*
X205793196Y-102371227D01*
X205796796Y-102395495D01*
X205798000Y-102419999D01*
X205798000Y-103320001D01*
X205796796Y-103344505D01*
X205793196Y-103368773D01*
X205787235Y-103392572D01*
X205778970Y-103415671D01*
X205768480Y-103437850D01*
X205755868Y-103458893D01*
X205741253Y-103478599D01*
X205724777Y-103496777D01*
X205706599Y-103513253D01*
X205686893Y-103527868D01*
X205665850Y-103540480D01*
X205643671Y-103550970D01*
X205620572Y-103559235D01*
X205596773Y-103565196D01*
X205572505Y-103568796D01*
X205548001Y-103570000D01*
X204897999Y-103570000D01*
X204873495Y-103568796D01*
X204849227Y-103565196D01*
X204825428Y-103559235D01*
X204802329Y-103550970D01*
X204780150Y-103540480D01*
X204759107Y-103527868D01*
X204739401Y-103513253D01*
X204721223Y-103496777D01*
X204704747Y-103478599D01*
X204690132Y-103458893D01*
X204677520Y-103437850D01*
X204667030Y-103415671D01*
X204658765Y-103392572D01*
X204652804Y-103368773D01*
X204649204Y-103344505D01*
X204648000Y-103320001D01*
X204648000Y-102419999D01*
X204649204Y-102395495D01*
X204652804Y-102371227D01*
X204658765Y-102347428D01*
X204667030Y-102324329D01*
X204677520Y-102302150D01*
X204690132Y-102281107D01*
X204704747Y-102261401D01*
X204721223Y-102243223D01*
X204739401Y-102226747D01*
X204759107Y-102212132D01*
X204780150Y-102199520D01*
X204802329Y-102189030D01*
X204825428Y-102180765D01*
X204849227Y-102174804D01*
X204873495Y-102171204D01*
X204897999Y-102170000D01*
X205548001Y-102170000D01*
X205572505Y-102171204D01*
G37*
%TD.AperFunction*%
%TA.AperFunction,SMDPad,CuDef*%
G36*
X207622505Y-102171204D02*
G01*
X207646773Y-102174804D01*
X207670572Y-102180765D01*
X207693671Y-102189030D01*
X207715850Y-102199520D01*
X207736893Y-102212132D01*
X207756599Y-102226747D01*
X207774777Y-102243223D01*
X207791253Y-102261401D01*
X207805868Y-102281107D01*
X207818480Y-102302150D01*
X207828970Y-102324329D01*
X207837235Y-102347428D01*
X207843196Y-102371227D01*
X207846796Y-102395495D01*
X207848000Y-102419999D01*
X207848000Y-103320001D01*
X207846796Y-103344505D01*
X207843196Y-103368773D01*
X207837235Y-103392572D01*
X207828970Y-103415671D01*
X207818480Y-103437850D01*
X207805868Y-103458893D01*
X207791253Y-103478599D01*
X207774777Y-103496777D01*
X207756599Y-103513253D01*
X207736893Y-103527868D01*
X207715850Y-103540480D01*
X207693671Y-103550970D01*
X207670572Y-103559235D01*
X207646773Y-103565196D01*
X207622505Y-103568796D01*
X207598001Y-103570000D01*
X206947999Y-103570000D01*
X206923495Y-103568796D01*
X206899227Y-103565196D01*
X206875428Y-103559235D01*
X206852329Y-103550970D01*
X206830150Y-103540480D01*
X206809107Y-103527868D01*
X206789401Y-103513253D01*
X206771223Y-103496777D01*
X206754747Y-103478599D01*
X206740132Y-103458893D01*
X206727520Y-103437850D01*
X206717030Y-103415671D01*
X206708765Y-103392572D01*
X206702804Y-103368773D01*
X206699204Y-103344505D01*
X206698000Y-103320001D01*
X206698000Y-102419999D01*
X206699204Y-102395495D01*
X206702804Y-102371227D01*
X206708765Y-102347428D01*
X206717030Y-102324329D01*
X206727520Y-102302150D01*
X206740132Y-102281107D01*
X206754747Y-102261401D01*
X206771223Y-102243223D01*
X206789401Y-102226747D01*
X206809107Y-102212132D01*
X206830150Y-102199520D01*
X206852329Y-102189030D01*
X206875428Y-102180765D01*
X206899227Y-102174804D01*
X206923495Y-102171204D01*
X206947999Y-102170000D01*
X207598001Y-102170000D01*
X207622505Y-102171204D01*
G37*
%TD.AperFunction*%
%TA.AperFunction,SMDPad,CuDef*%
G36*
X202288505Y-102171204D02*
G01*
X202312773Y-102174804D01*
X202336572Y-102180765D01*
X202359671Y-102189030D01*
X202381850Y-102199520D01*
X202402893Y-102212132D01*
X202422599Y-102226747D01*
X202440777Y-102243223D01*
X202457253Y-102261401D01*
X202471868Y-102281107D01*
X202484480Y-102302150D01*
X202494970Y-102324329D01*
X202503235Y-102347428D01*
X202509196Y-102371227D01*
X202512796Y-102395495D01*
X202514000Y-102419999D01*
X202514000Y-103320001D01*
X202512796Y-103344505D01*
X202509196Y-103368773D01*
X202503235Y-103392572D01*
X202494970Y-103415671D01*
X202484480Y-103437850D01*
X202471868Y-103458893D01*
X202457253Y-103478599D01*
X202440777Y-103496777D01*
X202422599Y-103513253D01*
X202402893Y-103527868D01*
X202381850Y-103540480D01*
X202359671Y-103550970D01*
X202336572Y-103559235D01*
X202312773Y-103565196D01*
X202288505Y-103568796D01*
X202264001Y-103570000D01*
X201613999Y-103570000D01*
X201589495Y-103568796D01*
X201565227Y-103565196D01*
X201541428Y-103559235D01*
X201518329Y-103550970D01*
X201496150Y-103540480D01*
X201475107Y-103527868D01*
X201455401Y-103513253D01*
X201437223Y-103496777D01*
X201420747Y-103478599D01*
X201406132Y-103458893D01*
X201393520Y-103437850D01*
X201383030Y-103415671D01*
X201374765Y-103392572D01*
X201368804Y-103368773D01*
X201365204Y-103344505D01*
X201364000Y-103320001D01*
X201364000Y-102419999D01*
X201365204Y-102395495D01*
X201368804Y-102371227D01*
X201374765Y-102347428D01*
X201383030Y-102324329D01*
X201393520Y-102302150D01*
X201406132Y-102281107D01*
X201420747Y-102261401D01*
X201437223Y-102243223D01*
X201455401Y-102226747D01*
X201475107Y-102212132D01*
X201496150Y-102199520D01*
X201518329Y-102189030D01*
X201541428Y-102180765D01*
X201565227Y-102174804D01*
X201589495Y-102171204D01*
X201613999Y-102170000D01*
X202264001Y-102170000D01*
X202288505Y-102171204D01*
G37*
%TD.AperFunction*%
%TA.AperFunction,SMDPad,CuDef*%
G36*
X200238505Y-102171204D02*
G01*
X200262773Y-102174804D01*
X200286572Y-102180765D01*
X200309671Y-102189030D01*
X200331850Y-102199520D01*
X200352893Y-102212132D01*
X200372599Y-102226747D01*
X200390777Y-102243223D01*
X200407253Y-102261401D01*
X200421868Y-102281107D01*
X200434480Y-102302150D01*
X200444970Y-102324329D01*
X200453235Y-102347428D01*
X200459196Y-102371227D01*
X200462796Y-102395495D01*
X200464000Y-102419999D01*
X200464000Y-103320001D01*
X200462796Y-103344505D01*
X200459196Y-103368773D01*
X200453235Y-103392572D01*
X200444970Y-103415671D01*
X200434480Y-103437850D01*
X200421868Y-103458893D01*
X200407253Y-103478599D01*
X200390777Y-103496777D01*
X200372599Y-103513253D01*
X200352893Y-103527868D01*
X200331850Y-103540480D01*
X200309671Y-103550970D01*
X200286572Y-103559235D01*
X200262773Y-103565196D01*
X200238505Y-103568796D01*
X200214001Y-103570000D01*
X199563999Y-103570000D01*
X199539495Y-103568796D01*
X199515227Y-103565196D01*
X199491428Y-103559235D01*
X199468329Y-103550970D01*
X199446150Y-103540480D01*
X199425107Y-103527868D01*
X199405401Y-103513253D01*
X199387223Y-103496777D01*
X199370747Y-103478599D01*
X199356132Y-103458893D01*
X199343520Y-103437850D01*
X199333030Y-103415671D01*
X199324765Y-103392572D01*
X199318804Y-103368773D01*
X199315204Y-103344505D01*
X199314000Y-103320001D01*
X199314000Y-102419999D01*
X199315204Y-102395495D01*
X199318804Y-102371227D01*
X199324765Y-102347428D01*
X199333030Y-102324329D01*
X199343520Y-102302150D01*
X199356132Y-102281107D01*
X199370747Y-102261401D01*
X199387223Y-102243223D01*
X199405401Y-102226747D01*
X199425107Y-102212132D01*
X199446150Y-102199520D01*
X199468329Y-102189030D01*
X199491428Y-102180765D01*
X199515227Y-102174804D01*
X199539495Y-102171204D01*
X199563999Y-102170000D01*
X200214001Y-102170000D01*
X200238505Y-102171204D01*
G37*
%TD.AperFunction*%
%TA.AperFunction,SMDPad,CuDef*%
G36*
X205581505Y-118935204D02*
G01*
X205605773Y-118938804D01*
X205629572Y-118944765D01*
X205652671Y-118953030D01*
X205674850Y-118963520D01*
X205695893Y-118976132D01*
X205715599Y-118990747D01*
X205733777Y-119007223D01*
X205750253Y-119025401D01*
X205764868Y-119045107D01*
X205777480Y-119066150D01*
X205787970Y-119088329D01*
X205796235Y-119111428D01*
X205802196Y-119135227D01*
X205805796Y-119159495D01*
X205807000Y-119183999D01*
X205807000Y-120084001D01*
X205805796Y-120108505D01*
X205802196Y-120132773D01*
X205796235Y-120156572D01*
X205787970Y-120179671D01*
X205777480Y-120201850D01*
X205764868Y-120222893D01*
X205750253Y-120242599D01*
X205733777Y-120260777D01*
X205715599Y-120277253D01*
X205695893Y-120291868D01*
X205674850Y-120304480D01*
X205652671Y-120314970D01*
X205629572Y-120323235D01*
X205605773Y-120329196D01*
X205581505Y-120332796D01*
X205557001Y-120334000D01*
X204906999Y-120334000D01*
X204882495Y-120332796D01*
X204858227Y-120329196D01*
X204834428Y-120323235D01*
X204811329Y-120314970D01*
X204789150Y-120304480D01*
X204768107Y-120291868D01*
X204748401Y-120277253D01*
X204730223Y-120260777D01*
X204713747Y-120242599D01*
X204699132Y-120222893D01*
X204686520Y-120201850D01*
X204676030Y-120179671D01*
X204667765Y-120156572D01*
X204661804Y-120132773D01*
X204658204Y-120108505D01*
X204657000Y-120084001D01*
X204657000Y-119183999D01*
X204658204Y-119159495D01*
X204661804Y-119135227D01*
X204667765Y-119111428D01*
X204676030Y-119088329D01*
X204686520Y-119066150D01*
X204699132Y-119045107D01*
X204713747Y-119025401D01*
X204730223Y-119007223D01*
X204748401Y-118990747D01*
X204768107Y-118976132D01*
X204789150Y-118963520D01*
X204811329Y-118953030D01*
X204834428Y-118944765D01*
X204858227Y-118938804D01*
X204882495Y-118935204D01*
X204906999Y-118934000D01*
X205557001Y-118934000D01*
X205581505Y-118935204D01*
G37*
%TD.AperFunction*%
%TA.AperFunction,SMDPad,CuDef*%
G36*
X207631505Y-118935204D02*
G01*
X207655773Y-118938804D01*
X207679572Y-118944765D01*
X207702671Y-118953030D01*
X207724850Y-118963520D01*
X207745893Y-118976132D01*
X207765599Y-118990747D01*
X207783777Y-119007223D01*
X207800253Y-119025401D01*
X207814868Y-119045107D01*
X207827480Y-119066150D01*
X207837970Y-119088329D01*
X207846235Y-119111428D01*
X207852196Y-119135227D01*
X207855796Y-119159495D01*
X207857000Y-119183999D01*
X207857000Y-120084001D01*
X207855796Y-120108505D01*
X207852196Y-120132773D01*
X207846235Y-120156572D01*
X207837970Y-120179671D01*
X207827480Y-120201850D01*
X207814868Y-120222893D01*
X207800253Y-120242599D01*
X207783777Y-120260777D01*
X207765599Y-120277253D01*
X207745893Y-120291868D01*
X207724850Y-120304480D01*
X207702671Y-120314970D01*
X207679572Y-120323235D01*
X207655773Y-120329196D01*
X207631505Y-120332796D01*
X207607001Y-120334000D01*
X206956999Y-120334000D01*
X206932495Y-120332796D01*
X206908227Y-120329196D01*
X206884428Y-120323235D01*
X206861329Y-120314970D01*
X206839150Y-120304480D01*
X206818107Y-120291868D01*
X206798401Y-120277253D01*
X206780223Y-120260777D01*
X206763747Y-120242599D01*
X206749132Y-120222893D01*
X206736520Y-120201850D01*
X206726030Y-120179671D01*
X206717765Y-120156572D01*
X206711804Y-120132773D01*
X206708204Y-120108505D01*
X206707000Y-120084001D01*
X206707000Y-119183999D01*
X206708204Y-119159495D01*
X206711804Y-119135227D01*
X206717765Y-119111428D01*
X206726030Y-119088329D01*
X206736520Y-119066150D01*
X206749132Y-119045107D01*
X206763747Y-119025401D01*
X206780223Y-119007223D01*
X206798401Y-118990747D01*
X206818107Y-118976132D01*
X206839150Y-118963520D01*
X206861329Y-118953030D01*
X206884428Y-118944765D01*
X206908227Y-118938804D01*
X206932495Y-118935204D01*
X206956999Y-118934000D01*
X207607001Y-118934000D01*
X207631505Y-118935204D01*
G37*
%TD.AperFunction*%
D18*
X204550000Y-105095000D03*
X204550000Y-106995000D03*
X201850000Y-106995000D03*
X201850000Y-106045000D03*
X201850000Y-105095000D03*
%TA.AperFunction,SMDPad,CuDef*%
D17*
G36*
X205844505Y-108521204D02*
G01*
X205868773Y-108524804D01*
X205892572Y-108530765D01*
X205915671Y-108539030D01*
X205937850Y-108549520D01*
X205958893Y-108562132D01*
X205978599Y-108576747D01*
X205996777Y-108593223D01*
X206013253Y-108611401D01*
X206027868Y-108631107D01*
X206040480Y-108652150D01*
X206050970Y-108674329D01*
X206059235Y-108697428D01*
X206065196Y-108721227D01*
X206068796Y-108745495D01*
X206070000Y-108769999D01*
X206070000Y-109670001D01*
X206068796Y-109694505D01*
X206065196Y-109718773D01*
X206059235Y-109742572D01*
X206050970Y-109765671D01*
X206040480Y-109787850D01*
X206027868Y-109808893D01*
X206013253Y-109828599D01*
X205996777Y-109846777D01*
X205978599Y-109863253D01*
X205958893Y-109877868D01*
X205937850Y-109890480D01*
X205915671Y-109900970D01*
X205892572Y-109909235D01*
X205868773Y-109915196D01*
X205844505Y-109918796D01*
X205820001Y-109920000D01*
X205169999Y-109920000D01*
X205145495Y-109918796D01*
X205121227Y-109915196D01*
X205097428Y-109909235D01*
X205074329Y-109900970D01*
X205052150Y-109890480D01*
X205031107Y-109877868D01*
X205011401Y-109863253D01*
X204993223Y-109846777D01*
X204976747Y-109828599D01*
X204962132Y-109808893D01*
X204949520Y-109787850D01*
X204939030Y-109765671D01*
X204930765Y-109742572D01*
X204924804Y-109718773D01*
X204921204Y-109694505D01*
X204920000Y-109670001D01*
X204920000Y-108769999D01*
X204921204Y-108745495D01*
X204924804Y-108721227D01*
X204930765Y-108697428D01*
X204939030Y-108674329D01*
X204949520Y-108652150D01*
X204962132Y-108631107D01*
X204976747Y-108611401D01*
X204993223Y-108593223D01*
X205011401Y-108576747D01*
X205031107Y-108562132D01*
X205052150Y-108549520D01*
X205074329Y-108539030D01*
X205097428Y-108530765D01*
X205121227Y-108524804D01*
X205145495Y-108521204D01*
X205169999Y-108520000D01*
X205820001Y-108520000D01*
X205844505Y-108521204D01*
G37*
%TD.AperFunction*%
%TA.AperFunction,SMDPad,CuDef*%
G36*
X203794505Y-108521204D02*
G01*
X203818773Y-108524804D01*
X203842572Y-108530765D01*
X203865671Y-108539030D01*
X203887850Y-108549520D01*
X203908893Y-108562132D01*
X203928599Y-108576747D01*
X203946777Y-108593223D01*
X203963253Y-108611401D01*
X203977868Y-108631107D01*
X203990480Y-108652150D01*
X204000970Y-108674329D01*
X204009235Y-108697428D01*
X204015196Y-108721227D01*
X204018796Y-108745495D01*
X204020000Y-108769999D01*
X204020000Y-109670001D01*
X204018796Y-109694505D01*
X204015196Y-109718773D01*
X204009235Y-109742572D01*
X204000970Y-109765671D01*
X203990480Y-109787850D01*
X203977868Y-109808893D01*
X203963253Y-109828599D01*
X203946777Y-109846777D01*
X203928599Y-109863253D01*
X203908893Y-109877868D01*
X203887850Y-109890480D01*
X203865671Y-109900970D01*
X203842572Y-109909235D01*
X203818773Y-109915196D01*
X203794505Y-109918796D01*
X203770001Y-109920000D01*
X203119999Y-109920000D01*
X203095495Y-109918796D01*
X203071227Y-109915196D01*
X203047428Y-109909235D01*
X203024329Y-109900970D01*
X203002150Y-109890480D01*
X202981107Y-109877868D01*
X202961401Y-109863253D01*
X202943223Y-109846777D01*
X202926747Y-109828599D01*
X202912132Y-109808893D01*
X202899520Y-109787850D01*
X202889030Y-109765671D01*
X202880765Y-109742572D01*
X202874804Y-109718773D01*
X202871204Y-109694505D01*
X202870000Y-109670001D01*
X202870000Y-108769999D01*
X202871204Y-108745495D01*
X202874804Y-108721227D01*
X202880765Y-108697428D01*
X202889030Y-108674329D01*
X202899520Y-108652150D01*
X202912132Y-108631107D01*
X202926747Y-108611401D01*
X202943223Y-108593223D01*
X202961401Y-108576747D01*
X202981107Y-108562132D01*
X203002150Y-108549520D01*
X203024329Y-108539030D01*
X203047428Y-108530765D01*
X203071227Y-108524804D01*
X203095495Y-108521204D01*
X203119999Y-108520000D01*
X203770001Y-108520000D01*
X203794505Y-108521204D01*
G37*
%TD.AperFunction*%
%TA.AperFunction,SMDPad,CuDef*%
G36*
X207738505Y-106496204D02*
G01*
X207762773Y-106499804D01*
X207786572Y-106505765D01*
X207809671Y-106514030D01*
X207831850Y-106524520D01*
X207852893Y-106537132D01*
X207872599Y-106551747D01*
X207890777Y-106568223D01*
X207907253Y-106586401D01*
X207921868Y-106606107D01*
X207934480Y-106627150D01*
X207944970Y-106649329D01*
X207953235Y-106672428D01*
X207959196Y-106696227D01*
X207962796Y-106720495D01*
X207964000Y-106744999D01*
X207964000Y-107395001D01*
X207962796Y-107419505D01*
X207959196Y-107443773D01*
X207953235Y-107467572D01*
X207944970Y-107490671D01*
X207934480Y-107512850D01*
X207921868Y-107533893D01*
X207907253Y-107553599D01*
X207890777Y-107571777D01*
X207872599Y-107588253D01*
X207852893Y-107602868D01*
X207831850Y-107615480D01*
X207809671Y-107625970D01*
X207786572Y-107634235D01*
X207762773Y-107640196D01*
X207738505Y-107643796D01*
X207714001Y-107645000D01*
X206813999Y-107645000D01*
X206789495Y-107643796D01*
X206765227Y-107640196D01*
X206741428Y-107634235D01*
X206718329Y-107625970D01*
X206696150Y-107615480D01*
X206675107Y-107602868D01*
X206655401Y-107588253D01*
X206637223Y-107571777D01*
X206620747Y-107553599D01*
X206606132Y-107533893D01*
X206593520Y-107512850D01*
X206583030Y-107490671D01*
X206574765Y-107467572D01*
X206568804Y-107443773D01*
X206565204Y-107419505D01*
X206564000Y-107395001D01*
X206564000Y-106744999D01*
X206565204Y-106720495D01*
X206568804Y-106696227D01*
X206574765Y-106672428D01*
X206583030Y-106649329D01*
X206593520Y-106627150D01*
X206606132Y-106606107D01*
X206620747Y-106586401D01*
X206637223Y-106568223D01*
X206655401Y-106551747D01*
X206675107Y-106537132D01*
X206696150Y-106524520D01*
X206718329Y-106514030D01*
X206741428Y-106505765D01*
X206765227Y-106499804D01*
X206789495Y-106496204D01*
X206813999Y-106495000D01*
X207714001Y-106495000D01*
X207738505Y-106496204D01*
G37*
%TD.AperFunction*%
%TA.AperFunction,SMDPad,CuDef*%
G36*
X207738505Y-104446204D02*
G01*
X207762773Y-104449804D01*
X207786572Y-104455765D01*
X207809671Y-104464030D01*
X207831850Y-104474520D01*
X207852893Y-104487132D01*
X207872599Y-104501747D01*
X207890777Y-104518223D01*
X207907253Y-104536401D01*
X207921868Y-104556107D01*
X207934480Y-104577150D01*
X207944970Y-104599329D01*
X207953235Y-104622428D01*
X207959196Y-104646227D01*
X207962796Y-104670495D01*
X207964000Y-104694999D01*
X207964000Y-105345001D01*
X207962796Y-105369505D01*
X207959196Y-105393773D01*
X207953235Y-105417572D01*
X207944970Y-105440671D01*
X207934480Y-105462850D01*
X207921868Y-105483893D01*
X207907253Y-105503599D01*
X207890777Y-105521777D01*
X207872599Y-105538253D01*
X207852893Y-105552868D01*
X207831850Y-105565480D01*
X207809671Y-105575970D01*
X207786572Y-105584235D01*
X207762773Y-105590196D01*
X207738505Y-105593796D01*
X207714001Y-105595000D01*
X206813999Y-105595000D01*
X206789495Y-105593796D01*
X206765227Y-105590196D01*
X206741428Y-105584235D01*
X206718329Y-105575970D01*
X206696150Y-105565480D01*
X206675107Y-105552868D01*
X206655401Y-105538253D01*
X206637223Y-105521777D01*
X206620747Y-105503599D01*
X206606132Y-105483893D01*
X206593520Y-105462850D01*
X206583030Y-105440671D01*
X206574765Y-105417572D01*
X206568804Y-105393773D01*
X206565204Y-105369505D01*
X206564000Y-105345001D01*
X206564000Y-104694999D01*
X206565204Y-104670495D01*
X206568804Y-104646227D01*
X206574765Y-104622428D01*
X206583030Y-104599329D01*
X206593520Y-104577150D01*
X206606132Y-104556107D01*
X206620747Y-104536401D01*
X206637223Y-104518223D01*
X206655401Y-104501747D01*
X206675107Y-104487132D01*
X206696150Y-104474520D01*
X206718329Y-104464030D01*
X206741428Y-104455765D01*
X206765227Y-104449804D01*
X206789495Y-104446204D01*
X206813999Y-104445000D01*
X207714001Y-104445000D01*
X207738505Y-104446204D01*
G37*
%TD.AperFunction*%
%TA.AperFunction,SMDPad,CuDef*%
G36*
X199610505Y-106496204D02*
G01*
X199634773Y-106499804D01*
X199658572Y-106505765D01*
X199681671Y-106514030D01*
X199703850Y-106524520D01*
X199724893Y-106537132D01*
X199744599Y-106551747D01*
X199762777Y-106568223D01*
X199779253Y-106586401D01*
X199793868Y-106606107D01*
X199806480Y-106627150D01*
X199816970Y-106649329D01*
X199825235Y-106672428D01*
X199831196Y-106696227D01*
X199834796Y-106720495D01*
X199836000Y-106744999D01*
X199836000Y-107395001D01*
X199834796Y-107419505D01*
X199831196Y-107443773D01*
X199825235Y-107467572D01*
X199816970Y-107490671D01*
X199806480Y-107512850D01*
X199793868Y-107533893D01*
X199779253Y-107553599D01*
X199762777Y-107571777D01*
X199744599Y-107588253D01*
X199724893Y-107602868D01*
X199703850Y-107615480D01*
X199681671Y-107625970D01*
X199658572Y-107634235D01*
X199634773Y-107640196D01*
X199610505Y-107643796D01*
X199586001Y-107645000D01*
X198685999Y-107645000D01*
X198661495Y-107643796D01*
X198637227Y-107640196D01*
X198613428Y-107634235D01*
X198590329Y-107625970D01*
X198568150Y-107615480D01*
X198547107Y-107602868D01*
X198527401Y-107588253D01*
X198509223Y-107571777D01*
X198492747Y-107553599D01*
X198478132Y-107533893D01*
X198465520Y-107512850D01*
X198455030Y-107490671D01*
X198446765Y-107467572D01*
X198440804Y-107443773D01*
X198437204Y-107419505D01*
X198436000Y-107395001D01*
X198436000Y-106744999D01*
X198437204Y-106720495D01*
X198440804Y-106696227D01*
X198446765Y-106672428D01*
X198455030Y-106649329D01*
X198465520Y-106627150D01*
X198478132Y-106606107D01*
X198492747Y-106586401D01*
X198509223Y-106568223D01*
X198527401Y-106551747D01*
X198547107Y-106537132D01*
X198568150Y-106524520D01*
X198590329Y-106514030D01*
X198613428Y-106505765D01*
X198637227Y-106499804D01*
X198661495Y-106496204D01*
X198685999Y-106495000D01*
X199586001Y-106495000D01*
X199610505Y-106496204D01*
G37*
%TD.AperFunction*%
%TA.AperFunction,SMDPad,CuDef*%
G36*
X199610505Y-104446204D02*
G01*
X199634773Y-104449804D01*
X199658572Y-104455765D01*
X199681671Y-104464030D01*
X199703850Y-104474520D01*
X199724893Y-104487132D01*
X199744599Y-104501747D01*
X199762777Y-104518223D01*
X199779253Y-104536401D01*
X199793868Y-104556107D01*
X199806480Y-104577150D01*
X199816970Y-104599329D01*
X199825235Y-104622428D01*
X199831196Y-104646227D01*
X199834796Y-104670495D01*
X199836000Y-104694999D01*
X199836000Y-105345001D01*
X199834796Y-105369505D01*
X199831196Y-105393773D01*
X199825235Y-105417572D01*
X199816970Y-105440671D01*
X199806480Y-105462850D01*
X199793868Y-105483893D01*
X199779253Y-105503599D01*
X199762777Y-105521777D01*
X199744599Y-105538253D01*
X199724893Y-105552868D01*
X199703850Y-105565480D01*
X199681671Y-105575970D01*
X199658572Y-105584235D01*
X199634773Y-105590196D01*
X199610505Y-105593796D01*
X199586001Y-105595000D01*
X198685999Y-105595000D01*
X198661495Y-105593796D01*
X198637227Y-105590196D01*
X198613428Y-105584235D01*
X198590329Y-105575970D01*
X198568150Y-105565480D01*
X198547107Y-105552868D01*
X198527401Y-105538253D01*
X198509223Y-105521777D01*
X198492747Y-105503599D01*
X198478132Y-105483893D01*
X198465520Y-105462850D01*
X198455030Y-105440671D01*
X198446765Y-105417572D01*
X198440804Y-105393773D01*
X198437204Y-105369505D01*
X198436000Y-105345001D01*
X198436000Y-104694999D01*
X198437204Y-104670495D01*
X198440804Y-104646227D01*
X198446765Y-104622428D01*
X198455030Y-104599329D01*
X198465520Y-104577150D01*
X198478132Y-104556107D01*
X198492747Y-104536401D01*
X198509223Y-104518223D01*
X198527401Y-104501747D01*
X198547107Y-104487132D01*
X198568150Y-104474520D01*
X198590329Y-104464030D01*
X198613428Y-104455765D01*
X198637227Y-104449804D01*
X198661495Y-104446204D01*
X198685999Y-104445000D01*
X199586001Y-104445000D01*
X199610505Y-104446204D01*
G37*
%TD.AperFunction*%
D19*
X198231206Y-103169685D03*
X201295062Y-107950000D03*
X203707044Y-110605530D03*
X203708000Y-99420140D03*
X202891273Y-111460819D03*
X203454000Y-102362000D03*
X202184000Y-114935000D03*
X202403990Y-116205000D03*
X201930000Y-117475000D03*
X207010000Y-110490000D03*
X204470000Y-111252000D03*
D20*
X195580000Y-106680000D02*
X196782081Y-106680000D01*
X197172081Y-107070000D02*
X199136000Y-107070000D01*
X196782081Y-106680000D02*
X197172081Y-107070000D01*
X200820000Y-106045000D02*
X199931000Y-106934000D01*
X201850000Y-106045000D02*
X200820000Y-106045000D01*
X199836000Y-107070000D02*
X199136000Y-107070000D01*
X199931000Y-106975000D02*
X199836000Y-107070000D01*
X199931000Y-106934000D02*
X199931000Y-106975000D01*
X207010000Y-108966000D02*
X207010000Y-109220000D01*
X207645000Y-108331000D02*
X207010000Y-108966000D01*
X207645000Y-107070000D02*
X207645000Y-108331000D01*
X199210000Y-107070000D02*
X199136000Y-107070000D01*
X200660000Y-108520000D02*
X199210000Y-107070000D01*
X200660000Y-109220000D02*
X200660000Y-108520000D01*
X205495000Y-109220000D02*
X207010000Y-109220000D01*
X206150000Y-114625000D02*
X207125000Y-114625000D01*
X208370002Y-113379998D02*
X208370002Y-110580002D01*
X207125000Y-114625000D02*
X208370002Y-113379998D01*
X208370002Y-110580002D02*
X207010000Y-109220000D01*
X200007999Y-100327001D02*
X200172999Y-100327001D01*
X206375000Y-100965000D02*
X206375000Y-100327001D01*
X206375000Y-100327001D02*
X206388001Y-100327001D01*
X199458000Y-100762000D02*
X198878000Y-100182000D01*
X199998000Y-100762000D02*
X199458000Y-100762000D01*
X198878000Y-100182000D02*
X198878000Y-96012000D01*
X198878000Y-96012000D02*
X207518000Y-96012000D01*
X207518000Y-96012000D02*
X207518000Y-100182000D01*
X206938000Y-100762000D02*
X207518000Y-100182000D01*
X206398000Y-100762000D02*
X206938000Y-100762000D01*
X206660000Y-101854000D02*
X206398000Y-101592000D01*
X206957000Y-101854000D02*
X206660000Y-101854000D01*
X207273000Y-102170000D02*
X206957000Y-101854000D01*
X206398000Y-101592000D02*
X206398000Y-100762000D01*
X207273000Y-102870000D02*
X207273000Y-102170000D01*
X199889000Y-102870000D02*
X199314000Y-102870000D01*
X199014315Y-103169685D02*
X198796891Y-103169685D01*
X199314000Y-102870000D02*
X199014315Y-103169685D01*
X198796891Y-103169685D02*
X198231206Y-103169685D01*
X199780000Y-105020000D02*
X199136000Y-105020000D01*
X201775000Y-107070000D02*
X201850000Y-106995000D01*
X199211000Y-105095000D02*
X199136000Y-105020000D01*
X201850000Y-105095000D02*
X199211000Y-105095000D01*
X203200000Y-106675000D02*
X202880000Y-106995000D01*
X202880000Y-106995000D02*
X201850000Y-106995000D01*
X203200000Y-105415000D02*
X203200000Y-106675000D01*
X202880000Y-105095000D02*
X203200000Y-105415000D01*
X201850000Y-105095000D02*
X202880000Y-105095000D01*
X196680000Y-101600000D02*
X195580000Y-101600000D01*
X196924990Y-101844990D02*
X196680000Y-101600000D01*
X197367010Y-103951010D02*
X198436000Y-105020000D01*
X197367010Y-101844990D02*
X197367010Y-103951010D01*
X198436000Y-105020000D02*
X199136000Y-105020000D01*
X197367010Y-101844990D02*
X196924990Y-101844990D01*
X200798000Y-100762000D02*
X200798000Y-100137002D01*
X200798000Y-100137002D02*
X202346004Y-98588998D01*
X202346004Y-98588998D02*
X204049996Y-98588998D01*
X204049996Y-98588998D02*
X205598000Y-100137002D01*
X205598000Y-100137002D02*
X205598000Y-100762000D01*
X200652000Y-101738000D02*
X199352751Y-101738000D01*
X199121761Y-101507010D02*
X197704990Y-101507010D01*
X200798000Y-100762000D02*
X200798000Y-101592000D01*
X197704990Y-101507010D02*
X197367010Y-101844990D01*
X200798000Y-101592000D02*
X200652000Y-101738000D01*
X199352751Y-101738000D02*
X199121761Y-101507010D01*
X204625000Y-105020000D02*
X204550000Y-105095000D01*
X207645000Y-105020000D02*
X206130000Y-105020000D01*
X206130000Y-105020000D02*
X204625000Y-105020000D01*
X200250000Y-113975000D02*
X201930000Y-113975000D01*
X206150000Y-113975000D02*
X203959002Y-113975000D01*
X203891000Y-113975000D02*
X201930000Y-113975000D01*
X201930000Y-113975000D02*
X201930000Y-109220000D01*
X202184000Y-107950000D02*
X201295062Y-107950000D01*
X201930000Y-107950000D02*
X202184000Y-107950000D01*
X201930000Y-109220000D02*
X201930000Y-107950000D01*
X202184000Y-107950000D02*
X203200000Y-107950000D01*
X206130000Y-107105002D02*
X206130000Y-105020000D01*
X205285002Y-107950000D02*
X206130000Y-107105002D01*
X203200000Y-107950000D02*
X205285002Y-107950000D01*
X203445000Y-107950000D02*
X203200000Y-107950000D01*
X203445000Y-109220000D02*
X203445000Y-107950000D01*
X200902499Y-118200001D02*
X199468500Y-119634000D01*
X202278001Y-118200001D02*
X200902499Y-118200001D01*
X203129000Y-117349002D02*
X202278001Y-118200001D01*
X203129000Y-113975000D02*
X203129000Y-117349002D01*
X204461000Y-119634000D02*
X201343500Y-119634000D01*
X204461000Y-119634000D02*
X205232000Y-119634000D01*
X204978000Y-117856000D02*
X206204000Y-117856000D01*
X207282000Y-118934000D02*
X207282000Y-119634000D01*
X206204000Y-117856000D02*
X207282000Y-118934000D01*
X204724000Y-117602000D02*
X204978000Y-117856000D01*
X204724000Y-115611000D02*
X204724000Y-117602000D01*
X205060000Y-115275000D02*
X204724000Y-115611000D01*
X206150000Y-115275000D02*
X205060000Y-115275000D01*
X203707044Y-111562046D02*
X203707044Y-111171215D01*
X204819998Y-112675000D02*
X203707044Y-111562046D01*
X203707044Y-111171215D02*
X203707044Y-110605530D01*
X206150000Y-112675000D02*
X204819998Y-112675000D01*
X203448000Y-99932000D02*
X203448000Y-100762000D01*
X203372999Y-99856999D02*
X203448000Y-99932000D01*
X202537999Y-99856999D02*
X203372999Y-99856999D01*
X202448000Y-99946998D02*
X202537999Y-99856999D01*
X202448000Y-100762000D02*
X202448000Y-99946998D01*
X203372999Y-99856999D02*
X203708000Y-99521998D01*
X203708000Y-99521998D02*
X203708000Y-99420140D01*
X201939000Y-102083000D02*
X201939000Y-102870000D01*
X201448000Y-101592000D02*
X201939000Y-102083000D01*
X201448000Y-100762000D02*
X201448000Y-101592000D01*
X206150000Y-113325000D02*
X204755454Y-113325000D01*
X204755454Y-113325000D02*
X202891273Y-111460819D01*
X203872999Y-101667001D02*
X203948000Y-101592000D01*
X202948000Y-101577002D02*
X203037999Y-101667001D01*
X203948000Y-101592000D02*
X203948000Y-100762000D01*
X202948000Y-100762000D02*
X202948000Y-101577002D01*
X203454000Y-101734002D02*
X203454000Y-102362000D01*
X203037999Y-101667001D02*
X203521001Y-101667001D01*
X203521001Y-101667001D02*
X203454000Y-101734002D01*
X203521001Y-101667001D02*
X203872999Y-101667001D01*
X204648000Y-102870000D02*
X205223000Y-102870000D01*
X204448000Y-102670000D02*
X204648000Y-102870000D01*
X204448000Y-100762000D02*
X204448000Y-102670000D01*
X197612000Y-117348000D02*
X195580000Y-119380000D01*
X197612000Y-116288000D02*
X197612000Y-117348000D01*
X199275000Y-114625000D02*
X197612000Y-116288000D01*
X200250000Y-114625000D02*
X199275000Y-114625000D01*
X199095000Y-113325000D02*
X195580000Y-116840000D01*
X200250000Y-113325000D02*
X199095000Y-113325000D01*
X197205000Y-112675000D02*
X195580000Y-114300000D01*
X200250000Y-112675000D02*
X197205000Y-112675000D01*
X195845000Y-112025000D02*
X195580000Y-111760000D01*
X200250000Y-112025000D02*
X195845000Y-112025000D01*
X200250000Y-111375000D02*
X197735000Y-111375000D01*
X197485000Y-111045000D02*
X197485000Y-111125000D01*
X198610000Y-109920000D02*
X197485000Y-111045000D01*
X198610000Y-109220000D02*
X198610000Y-109920000D01*
X197485000Y-111125000D02*
X195580000Y-109220000D01*
X197735000Y-111375000D02*
X197485000Y-111125000D01*
X196463010Y-121036990D02*
X195580000Y-121920000D01*
X198120000Y-119380000D02*
X196463010Y-121036990D01*
X198120000Y-116430000D02*
X198120000Y-119380000D01*
X199275000Y-115275000D02*
X198120000Y-116430000D01*
X200250000Y-115275000D02*
X199275000Y-115275000D01*
X200250000Y-115925000D02*
X201225000Y-115925000D01*
X201225000Y-115925000D02*
X202184000Y-114966000D01*
X202184000Y-114966000D02*
X202184000Y-114935000D01*
X202033990Y-116575000D02*
X202403990Y-116205000D01*
X200250000Y-116575000D02*
X202033990Y-116575000D01*
X201225000Y-117225000D02*
X201475000Y-117475000D01*
X200250000Y-117225000D02*
X201225000Y-117225000D01*
X201475000Y-117475000D02*
X201930000Y-117475000D01*
X208665000Y-117225000D02*
X210820000Y-119380000D01*
X206150000Y-117225000D02*
X208665000Y-117225000D01*
X210555000Y-116575000D02*
X210820000Y-116840000D01*
X206150000Y-116575000D02*
X210555000Y-116575000D01*
X209195000Y-115925000D02*
X210820000Y-114300000D01*
X206150000Y-115925000D02*
X209195000Y-115925000D01*
X206150000Y-110900000D02*
X206560000Y-110490000D01*
X206150000Y-111375000D02*
X206150000Y-110900000D01*
X206560000Y-110490000D02*
X207010000Y-110490000D01*
X206150000Y-112025000D02*
X205175000Y-112025000D01*
X205175000Y-112025000D02*
X204470000Y-111320000D01*
X204470000Y-111320000D02*
X204470000Y-111252000D01*
D21*
G36*
X212294001Y-123394000D02*
G01*
X194106000Y-123394000D01*
X194106000Y-104018757D01*
X194349000Y-104018757D01*
X194349000Y-104261243D01*
X194396307Y-104499069D01*
X194489102Y-104723097D01*
X194623820Y-104924717D01*
X194795283Y-105096180D01*
X194996903Y-105230898D01*
X195220931Y-105323693D01*
X195458757Y-105371000D01*
X195701243Y-105371000D01*
X195939069Y-105323693D01*
X196163097Y-105230898D01*
X196364717Y-105096180D01*
X196536180Y-104924717D01*
X196670898Y-104723097D01*
X196763693Y-104499069D01*
X196811000Y-104261243D01*
X196811000Y-104018757D01*
X196763693Y-103780931D01*
X196670898Y-103556903D01*
X196536180Y-103355283D01*
X196364717Y-103183820D01*
X196163097Y-103049102D01*
X195939069Y-102956307D01*
X195701243Y-102909000D01*
X195458757Y-102909000D01*
X195220931Y-102956307D01*
X194996903Y-103049102D01*
X194795283Y-103183820D01*
X194623820Y-103355283D01*
X194489102Y-103556903D01*
X194396307Y-103780931D01*
X194349000Y-104018757D01*
X194106000Y-104018757D01*
X194106000Y-100750000D01*
X194347157Y-100750000D01*
X194347157Y-102450000D01*
X194354513Y-102524689D01*
X194376299Y-102596508D01*
X194411678Y-102662696D01*
X194459289Y-102720711D01*
X194517304Y-102768322D01*
X194583492Y-102803701D01*
X194655311Y-102825487D01*
X194730000Y-102832843D01*
X196430000Y-102832843D01*
X196504689Y-102825487D01*
X196576508Y-102803701D01*
X196642696Y-102768322D01*
X196700711Y-102720711D01*
X196748322Y-102662696D01*
X196783701Y-102596508D01*
X196805487Y-102524689D01*
X196812843Y-102450000D01*
X196812843Y-102339739D01*
X196825796Y-102343668D01*
X196835684Y-102344642D01*
X196861010Y-102347136D01*
X196861011Y-103926154D01*
X196858563Y-103951010D01*
X196868332Y-104050202D01*
X196897265Y-104145584D01*
X196897266Y-104145585D01*
X196944252Y-104233489D01*
X197007484Y-104310537D01*
X197026790Y-104326381D01*
X198054003Y-105353595D01*
X198065317Y-105468462D01*
X198101329Y-105587179D01*
X198159810Y-105696589D01*
X198238512Y-105792488D01*
X198334411Y-105871190D01*
X198443821Y-105929671D01*
X198562538Y-105965683D01*
X198685999Y-105977843D01*
X199586001Y-105977843D01*
X199709462Y-105965683D01*
X199828179Y-105929671D01*
X199937589Y-105871190D01*
X200033488Y-105792488D01*
X200112190Y-105696589D01*
X200163284Y-105601000D01*
X200734736Y-105601000D01*
X200751678Y-105632696D01*
X200799289Y-105690711D01*
X200857304Y-105738322D01*
X200923492Y-105773701D01*
X200995311Y-105795487D01*
X201070000Y-105802843D01*
X202630000Y-105802843D01*
X202694000Y-105796540D01*
X202694001Y-106293460D01*
X202630000Y-106287157D01*
X201070000Y-106287157D01*
X200995311Y-106294513D01*
X200923492Y-106316299D01*
X200857304Y-106351678D01*
X200799289Y-106399289D01*
X200751678Y-106457304D01*
X200716299Y-106523492D01*
X200694513Y-106595311D01*
X200687157Y-106670000D01*
X200687157Y-107320000D01*
X200694513Y-107394689D01*
X200706466Y-107434095D01*
X200688420Y-107452141D01*
X200602949Y-107580058D01*
X200544075Y-107722191D01*
X200514062Y-107873078D01*
X200514062Y-108026922D01*
X200544075Y-108177809D01*
X200602949Y-108319942D01*
X200688420Y-108447859D01*
X200797203Y-108556642D01*
X200925120Y-108642113D01*
X201067253Y-108700987D01*
X201218140Y-108731000D01*
X201371984Y-108731000D01*
X201424000Y-108720653D01*
X201424000Y-109244853D01*
X201424001Y-109244863D01*
X201424000Y-113469000D01*
X201357843Y-113469000D01*
X201357843Y-113100000D01*
X201350487Y-113025311D01*
X201342809Y-113000000D01*
X201350487Y-112974689D01*
X201357843Y-112900000D01*
X201357843Y-112450000D01*
X201350487Y-112375311D01*
X201342809Y-112350000D01*
X201350487Y-112324689D01*
X201357843Y-112250000D01*
X201357843Y-111800000D01*
X201350487Y-111725311D01*
X201342809Y-111700000D01*
X201350487Y-111674689D01*
X201357843Y-111600000D01*
X201357843Y-111150000D01*
X201350487Y-111075311D01*
X201328701Y-111003492D01*
X201293322Y-110937304D01*
X201245711Y-110879289D01*
X201187696Y-110831678D01*
X201121508Y-110796299D01*
X201049689Y-110774513D01*
X200975000Y-110767157D01*
X199525000Y-110767157D01*
X199450311Y-110774513D01*
X199378492Y-110796299D01*
X199312304Y-110831678D01*
X199266826Y-110869000D01*
X198376591Y-110869000D01*
X198943595Y-110301997D01*
X199058462Y-110290683D01*
X199177179Y-110254671D01*
X199286589Y-110196190D01*
X199382488Y-110117488D01*
X199461190Y-110021589D01*
X199519671Y-109912179D01*
X199555683Y-109793462D01*
X199567843Y-109670001D01*
X199567843Y-108769999D01*
X199555683Y-108646538D01*
X199519671Y-108527821D01*
X199461190Y-108418411D01*
X199382488Y-108322512D01*
X199286589Y-108243810D01*
X199177179Y-108185329D01*
X199058462Y-108149317D01*
X198935001Y-108137157D01*
X198284999Y-108137157D01*
X198161538Y-108149317D01*
X198042821Y-108185329D01*
X197933411Y-108243810D01*
X197837512Y-108322512D01*
X197758810Y-108418411D01*
X197700329Y-108527821D01*
X197664317Y-108646538D01*
X197652157Y-108769999D01*
X197652157Y-109670001D01*
X197664317Y-109793462D01*
X197700329Y-109912179D01*
X197758810Y-110021589D01*
X197774140Y-110040269D01*
X197445000Y-110369408D01*
X196731758Y-109656167D01*
X196763693Y-109579069D01*
X196811000Y-109341243D01*
X196811000Y-109098757D01*
X196763693Y-108860931D01*
X196670898Y-108636903D01*
X196536180Y-108435283D01*
X196364717Y-108263820D01*
X196163097Y-108129102D01*
X195939069Y-108036307D01*
X195701243Y-107989000D01*
X195458757Y-107989000D01*
X195220931Y-108036307D01*
X194996903Y-108129102D01*
X194795283Y-108263820D01*
X194623820Y-108435283D01*
X194489102Y-108636903D01*
X194396307Y-108860931D01*
X194349000Y-109098757D01*
X194349000Y-109341243D01*
X194396307Y-109579069D01*
X194489102Y-109803097D01*
X194623820Y-110004717D01*
X194795283Y-110176180D01*
X194996903Y-110310898D01*
X195220931Y-110403693D01*
X195458757Y-110451000D01*
X195701243Y-110451000D01*
X195939069Y-110403693D01*
X196016167Y-110371758D01*
X197109628Y-111465220D01*
X197125473Y-111484527D01*
X197144784Y-111500375D01*
X197163409Y-111519000D01*
X196787179Y-111519000D01*
X196763693Y-111400931D01*
X196670898Y-111176903D01*
X196536180Y-110975283D01*
X196364717Y-110803820D01*
X196163097Y-110669102D01*
X195939069Y-110576307D01*
X195701243Y-110529000D01*
X195458757Y-110529000D01*
X195220931Y-110576307D01*
X194996903Y-110669102D01*
X194795283Y-110803820D01*
X194623820Y-110975283D01*
X194489102Y-111176903D01*
X194396307Y-111400931D01*
X194349000Y-111638757D01*
X194349000Y-111881243D01*
X194396307Y-112119069D01*
X194489102Y-112343097D01*
X194623820Y-112544717D01*
X194795283Y-112716180D01*
X194996903Y-112850898D01*
X195220931Y-112943693D01*
X195458757Y-112991000D01*
X195701243Y-112991000D01*
X195939069Y-112943693D01*
X196163097Y-112850898D01*
X196364717Y-112716180D01*
X196536180Y-112544717D01*
X196545345Y-112531000D01*
X196633408Y-112531000D01*
X196016167Y-113148242D01*
X195939069Y-113116307D01*
X195701243Y-113069000D01*
X195458757Y-113069000D01*
X195220931Y-113116307D01*
X194996903Y-113209102D01*
X194795283Y-113343820D01*
X194623820Y-113515283D01*
X194489102Y-113716903D01*
X194396307Y-113940931D01*
X194349000Y-114178757D01*
X194349000Y-114421243D01*
X194396307Y-114659069D01*
X194489102Y-114883097D01*
X194623820Y-115084717D01*
X194795283Y-115256180D01*
X194996903Y-115390898D01*
X195220931Y-115483693D01*
X195458757Y-115531000D01*
X195701243Y-115531000D01*
X195939069Y-115483693D01*
X196163097Y-115390898D01*
X196364717Y-115256180D01*
X196536180Y-115084717D01*
X196670898Y-114883097D01*
X196763693Y-114659069D01*
X196811000Y-114421243D01*
X196811000Y-114178757D01*
X196763693Y-113940931D01*
X196731758Y-113863833D01*
X197414592Y-113181000D01*
X198523408Y-113181000D01*
X196016167Y-115688242D01*
X195939069Y-115656307D01*
X195701243Y-115609000D01*
X195458757Y-115609000D01*
X195220931Y-115656307D01*
X194996903Y-115749102D01*
X194795283Y-115883820D01*
X194623820Y-116055283D01*
X194489102Y-116256903D01*
X194396307Y-116480931D01*
X194349000Y-116718757D01*
X194349000Y-116961243D01*
X194396307Y-117199069D01*
X194489102Y-117423097D01*
X194623820Y-117624717D01*
X194795283Y-117796180D01*
X194996903Y-117930898D01*
X195220931Y-118023693D01*
X195458757Y-118071000D01*
X195701243Y-118071000D01*
X195939069Y-118023693D01*
X196163097Y-117930898D01*
X196364717Y-117796180D01*
X196536180Y-117624717D01*
X196670898Y-117423097D01*
X196763693Y-117199069D01*
X196811000Y-116961243D01*
X196811000Y-116718757D01*
X196763693Y-116480931D01*
X196731758Y-116403833D01*
X199142157Y-113993435D01*
X199142157Y-114136529D01*
X199084562Y-114154000D01*
X199080425Y-114155255D01*
X198992521Y-114202241D01*
X198915473Y-114265473D01*
X198899628Y-114284780D01*
X197271785Y-115912624D01*
X197252473Y-115928473D01*
X197189241Y-116005521D01*
X197142255Y-116093426D01*
X197113322Y-116188808D01*
X197106000Y-116263147D01*
X197106000Y-116263154D01*
X197103553Y-116288000D01*
X197106000Y-116312847D01*
X197106001Y-117138407D01*
X196016167Y-118228242D01*
X195939069Y-118196307D01*
X195701243Y-118149000D01*
X195458757Y-118149000D01*
X195220931Y-118196307D01*
X194996903Y-118289102D01*
X194795283Y-118423820D01*
X194623820Y-118595283D01*
X194489102Y-118796903D01*
X194396307Y-119020931D01*
X194349000Y-119258757D01*
X194349000Y-119501243D01*
X194396307Y-119739069D01*
X194489102Y-119963097D01*
X194623820Y-120164717D01*
X194795283Y-120336180D01*
X194996903Y-120470898D01*
X195220931Y-120563693D01*
X195458757Y-120611000D01*
X195701243Y-120611000D01*
X195939069Y-120563693D01*
X196163097Y-120470898D01*
X196364717Y-120336180D01*
X196536180Y-120164717D01*
X196670898Y-119963097D01*
X196763693Y-119739069D01*
X196811000Y-119501243D01*
X196811000Y-119258757D01*
X196763693Y-119020931D01*
X196731758Y-118943833D01*
X197614001Y-118061591D01*
X197614001Y-119170407D01*
X196122793Y-120661616D01*
X196122788Y-120661620D01*
X196016166Y-120768242D01*
X195939069Y-120736307D01*
X195701243Y-120689000D01*
X195458757Y-120689000D01*
X195220931Y-120736307D01*
X194996903Y-120829102D01*
X194795283Y-120963820D01*
X194623820Y-121135283D01*
X194489102Y-121336903D01*
X194396307Y-121560931D01*
X194349000Y-121798757D01*
X194349000Y-122041243D01*
X194396307Y-122279069D01*
X194489102Y-122503097D01*
X194623820Y-122704717D01*
X194795283Y-122876180D01*
X194996903Y-123010898D01*
X195220931Y-123103693D01*
X195458757Y-123151000D01*
X195701243Y-123151000D01*
X195939069Y-123103693D01*
X196163097Y-123010898D01*
X196364717Y-122876180D01*
X196536180Y-122704717D01*
X196670898Y-122503097D01*
X196763693Y-122279069D01*
X196811000Y-122041243D01*
X196811000Y-121833229D01*
X206129000Y-121833229D01*
X206129000Y-122006771D01*
X206162856Y-122176978D01*
X206229268Y-122337310D01*
X206325682Y-122481605D01*
X206448395Y-122604318D01*
X206592690Y-122700732D01*
X206753022Y-122767144D01*
X206923229Y-122801000D01*
X207096771Y-122801000D01*
X207266978Y-122767144D01*
X207427310Y-122700732D01*
X207571605Y-122604318D01*
X207694318Y-122481605D01*
X207790732Y-122337310D01*
X207857144Y-122176978D01*
X207891000Y-122006771D01*
X207891000Y-121833229D01*
X207884144Y-121798757D01*
X209589000Y-121798757D01*
X209589000Y-122041243D01*
X209636307Y-122279069D01*
X209729102Y-122503097D01*
X209863820Y-122704717D01*
X210035283Y-122876180D01*
X210236903Y-123010898D01*
X210460931Y-123103693D01*
X210698757Y-123151000D01*
X210941243Y-123151000D01*
X211179069Y-123103693D01*
X211403097Y-123010898D01*
X211604717Y-122876180D01*
X211776180Y-122704717D01*
X211910898Y-122503097D01*
X212003693Y-122279069D01*
X212051000Y-122041243D01*
X212051000Y-121798757D01*
X212003693Y-121560931D01*
X211910898Y-121336903D01*
X211776180Y-121135283D01*
X211604717Y-120963820D01*
X211403097Y-120829102D01*
X211179069Y-120736307D01*
X210941243Y-120689000D01*
X210698757Y-120689000D01*
X210460931Y-120736307D01*
X210236903Y-120829102D01*
X210035283Y-120963820D01*
X209863820Y-121135283D01*
X209729102Y-121336903D01*
X209636307Y-121560931D01*
X209589000Y-121798757D01*
X207884144Y-121798757D01*
X207857144Y-121663022D01*
X207790732Y-121502690D01*
X207694318Y-121358395D01*
X207571605Y-121235682D01*
X207427310Y-121139268D01*
X207266978Y-121072856D01*
X207096771Y-121039000D01*
X206923229Y-121039000D01*
X206753022Y-121072856D01*
X206592690Y-121139268D01*
X206448395Y-121235682D01*
X206325682Y-121358395D01*
X206229268Y-121502690D01*
X206162856Y-121663022D01*
X206129000Y-121833229D01*
X196811000Y-121833229D01*
X196811000Y-121798757D01*
X196763693Y-121560931D01*
X196731758Y-121483834D01*
X196838380Y-121377212D01*
X196838384Y-121377207D01*
X198423157Y-119792435D01*
X198423157Y-120084001D01*
X198435317Y-120207462D01*
X198471329Y-120326179D01*
X198529810Y-120435589D01*
X198608512Y-120531488D01*
X198704411Y-120610190D01*
X198813821Y-120668671D01*
X198932538Y-120704683D01*
X199055999Y-120716843D01*
X199706001Y-120716843D01*
X199829462Y-120704683D01*
X199948179Y-120668671D01*
X200057589Y-120610190D01*
X200153488Y-120531488D01*
X200232190Y-120435589D01*
X200290671Y-120326179D01*
X200326683Y-120207462D01*
X200338843Y-120084001D01*
X200338843Y-119479248D01*
X200473157Y-119344934D01*
X200473157Y-120084001D01*
X200485317Y-120207462D01*
X200521329Y-120326179D01*
X200579810Y-120435589D01*
X200658512Y-120531488D01*
X200754411Y-120610190D01*
X200863821Y-120668671D01*
X200982538Y-120704683D01*
X201105999Y-120716843D01*
X201756001Y-120716843D01*
X201879462Y-120704683D01*
X201998179Y-120668671D01*
X202107589Y-120610190D01*
X202203488Y-120531488D01*
X202282190Y-120435589D01*
X202340671Y-120326179D01*
X202376683Y-120207462D01*
X202383328Y-120140000D01*
X204279672Y-120140000D01*
X204286317Y-120207462D01*
X204322329Y-120326179D01*
X204380810Y-120435589D01*
X204459512Y-120531488D01*
X204555411Y-120610190D01*
X204664821Y-120668671D01*
X204783538Y-120704683D01*
X204906999Y-120716843D01*
X205557001Y-120716843D01*
X205680462Y-120704683D01*
X205799179Y-120668671D01*
X205908589Y-120610190D01*
X206004488Y-120531488D01*
X206083190Y-120435589D01*
X206141671Y-120326179D01*
X206177683Y-120207462D01*
X206189843Y-120084001D01*
X206189843Y-119183999D01*
X206177683Y-119060538D01*
X206141671Y-118941821D01*
X206083190Y-118832411D01*
X206004488Y-118736512D01*
X205908589Y-118657810D01*
X205799179Y-118599329D01*
X205680462Y-118563317D01*
X205557001Y-118551157D01*
X204906999Y-118551157D01*
X204783538Y-118563317D01*
X204664821Y-118599329D01*
X204555411Y-118657810D01*
X204459512Y-118736512D01*
X204380810Y-118832411D01*
X204322329Y-118941821D01*
X204286317Y-119060538D01*
X204279672Y-119128000D01*
X202383328Y-119128000D01*
X202376683Y-119060538D01*
X202340671Y-118941821D01*
X202282190Y-118832411D01*
X202203488Y-118736512D01*
X202166310Y-118706001D01*
X202253155Y-118706001D01*
X202278001Y-118708448D01*
X202302847Y-118706001D01*
X202302855Y-118706001D01*
X202377194Y-118698679D01*
X202472576Y-118669746D01*
X202560480Y-118622760D01*
X202637528Y-118559528D01*
X202653377Y-118540216D01*
X203469220Y-117724374D01*
X203488527Y-117708529D01*
X203551759Y-117631481D01*
X203598745Y-117543577D01*
X203620944Y-117470395D01*
X203627678Y-117448196D01*
X203630497Y-117419574D01*
X203635000Y-117373856D01*
X203635000Y-117373849D01*
X203637447Y-117349003D01*
X203635000Y-117324157D01*
X203635000Y-115611000D01*
X204215553Y-115611000D01*
X204218000Y-115635846D01*
X204218001Y-117577144D01*
X204215553Y-117602000D01*
X204225322Y-117701192D01*
X204254255Y-117796574D01*
X204266107Y-117818747D01*
X204301242Y-117884479D01*
X204364474Y-117961527D01*
X204383781Y-117977372D01*
X204602624Y-118196215D01*
X204618473Y-118215527D01*
X204695521Y-118278759D01*
X204783425Y-118325745D01*
X204878806Y-118354678D01*
X204888694Y-118355652D01*
X204953146Y-118362000D01*
X204953153Y-118362000D01*
X204977999Y-118364447D01*
X205002845Y-118362000D01*
X205994409Y-118362000D01*
X206446140Y-118813731D01*
X206430810Y-118832411D01*
X206372329Y-118941821D01*
X206336317Y-119060538D01*
X206324157Y-119183999D01*
X206324157Y-120084001D01*
X206336317Y-120207462D01*
X206372329Y-120326179D01*
X206430810Y-120435589D01*
X206509512Y-120531488D01*
X206605411Y-120610190D01*
X206714821Y-120668671D01*
X206833538Y-120704683D01*
X206956999Y-120716843D01*
X207607001Y-120716843D01*
X207730462Y-120704683D01*
X207849179Y-120668671D01*
X207958589Y-120610190D01*
X208054488Y-120531488D01*
X208133190Y-120435589D01*
X208191671Y-120326179D01*
X208227683Y-120207462D01*
X208239843Y-120084001D01*
X208239843Y-119183999D01*
X208227683Y-119060538D01*
X208191671Y-118941821D01*
X208133190Y-118832411D01*
X208054488Y-118736512D01*
X207958589Y-118657810D01*
X207849179Y-118599329D01*
X207730462Y-118563317D01*
X207615595Y-118552003D01*
X206894513Y-117830921D01*
X206949689Y-117825487D01*
X207021508Y-117803701D01*
X207087696Y-117768322D01*
X207133174Y-117731000D01*
X208455409Y-117731000D01*
X209668242Y-118943833D01*
X209636307Y-119020931D01*
X209589000Y-119258757D01*
X209589000Y-119501243D01*
X209636307Y-119739069D01*
X209729102Y-119963097D01*
X209863820Y-120164717D01*
X210035283Y-120336180D01*
X210236903Y-120470898D01*
X210460931Y-120563693D01*
X210698757Y-120611000D01*
X210941243Y-120611000D01*
X211179069Y-120563693D01*
X211403097Y-120470898D01*
X211604717Y-120336180D01*
X211776180Y-120164717D01*
X211910898Y-119963097D01*
X212003693Y-119739069D01*
X212051000Y-119501243D01*
X212051000Y-119258757D01*
X212003693Y-119020931D01*
X211910898Y-118796903D01*
X211776180Y-118595283D01*
X211604717Y-118423820D01*
X211403097Y-118289102D01*
X211179069Y-118196307D01*
X210941243Y-118149000D01*
X210698757Y-118149000D01*
X210460931Y-118196307D01*
X210383833Y-118228242D01*
X209236591Y-117081000D01*
X209612821Y-117081000D01*
X209636307Y-117199069D01*
X209729102Y-117423097D01*
X209863820Y-117624717D01*
X210035283Y-117796180D01*
X210236903Y-117930898D01*
X210460931Y-118023693D01*
X210698757Y-118071000D01*
X210941243Y-118071000D01*
X211179069Y-118023693D01*
X211403097Y-117930898D01*
X211604717Y-117796180D01*
X211776180Y-117624717D01*
X211910898Y-117423097D01*
X212003693Y-117199069D01*
X212051000Y-116961243D01*
X212051000Y-116718757D01*
X212003693Y-116480931D01*
X211910898Y-116256903D01*
X211776180Y-116055283D01*
X211604717Y-115883820D01*
X211403097Y-115749102D01*
X211179069Y-115656307D01*
X210941243Y-115609000D01*
X210698757Y-115609000D01*
X210460931Y-115656307D01*
X210236903Y-115749102D01*
X210035283Y-115883820D01*
X209863820Y-116055283D01*
X209854655Y-116069000D01*
X209766591Y-116069000D01*
X210383833Y-115451758D01*
X210460931Y-115483693D01*
X210698757Y-115531000D01*
X210941243Y-115531000D01*
X211179069Y-115483693D01*
X211403097Y-115390898D01*
X211604717Y-115256180D01*
X211776180Y-115084717D01*
X211910898Y-114883097D01*
X212003693Y-114659069D01*
X212051000Y-114421243D01*
X212051000Y-114178757D01*
X212003693Y-113940931D01*
X211910898Y-113716903D01*
X211776180Y-113515283D01*
X211604717Y-113343820D01*
X211403097Y-113209102D01*
X211179069Y-113116307D01*
X210941243Y-113069000D01*
X210698757Y-113069000D01*
X210460931Y-113116307D01*
X210236903Y-113209102D01*
X210035283Y-113343820D01*
X209863820Y-113515283D01*
X209729102Y-113716903D01*
X209636307Y-113940931D01*
X209589000Y-114178757D01*
X209589000Y-114421243D01*
X209636307Y-114659069D01*
X209668242Y-114736167D01*
X208985409Y-115419000D01*
X207257843Y-115419000D01*
X207257843Y-115050000D01*
X207250487Y-114975311D01*
X207228701Y-114903492D01*
X207193322Y-114837304D01*
X207145711Y-114779289D01*
X207087696Y-114731678D01*
X207021508Y-114696299D01*
X206949689Y-114674513D01*
X206875000Y-114667157D01*
X205425000Y-114667157D01*
X205350311Y-114674513D01*
X205278492Y-114696299D01*
X205212304Y-114731678D01*
X205166826Y-114769000D01*
X205084854Y-114769000D01*
X205060000Y-114766552D01*
X205035146Y-114769000D01*
X204960807Y-114776322D01*
X204865425Y-114805255D01*
X204777521Y-114852241D01*
X204700473Y-114915473D01*
X204684624Y-114934785D01*
X204383785Y-115235624D01*
X204364473Y-115251473D01*
X204301241Y-115328521D01*
X204254255Y-115416426D01*
X204225322Y-115511808D01*
X204218000Y-115586147D01*
X204218000Y-115586154D01*
X204215553Y-115611000D01*
X203635000Y-115611000D01*
X203635000Y-114481000D01*
X203915854Y-114481000D01*
X203925001Y-114480099D01*
X203934148Y-114481000D01*
X205166826Y-114481000D01*
X205212304Y-114518322D01*
X205278492Y-114553701D01*
X205350311Y-114575487D01*
X205425000Y-114582843D01*
X206875000Y-114582843D01*
X206949689Y-114575487D01*
X207021508Y-114553701D01*
X207087696Y-114518322D01*
X207145711Y-114470711D01*
X207193322Y-114412696D01*
X207228701Y-114346508D01*
X207250487Y-114274689D01*
X207257843Y-114200000D01*
X207257843Y-113750000D01*
X207250487Y-113675311D01*
X207242809Y-113650000D01*
X207250487Y-113624689D01*
X207257843Y-113550000D01*
X207257843Y-113100000D01*
X207250487Y-113025311D01*
X207242809Y-113000000D01*
X207250487Y-112974689D01*
X207257843Y-112900000D01*
X207257843Y-112450000D01*
X207250487Y-112375311D01*
X207242809Y-112350000D01*
X207250487Y-112324689D01*
X207257843Y-112250000D01*
X207257843Y-111800000D01*
X207250487Y-111725311D01*
X207242809Y-111700000D01*
X207250487Y-111674689D01*
X207254025Y-111638757D01*
X209589000Y-111638757D01*
X209589000Y-111881243D01*
X209636307Y-112119069D01*
X209729102Y-112343097D01*
X209863820Y-112544717D01*
X210035283Y-112716180D01*
X210236903Y-112850898D01*
X210460931Y-112943693D01*
X210698757Y-112991000D01*
X210941243Y-112991000D01*
X211179069Y-112943693D01*
X211403097Y-112850898D01*
X211604717Y-112716180D01*
X211776180Y-112544717D01*
X211910898Y-112343097D01*
X212003693Y-112119069D01*
X212051000Y-111881243D01*
X212051000Y-111638757D01*
X212003693Y-111400931D01*
X211910898Y-111176903D01*
X211776180Y-110975283D01*
X211604717Y-110803820D01*
X211403097Y-110669102D01*
X211179069Y-110576307D01*
X210941243Y-110529000D01*
X210698757Y-110529000D01*
X210460931Y-110576307D01*
X210236903Y-110669102D01*
X210035283Y-110803820D01*
X209863820Y-110975283D01*
X209729102Y-111176903D01*
X209636307Y-111400931D01*
X209589000Y-111638757D01*
X207254025Y-111638757D01*
X207257843Y-111600000D01*
X207257843Y-111232689D01*
X207379942Y-111182113D01*
X207507859Y-111096642D01*
X207616642Y-110987859D01*
X207702113Y-110859942D01*
X207760987Y-110717809D01*
X207791000Y-110566922D01*
X207791000Y-110413078D01*
X207760987Y-110262191D01*
X207702113Y-110120058D01*
X207616642Y-109992141D01*
X207507859Y-109883358D01*
X207379942Y-109797887D01*
X207237809Y-109739013D01*
X207086922Y-109709000D01*
X206933078Y-109709000D01*
X206782191Y-109739013D01*
X206640058Y-109797887D01*
X206512141Y-109883358D01*
X206403358Y-109992141D01*
X206389440Y-110012970D01*
X206365425Y-110020255D01*
X206277521Y-110067241D01*
X206200473Y-110130473D01*
X206184628Y-110149780D01*
X205809780Y-110524629D01*
X205790474Y-110540473D01*
X205727242Y-110617521D01*
X205722538Y-110626322D01*
X205680255Y-110705426D01*
X205661530Y-110767157D01*
X205425000Y-110767157D01*
X205350311Y-110774513D01*
X205278492Y-110796299D01*
X205212304Y-110831678D01*
X205158147Y-110876123D01*
X205076642Y-110754141D01*
X204967859Y-110645358D01*
X204839942Y-110559887D01*
X204697809Y-110501013D01*
X204546922Y-110471000D01*
X204476585Y-110471000D01*
X204458031Y-110377721D01*
X204399157Y-110235588D01*
X204313686Y-110107671D01*
X204265275Y-110059260D01*
X204296190Y-110021589D01*
X204354671Y-109912179D01*
X204390683Y-109793462D01*
X204402843Y-109670001D01*
X204402843Y-109098757D01*
X209589000Y-109098757D01*
X209589000Y-109341243D01*
X209636307Y-109579069D01*
X209729102Y-109803097D01*
X209863820Y-110004717D01*
X210035283Y-110176180D01*
X210236903Y-110310898D01*
X210460931Y-110403693D01*
X210698757Y-110451000D01*
X210941243Y-110451000D01*
X211179069Y-110403693D01*
X211403097Y-110310898D01*
X211604717Y-110176180D01*
X211776180Y-110004717D01*
X211910898Y-109803097D01*
X212003693Y-109579069D01*
X212051000Y-109341243D01*
X212051000Y-109098757D01*
X212003693Y-108860931D01*
X211910898Y-108636903D01*
X211776180Y-108435283D01*
X211604717Y-108263820D01*
X211403097Y-108129102D01*
X211179069Y-108036307D01*
X210941243Y-107989000D01*
X210698757Y-107989000D01*
X210460931Y-108036307D01*
X210236903Y-108129102D01*
X210035283Y-108263820D01*
X209863820Y-108435283D01*
X209729102Y-108636903D01*
X209636307Y-108860931D01*
X209589000Y-109098757D01*
X204402843Y-109098757D01*
X204402843Y-108769999D01*
X204390683Y-108646538D01*
X204354671Y-108527821D01*
X204316282Y-108456000D01*
X205260156Y-108456000D01*
X205285002Y-108458447D01*
X205309848Y-108456000D01*
X205309856Y-108456000D01*
X205384195Y-108448678D01*
X205479577Y-108419745D01*
X205567481Y-108372759D01*
X205644529Y-108309527D01*
X205660378Y-108290215D01*
X206470220Y-107480374D01*
X206489527Y-107464529D01*
X206552759Y-107387481D01*
X206599745Y-107299577D01*
X206628678Y-107204195D01*
X206636000Y-107129856D01*
X206636000Y-107129855D01*
X206638448Y-107105002D01*
X206636000Y-107080148D01*
X206636000Y-106558757D01*
X209589000Y-106558757D01*
X209589000Y-106801243D01*
X209636307Y-107039069D01*
X209729102Y-107263097D01*
X209863820Y-107464717D01*
X210035283Y-107636180D01*
X210236903Y-107770898D01*
X210460931Y-107863693D01*
X210698757Y-107911000D01*
X210941243Y-107911000D01*
X211179069Y-107863693D01*
X211403097Y-107770898D01*
X211604717Y-107636180D01*
X211776180Y-107464717D01*
X211910898Y-107263097D01*
X212003693Y-107039069D01*
X212051000Y-106801243D01*
X212051000Y-106558757D01*
X212003693Y-106320931D01*
X211910898Y-106096903D01*
X211776180Y-105895283D01*
X211604717Y-105723820D01*
X211403097Y-105589102D01*
X211179069Y-105496307D01*
X210941243Y-105449000D01*
X210698757Y-105449000D01*
X210460931Y-105496307D01*
X210236903Y-105589102D01*
X210035283Y-105723820D01*
X209863820Y-105895283D01*
X209729102Y-106096903D01*
X209636307Y-106320931D01*
X209589000Y-106558757D01*
X206636000Y-106558757D01*
X206636000Y-105949139D01*
X206690538Y-105965683D01*
X206813999Y-105977843D01*
X207714001Y-105977843D01*
X207837462Y-105965683D01*
X207956179Y-105929671D01*
X208065589Y-105871190D01*
X208161488Y-105792488D01*
X208240190Y-105696589D01*
X208298671Y-105587179D01*
X208334683Y-105468462D01*
X208346843Y-105345001D01*
X208346843Y-104694999D01*
X208334683Y-104571538D01*
X208298671Y-104452821D01*
X208240190Y-104343411D01*
X208161488Y-104247512D01*
X208065589Y-104168810D01*
X207956179Y-104110329D01*
X207837462Y-104074317D01*
X207714001Y-104062157D01*
X206813999Y-104062157D01*
X206690538Y-104074317D01*
X206571821Y-104110329D01*
X206462411Y-104168810D01*
X206366512Y-104247512D01*
X206287810Y-104343411D01*
X206229329Y-104452821D01*
X206210771Y-104514000D01*
X206154854Y-104514000D01*
X206130000Y-104511552D01*
X206105146Y-104514000D01*
X205612784Y-104514000D01*
X205600711Y-104499289D01*
X205542696Y-104451678D01*
X205476508Y-104416299D01*
X205404689Y-104394513D01*
X205330000Y-104387157D01*
X203770000Y-104387157D01*
X203695311Y-104394513D01*
X203623492Y-104416299D01*
X203557304Y-104451678D01*
X203499289Y-104499289D01*
X203451678Y-104557304D01*
X203416299Y-104623492D01*
X203394513Y-104695311D01*
X203387157Y-104770000D01*
X203387157Y-104886566D01*
X203255376Y-104754785D01*
X203239527Y-104735473D01*
X203162479Y-104672241D01*
X203074575Y-104625255D01*
X202979193Y-104596322D01*
X202968621Y-104595281D01*
X202948322Y-104557304D01*
X202900711Y-104499289D01*
X202842696Y-104451678D01*
X202776508Y-104416299D01*
X202704689Y-104394513D01*
X202630000Y-104387157D01*
X201070000Y-104387157D01*
X200995311Y-104394513D01*
X200923492Y-104416299D01*
X200857304Y-104451678D01*
X200799289Y-104499289D01*
X200751678Y-104557304D01*
X200734736Y-104589000D01*
X200208403Y-104589000D01*
X200206683Y-104571538D01*
X200170671Y-104452821D01*
X200112190Y-104343411D01*
X200033488Y-104247512D01*
X199937589Y-104168810D01*
X199828179Y-104110329D01*
X199709462Y-104074317D01*
X199586001Y-104062157D01*
X198685999Y-104062157D01*
X198562538Y-104074317D01*
X198443821Y-104110329D01*
X198334411Y-104168810D01*
X198315731Y-104184140D01*
X198150348Y-104018757D01*
X209589000Y-104018757D01*
X209589000Y-104261243D01*
X209636307Y-104499069D01*
X209729102Y-104723097D01*
X209863820Y-104924717D01*
X210035283Y-105096180D01*
X210236903Y-105230898D01*
X210460931Y-105323693D01*
X210698757Y-105371000D01*
X210941243Y-105371000D01*
X211179069Y-105323693D01*
X211403097Y-105230898D01*
X211604717Y-105096180D01*
X211776180Y-104924717D01*
X211910898Y-104723097D01*
X212003693Y-104499069D01*
X212051000Y-104261243D01*
X212051000Y-104018757D01*
X212003693Y-103780931D01*
X211910898Y-103556903D01*
X211776180Y-103355283D01*
X211604717Y-103183820D01*
X211403097Y-103049102D01*
X211179069Y-102956307D01*
X210941243Y-102909000D01*
X210698757Y-102909000D01*
X210460931Y-102956307D01*
X210236903Y-103049102D01*
X210035283Y-103183820D01*
X209863820Y-103355283D01*
X209729102Y-103556903D01*
X209636307Y-103780931D01*
X209589000Y-104018757D01*
X198150348Y-104018757D01*
X197873010Y-103741419D01*
X197873010Y-102054581D01*
X197914581Y-102013010D01*
X198912170Y-102013010D01*
X198977375Y-102078215D01*
X198993224Y-102097527D01*
X199070272Y-102160759D01*
X199152135Y-102204516D01*
X199158176Y-102207745D01*
X199253557Y-102236678D01*
X199263445Y-102237652D01*
X199327897Y-102244000D01*
X199327904Y-102244000D01*
X199352750Y-102246447D01*
X199377596Y-102244000D01*
X200627154Y-102244000D01*
X200652000Y-102246447D01*
X200676846Y-102244000D01*
X200676854Y-102244000D01*
X200751193Y-102236678D01*
X200846575Y-102207745D01*
X200934479Y-102160759D01*
X201011527Y-102097527D01*
X201027376Y-102078215D01*
X201123000Y-101982591D01*
X201142356Y-102001947D01*
X201087810Y-102068411D01*
X201029329Y-102177821D01*
X200993317Y-102296538D01*
X200981157Y-102419999D01*
X200981157Y-103320001D01*
X200993317Y-103443462D01*
X201029329Y-103562179D01*
X201087810Y-103671589D01*
X201166512Y-103767488D01*
X201262411Y-103846190D01*
X201371821Y-103904671D01*
X201490538Y-103940683D01*
X201613999Y-103952843D01*
X202264001Y-103952843D01*
X202387462Y-103940683D01*
X202506179Y-103904671D01*
X202615589Y-103846190D01*
X202711488Y-103767488D01*
X202790190Y-103671589D01*
X202848671Y-103562179D01*
X202884683Y-103443462D01*
X202896843Y-103320001D01*
X202896843Y-102909344D01*
X202956141Y-102968642D01*
X203084058Y-103054113D01*
X203226191Y-103112987D01*
X203377078Y-103143000D01*
X203530922Y-103143000D01*
X203681809Y-103112987D01*
X203823942Y-103054113D01*
X203951859Y-102968642D01*
X204005311Y-102915190D01*
X204025242Y-102952479D01*
X204088474Y-103029527D01*
X204107781Y-103045372D01*
X204265157Y-103202748D01*
X204265157Y-103320001D01*
X204277317Y-103443462D01*
X204313329Y-103562179D01*
X204371810Y-103671589D01*
X204450512Y-103767488D01*
X204546411Y-103846190D01*
X204655821Y-103904671D01*
X204774538Y-103940683D01*
X204897999Y-103952843D01*
X205548001Y-103952843D01*
X205671462Y-103940683D01*
X205790179Y-103904671D01*
X205899589Y-103846190D01*
X205995488Y-103767488D01*
X206074190Y-103671589D01*
X206132671Y-103562179D01*
X206168683Y-103443462D01*
X206180843Y-103320001D01*
X206180843Y-102419999D01*
X206168683Y-102296538D01*
X206132671Y-102177821D01*
X206074190Y-102068411D01*
X205995488Y-101972512D01*
X205899589Y-101893810D01*
X205790179Y-101835329D01*
X205671462Y-101799317D01*
X205548001Y-101787157D01*
X204954000Y-101787157D01*
X204954000Y-101724843D01*
X205098000Y-101724843D01*
X205172689Y-101717487D01*
X205198000Y-101709809D01*
X205223311Y-101717487D01*
X205298000Y-101724843D01*
X205898000Y-101724843D01*
X205972689Y-101717487D01*
X206044508Y-101695701D01*
X206110696Y-101660322D01*
X206168711Y-101612711D01*
X206216322Y-101554696D01*
X206251701Y-101488508D01*
X206273487Y-101416689D01*
X206280843Y-101342000D01*
X206280843Y-100357982D01*
X206286640Y-100356829D01*
X206410574Y-100305494D01*
X206522112Y-100230967D01*
X206616967Y-100136112D01*
X206691494Y-100024574D01*
X206742829Y-99900640D01*
X206769000Y-99769073D01*
X206769000Y-99634927D01*
X206742829Y-99503360D01*
X206691494Y-99379426D01*
X206616967Y-99267888D01*
X206522112Y-99173033D01*
X206410574Y-99098506D01*
X206286640Y-99047171D01*
X206155073Y-99021000D01*
X206020927Y-99021000D01*
X205889360Y-99047171D01*
X205765426Y-99098506D01*
X205653888Y-99173033D01*
X205559033Y-99267888D01*
X205513149Y-99336559D01*
X204425372Y-98248783D01*
X204409523Y-98229471D01*
X204332475Y-98166239D01*
X204244571Y-98119253D01*
X204149189Y-98090320D01*
X204074850Y-98082998D01*
X204074842Y-98082998D01*
X204049996Y-98080551D01*
X204025150Y-98082998D01*
X202370849Y-98082998D01*
X202346003Y-98080551D01*
X202321157Y-98082998D01*
X202321150Y-98082998D01*
X202256698Y-98089346D01*
X202246810Y-98090320D01*
X202224611Y-98097054D01*
X202151429Y-98119253D01*
X202063525Y-98166239D01*
X201986477Y-98229471D01*
X201970632Y-98248778D01*
X200882851Y-99336559D01*
X200836967Y-99267888D01*
X200742112Y-99173033D01*
X200630574Y-99098506D01*
X200506640Y-99047171D01*
X200375073Y-99021000D01*
X200240927Y-99021000D01*
X200109360Y-99047171D01*
X199985426Y-99098506D01*
X199873888Y-99173033D01*
X199779033Y-99267888D01*
X199704506Y-99379426D01*
X199653171Y-99503360D01*
X199627000Y-99634927D01*
X199627000Y-99769073D01*
X199653171Y-99900640D01*
X199704506Y-100024574D01*
X199779033Y-100136112D01*
X199873888Y-100230967D01*
X199985426Y-100305494D01*
X200109360Y-100356829D01*
X200115157Y-100357982D01*
X200115157Y-101232000D01*
X199562342Y-101232000D01*
X199497137Y-101166795D01*
X199481288Y-101147483D01*
X199404240Y-101084251D01*
X199316336Y-101037265D01*
X199220954Y-101008332D01*
X199146615Y-101001010D01*
X199146607Y-101001010D01*
X199121761Y-100998563D01*
X199096915Y-101001010D01*
X197729844Y-101001010D01*
X197704990Y-100998562D01*
X197680136Y-101001010D01*
X197605797Y-101008332D01*
X197510415Y-101037265D01*
X197422511Y-101084251D01*
X197345463Y-101147483D01*
X197329614Y-101166795D01*
X197157419Y-101338990D01*
X197134581Y-101338990D01*
X197055376Y-101259785D01*
X197039527Y-101240473D01*
X196962479Y-101177241D01*
X196874575Y-101130255D01*
X196812843Y-101111529D01*
X196812843Y-100750000D01*
X196805487Y-100675311D01*
X196783701Y-100603492D01*
X196748322Y-100537304D01*
X196700711Y-100479289D01*
X196642696Y-100431678D01*
X196576508Y-100396299D01*
X196504689Y-100374513D01*
X196430000Y-100367157D01*
X194730000Y-100367157D01*
X194655311Y-100374513D01*
X194583492Y-100396299D01*
X194517304Y-100431678D01*
X194459289Y-100479289D01*
X194411678Y-100537304D01*
X194376299Y-100603492D01*
X194354513Y-100675311D01*
X194347157Y-100750000D01*
X194106000Y-100750000D01*
X194106000Y-95798229D01*
X194699000Y-95798229D01*
X194699000Y-95971771D01*
X194732856Y-96141978D01*
X194799268Y-96302310D01*
X194895682Y-96446605D01*
X195018395Y-96569318D01*
X195162690Y-96665732D01*
X195323022Y-96732144D01*
X195493229Y-96766000D01*
X195666771Y-96766000D01*
X195836978Y-96732144D01*
X195997310Y-96665732D01*
X196141605Y-96569318D01*
X196264318Y-96446605D01*
X196360732Y-96302310D01*
X196427144Y-96141978D01*
X196461000Y-95971771D01*
X196461000Y-95798229D01*
X196427144Y-95628022D01*
X196360732Y-95467690D01*
X196264318Y-95323395D01*
X196141605Y-95200682D01*
X195997310Y-95104268D01*
X195836978Y-95037856D01*
X195666771Y-95004000D01*
X195493229Y-95004000D01*
X195323022Y-95037856D01*
X195162690Y-95104268D01*
X195018395Y-95200682D01*
X194895682Y-95323395D01*
X194799268Y-95467690D01*
X194732856Y-95628022D01*
X194699000Y-95798229D01*
X194106000Y-95798229D01*
X194106000Y-94411000D01*
X212294000Y-94411000D01*
X212294001Y-123394000D01*
G37*
X212294001Y-123394000D02*
X194106000Y-123394000D01*
X194106000Y-104018757D01*
X194349000Y-104018757D01*
X194349000Y-104261243D01*
X194396307Y-104499069D01*
X194489102Y-104723097D01*
X194623820Y-104924717D01*
X194795283Y-105096180D01*
X194996903Y-105230898D01*
X195220931Y-105323693D01*
X195458757Y-105371000D01*
X195701243Y-105371000D01*
X195939069Y-105323693D01*
X196163097Y-105230898D01*
X196364717Y-105096180D01*
X196536180Y-104924717D01*
X196670898Y-104723097D01*
X196763693Y-104499069D01*
X196811000Y-104261243D01*
X196811000Y-104018757D01*
X196763693Y-103780931D01*
X196670898Y-103556903D01*
X196536180Y-103355283D01*
X196364717Y-103183820D01*
X196163097Y-103049102D01*
X195939069Y-102956307D01*
X195701243Y-102909000D01*
X195458757Y-102909000D01*
X195220931Y-102956307D01*
X194996903Y-103049102D01*
X194795283Y-103183820D01*
X194623820Y-103355283D01*
X194489102Y-103556903D01*
X194396307Y-103780931D01*
X194349000Y-104018757D01*
X194106000Y-104018757D01*
X194106000Y-100750000D01*
X194347157Y-100750000D01*
X194347157Y-102450000D01*
X194354513Y-102524689D01*
X194376299Y-102596508D01*
X194411678Y-102662696D01*
X194459289Y-102720711D01*
X194517304Y-102768322D01*
X194583492Y-102803701D01*
X194655311Y-102825487D01*
X194730000Y-102832843D01*
X196430000Y-102832843D01*
X196504689Y-102825487D01*
X196576508Y-102803701D01*
X196642696Y-102768322D01*
X196700711Y-102720711D01*
X196748322Y-102662696D01*
X196783701Y-102596508D01*
X196805487Y-102524689D01*
X196812843Y-102450000D01*
X196812843Y-102339739D01*
X196825796Y-102343668D01*
X196835684Y-102344642D01*
X196861010Y-102347136D01*
X196861011Y-103926154D01*
X196858563Y-103951010D01*
X196868332Y-104050202D01*
X196897265Y-104145584D01*
X196897266Y-104145585D01*
X196944252Y-104233489D01*
X197007484Y-104310537D01*
X197026790Y-104326381D01*
X198054003Y-105353595D01*
X198065317Y-105468462D01*
X198101329Y-105587179D01*
X198159810Y-105696589D01*
X198238512Y-105792488D01*
X198334411Y-105871190D01*
X198443821Y-105929671D01*
X198562538Y-105965683D01*
X198685999Y-105977843D01*
X199586001Y-105977843D01*
X199709462Y-105965683D01*
X199828179Y-105929671D01*
X199937589Y-105871190D01*
X200033488Y-105792488D01*
X200112190Y-105696589D01*
X200163284Y-105601000D01*
X200734736Y-105601000D01*
X200751678Y-105632696D01*
X200799289Y-105690711D01*
X200857304Y-105738322D01*
X200923492Y-105773701D01*
X200995311Y-105795487D01*
X201070000Y-105802843D01*
X202630000Y-105802843D01*
X202694000Y-105796540D01*
X202694001Y-106293460D01*
X202630000Y-106287157D01*
X201070000Y-106287157D01*
X200995311Y-106294513D01*
X200923492Y-106316299D01*
X200857304Y-106351678D01*
X200799289Y-106399289D01*
X200751678Y-106457304D01*
X200716299Y-106523492D01*
X200694513Y-106595311D01*
X200687157Y-106670000D01*
X200687157Y-107320000D01*
X200694513Y-107394689D01*
X200706466Y-107434095D01*
X200688420Y-107452141D01*
X200602949Y-107580058D01*
X200544075Y-107722191D01*
X200514062Y-107873078D01*
X200514062Y-108026922D01*
X200544075Y-108177809D01*
X200602949Y-108319942D01*
X200688420Y-108447859D01*
X200797203Y-108556642D01*
X200925120Y-108642113D01*
X201067253Y-108700987D01*
X201218140Y-108731000D01*
X201371984Y-108731000D01*
X201424000Y-108720653D01*
X201424000Y-109244853D01*
X201424001Y-109244863D01*
X201424000Y-113469000D01*
X201357843Y-113469000D01*
X201357843Y-113100000D01*
X201350487Y-113025311D01*
X201342809Y-113000000D01*
X201350487Y-112974689D01*
X201357843Y-112900000D01*
X201357843Y-112450000D01*
X201350487Y-112375311D01*
X201342809Y-112350000D01*
X201350487Y-112324689D01*
X201357843Y-112250000D01*
X201357843Y-111800000D01*
X201350487Y-111725311D01*
X201342809Y-111700000D01*
X201350487Y-111674689D01*
X201357843Y-111600000D01*
X201357843Y-111150000D01*
X201350487Y-111075311D01*
X201328701Y-111003492D01*
X201293322Y-110937304D01*
X201245711Y-110879289D01*
X201187696Y-110831678D01*
X201121508Y-110796299D01*
X201049689Y-110774513D01*
X200975000Y-110767157D01*
X199525000Y-110767157D01*
X199450311Y-110774513D01*
X199378492Y-110796299D01*
X199312304Y-110831678D01*
X199266826Y-110869000D01*
X198376591Y-110869000D01*
X198943595Y-110301997D01*
X199058462Y-110290683D01*
X199177179Y-110254671D01*
X199286589Y-110196190D01*
X199382488Y-110117488D01*
X199461190Y-110021589D01*
X199519671Y-109912179D01*
X199555683Y-109793462D01*
X199567843Y-109670001D01*
X199567843Y-108769999D01*
X199555683Y-108646538D01*
X199519671Y-108527821D01*
X199461190Y-108418411D01*
X199382488Y-108322512D01*
X199286589Y-108243810D01*
X199177179Y-108185329D01*
X199058462Y-108149317D01*
X198935001Y-108137157D01*
X198284999Y-108137157D01*
X198161538Y-108149317D01*
X198042821Y-108185329D01*
X197933411Y-108243810D01*
X197837512Y-108322512D01*
X197758810Y-108418411D01*
X197700329Y-108527821D01*
X197664317Y-108646538D01*
X197652157Y-108769999D01*
X197652157Y-109670001D01*
X197664317Y-109793462D01*
X197700329Y-109912179D01*
X197758810Y-110021589D01*
X197774140Y-110040269D01*
X197445000Y-110369408D01*
X196731758Y-109656167D01*
X196763693Y-109579069D01*
X196811000Y-109341243D01*
X196811000Y-109098757D01*
X196763693Y-108860931D01*
X196670898Y-108636903D01*
X196536180Y-108435283D01*
X196364717Y-108263820D01*
X196163097Y-108129102D01*
X195939069Y-108036307D01*
X195701243Y-107989000D01*
X195458757Y-107989000D01*
X195220931Y-108036307D01*
X194996903Y-108129102D01*
X194795283Y-108263820D01*
X194623820Y-108435283D01*
X194489102Y-108636903D01*
X194396307Y-108860931D01*
X194349000Y-109098757D01*
X194349000Y-109341243D01*
X194396307Y-109579069D01*
X194489102Y-109803097D01*
X194623820Y-110004717D01*
X194795283Y-110176180D01*
X194996903Y-110310898D01*
X195220931Y-110403693D01*
X195458757Y-110451000D01*
X195701243Y-110451000D01*
X195939069Y-110403693D01*
X196016167Y-110371758D01*
X197109628Y-111465220D01*
X197125473Y-111484527D01*
X197144784Y-111500375D01*
X197163409Y-111519000D01*
X196787179Y-111519000D01*
X196763693Y-111400931D01*
X196670898Y-111176903D01*
X196536180Y-110975283D01*
X196364717Y-110803820D01*
X196163097Y-110669102D01*
X195939069Y-110576307D01*
X195701243Y-110529000D01*
X195458757Y-110529000D01*
X195220931Y-110576307D01*
X194996903Y-110669102D01*
X194795283Y-110803820D01*
X194623820Y-110975283D01*
X194489102Y-111176903D01*
X194396307Y-111400931D01*
X194349000Y-111638757D01*
X194349000Y-111881243D01*
X194396307Y-112119069D01*
X194489102Y-112343097D01*
X194623820Y-112544717D01*
X194795283Y-112716180D01*
X194996903Y-112850898D01*
X195220931Y-112943693D01*
X195458757Y-112991000D01*
X195701243Y-112991000D01*
X195939069Y-112943693D01*
X196163097Y-112850898D01*
X196364717Y-112716180D01*
X196536180Y-112544717D01*
X196545345Y-112531000D01*
X196633408Y-112531000D01*
X196016167Y-113148242D01*
X195939069Y-113116307D01*
X195701243Y-113069000D01*
X195458757Y-113069000D01*
X195220931Y-113116307D01*
X194996903Y-113209102D01*
X194795283Y-113343820D01*
X194623820Y-113515283D01*
X194489102Y-113716903D01*
X194396307Y-113940931D01*
X194349000Y-114178757D01*
X194349000Y-114421243D01*
X194396307Y-114659069D01*
X194489102Y-114883097D01*
X194623820Y-115084717D01*
X194795283Y-115256180D01*
X194996903Y-115390898D01*
X195220931Y-115483693D01*
X195458757Y-115531000D01*
X195701243Y-115531000D01*
X195939069Y-115483693D01*
X196163097Y-115390898D01*
X196364717Y-115256180D01*
X196536180Y-115084717D01*
X196670898Y-114883097D01*
X196763693Y-114659069D01*
X196811000Y-114421243D01*
X196811000Y-114178757D01*
X196763693Y-113940931D01*
X196731758Y-113863833D01*
X197414592Y-113181000D01*
X198523408Y-113181000D01*
X196016167Y-115688242D01*
X195939069Y-115656307D01*
X195701243Y-115609000D01*
X195458757Y-115609000D01*
X195220931Y-115656307D01*
X194996903Y-115749102D01*
X194795283Y-115883820D01*
X194623820Y-116055283D01*
X194489102Y-116256903D01*
X194396307Y-116480931D01*
X194349000Y-116718757D01*
X194349000Y-116961243D01*
X194396307Y-117199069D01*
X194489102Y-117423097D01*
X194623820Y-117624717D01*
X194795283Y-117796180D01*
X194996903Y-117930898D01*
X195220931Y-118023693D01*
X195458757Y-118071000D01*
X195701243Y-118071000D01*
X195939069Y-118023693D01*
X196163097Y-117930898D01*
X196364717Y-117796180D01*
X196536180Y-117624717D01*
X196670898Y-117423097D01*
X196763693Y-117199069D01*
X196811000Y-116961243D01*
X196811000Y-116718757D01*
X196763693Y-116480931D01*
X196731758Y-116403833D01*
X199142157Y-113993435D01*
X199142157Y-114136529D01*
X199084562Y-114154000D01*
X199080425Y-114155255D01*
X198992521Y-114202241D01*
X198915473Y-114265473D01*
X198899628Y-114284780D01*
X197271785Y-115912624D01*
X197252473Y-115928473D01*
X197189241Y-116005521D01*
X197142255Y-116093426D01*
X197113322Y-116188808D01*
X197106000Y-116263147D01*
X197106000Y-116263154D01*
X197103553Y-116288000D01*
X197106000Y-116312847D01*
X197106001Y-117138407D01*
X196016167Y-118228242D01*
X195939069Y-118196307D01*
X195701243Y-118149000D01*
X195458757Y-118149000D01*
X195220931Y-118196307D01*
X194996903Y-118289102D01*
X194795283Y-118423820D01*
X194623820Y-118595283D01*
X194489102Y-118796903D01*
X194396307Y-119020931D01*
X194349000Y-119258757D01*
X194349000Y-119501243D01*
X194396307Y-119739069D01*
X194489102Y-119963097D01*
X194623820Y-120164717D01*
X194795283Y-120336180D01*
X194996903Y-120470898D01*
X195220931Y-120563693D01*
X195458757Y-120611000D01*
X195701243Y-120611000D01*
X195939069Y-120563693D01*
X196163097Y-120470898D01*
X196364717Y-120336180D01*
X196536180Y-120164717D01*
X196670898Y-119963097D01*
X196763693Y-119739069D01*
X196811000Y-119501243D01*
X196811000Y-119258757D01*
X196763693Y-119020931D01*
X196731758Y-118943833D01*
X197614001Y-118061591D01*
X197614001Y-119170407D01*
X196122793Y-120661616D01*
X196122788Y-120661620D01*
X196016166Y-120768242D01*
X195939069Y-120736307D01*
X195701243Y-120689000D01*
X195458757Y-120689000D01*
X195220931Y-120736307D01*
X194996903Y-120829102D01*
X194795283Y-120963820D01*
X194623820Y-121135283D01*
X194489102Y-121336903D01*
X194396307Y-121560931D01*
X194349000Y-121798757D01*
X194349000Y-122041243D01*
X194396307Y-122279069D01*
X194489102Y-122503097D01*
X194623820Y-122704717D01*
X194795283Y-122876180D01*
X194996903Y-123010898D01*
X195220931Y-123103693D01*
X195458757Y-123151000D01*
X195701243Y-123151000D01*
X195939069Y-123103693D01*
X196163097Y-123010898D01*
X196364717Y-122876180D01*
X196536180Y-122704717D01*
X196670898Y-122503097D01*
X196763693Y-122279069D01*
X196811000Y-122041243D01*
X196811000Y-121833229D01*
X206129000Y-121833229D01*
X206129000Y-122006771D01*
X206162856Y-122176978D01*
X206229268Y-122337310D01*
X206325682Y-122481605D01*
X206448395Y-122604318D01*
X206592690Y-122700732D01*
X206753022Y-122767144D01*
X206923229Y-122801000D01*
X207096771Y-122801000D01*
X207266978Y-122767144D01*
X207427310Y-122700732D01*
X207571605Y-122604318D01*
X207694318Y-122481605D01*
X207790732Y-122337310D01*
X207857144Y-122176978D01*
X207891000Y-122006771D01*
X207891000Y-121833229D01*
X207884144Y-121798757D01*
X209589000Y-121798757D01*
X209589000Y-122041243D01*
X209636307Y-122279069D01*
X209729102Y-122503097D01*
X209863820Y-122704717D01*
X210035283Y-122876180D01*
X210236903Y-123010898D01*
X210460931Y-123103693D01*
X210698757Y-123151000D01*
X210941243Y-123151000D01*
X211179069Y-123103693D01*
X211403097Y-123010898D01*
X211604717Y-122876180D01*
X211776180Y-122704717D01*
X211910898Y-122503097D01*
X212003693Y-122279069D01*
X212051000Y-122041243D01*
X212051000Y-121798757D01*
X212003693Y-121560931D01*
X211910898Y-121336903D01*
X211776180Y-121135283D01*
X211604717Y-120963820D01*
X211403097Y-120829102D01*
X211179069Y-120736307D01*
X210941243Y-120689000D01*
X210698757Y-120689000D01*
X210460931Y-120736307D01*
X210236903Y-120829102D01*
X210035283Y-120963820D01*
X209863820Y-121135283D01*
X209729102Y-121336903D01*
X209636307Y-121560931D01*
X209589000Y-121798757D01*
X207884144Y-121798757D01*
X207857144Y-121663022D01*
X207790732Y-121502690D01*
X207694318Y-121358395D01*
X207571605Y-121235682D01*
X207427310Y-121139268D01*
X207266978Y-121072856D01*
X207096771Y-121039000D01*
X206923229Y-121039000D01*
X206753022Y-121072856D01*
X206592690Y-121139268D01*
X206448395Y-121235682D01*
X206325682Y-121358395D01*
X206229268Y-121502690D01*
X206162856Y-121663022D01*
X206129000Y-121833229D01*
X196811000Y-121833229D01*
X196811000Y-121798757D01*
X196763693Y-121560931D01*
X196731758Y-121483834D01*
X196838380Y-121377212D01*
X196838384Y-121377207D01*
X198423157Y-119792435D01*
X198423157Y-120084001D01*
X198435317Y-120207462D01*
X198471329Y-120326179D01*
X198529810Y-120435589D01*
X198608512Y-120531488D01*
X198704411Y-120610190D01*
X198813821Y-120668671D01*
X198932538Y-120704683D01*
X199055999Y-120716843D01*
X199706001Y-120716843D01*
X199829462Y-120704683D01*
X199948179Y-120668671D01*
X200057589Y-120610190D01*
X200153488Y-120531488D01*
X200232190Y-120435589D01*
X200290671Y-120326179D01*
X200326683Y-120207462D01*
X200338843Y-120084001D01*
X200338843Y-119479248D01*
X200473157Y-119344934D01*
X200473157Y-120084001D01*
X200485317Y-120207462D01*
X200521329Y-120326179D01*
X200579810Y-120435589D01*
X200658512Y-120531488D01*
X200754411Y-120610190D01*
X200863821Y-120668671D01*
X200982538Y-120704683D01*
X201105999Y-120716843D01*
X201756001Y-120716843D01*
X201879462Y-120704683D01*
X201998179Y-120668671D01*
X202107589Y-120610190D01*
X202203488Y-120531488D01*
X202282190Y-120435589D01*
X202340671Y-120326179D01*
X202376683Y-120207462D01*
X202383328Y-120140000D01*
X204279672Y-120140000D01*
X204286317Y-120207462D01*
X204322329Y-120326179D01*
X204380810Y-120435589D01*
X204459512Y-120531488D01*
X204555411Y-120610190D01*
X204664821Y-120668671D01*
X204783538Y-120704683D01*
X204906999Y-120716843D01*
X205557001Y-120716843D01*
X205680462Y-120704683D01*
X205799179Y-120668671D01*
X205908589Y-120610190D01*
X206004488Y-120531488D01*
X206083190Y-120435589D01*
X206141671Y-120326179D01*
X206177683Y-120207462D01*
X206189843Y-120084001D01*
X206189843Y-119183999D01*
X206177683Y-119060538D01*
X206141671Y-118941821D01*
X206083190Y-118832411D01*
X206004488Y-118736512D01*
X205908589Y-118657810D01*
X205799179Y-118599329D01*
X205680462Y-118563317D01*
X205557001Y-118551157D01*
X204906999Y-118551157D01*
X204783538Y-118563317D01*
X204664821Y-118599329D01*
X204555411Y-118657810D01*
X204459512Y-118736512D01*
X204380810Y-118832411D01*
X204322329Y-118941821D01*
X204286317Y-119060538D01*
X204279672Y-119128000D01*
X202383328Y-119128000D01*
X202376683Y-119060538D01*
X202340671Y-118941821D01*
X202282190Y-118832411D01*
X202203488Y-118736512D01*
X202166310Y-118706001D01*
X202253155Y-118706001D01*
X202278001Y-118708448D01*
X202302847Y-118706001D01*
X202302855Y-118706001D01*
X202377194Y-118698679D01*
X202472576Y-118669746D01*
X202560480Y-118622760D01*
X202637528Y-118559528D01*
X202653377Y-118540216D01*
X203469220Y-117724374D01*
X203488527Y-117708529D01*
X203551759Y-117631481D01*
X203598745Y-117543577D01*
X203620944Y-117470395D01*
X203627678Y-117448196D01*
X203630497Y-117419574D01*
X203635000Y-117373856D01*
X203635000Y-117373849D01*
X203637447Y-117349003D01*
X203635000Y-117324157D01*
X203635000Y-115611000D01*
X204215553Y-115611000D01*
X204218000Y-115635846D01*
X204218001Y-117577144D01*
X204215553Y-117602000D01*
X204225322Y-117701192D01*
X204254255Y-117796574D01*
X204266107Y-117818747D01*
X204301242Y-117884479D01*
X204364474Y-117961527D01*
X204383781Y-117977372D01*
X204602624Y-118196215D01*
X204618473Y-118215527D01*
X204695521Y-118278759D01*
X204783425Y-118325745D01*
X204878806Y-118354678D01*
X204888694Y-118355652D01*
X204953146Y-118362000D01*
X204953153Y-118362000D01*
X204977999Y-118364447D01*
X205002845Y-118362000D01*
X205994409Y-118362000D01*
X206446140Y-118813731D01*
X206430810Y-118832411D01*
X206372329Y-118941821D01*
X206336317Y-119060538D01*
X206324157Y-119183999D01*
X206324157Y-120084001D01*
X206336317Y-120207462D01*
X206372329Y-120326179D01*
X206430810Y-120435589D01*
X206509512Y-120531488D01*
X206605411Y-120610190D01*
X206714821Y-120668671D01*
X206833538Y-120704683D01*
X206956999Y-120716843D01*
X207607001Y-120716843D01*
X207730462Y-120704683D01*
X207849179Y-120668671D01*
X207958589Y-120610190D01*
X208054488Y-120531488D01*
X208133190Y-120435589D01*
X208191671Y-120326179D01*
X208227683Y-120207462D01*
X208239843Y-120084001D01*
X208239843Y-119183999D01*
X208227683Y-119060538D01*
X208191671Y-118941821D01*
X208133190Y-118832411D01*
X208054488Y-118736512D01*
X207958589Y-118657810D01*
X207849179Y-118599329D01*
X207730462Y-118563317D01*
X207615595Y-118552003D01*
X206894513Y-117830921D01*
X206949689Y-117825487D01*
X207021508Y-117803701D01*
X207087696Y-117768322D01*
X207133174Y-117731000D01*
X208455409Y-117731000D01*
X209668242Y-118943833D01*
X209636307Y-119020931D01*
X209589000Y-119258757D01*
X209589000Y-119501243D01*
X209636307Y-119739069D01*
X209729102Y-119963097D01*
X209863820Y-120164717D01*
X210035283Y-120336180D01*
X210236903Y-120470898D01*
X210460931Y-120563693D01*
X210698757Y-120611000D01*
X210941243Y-120611000D01*
X211179069Y-120563693D01*
X211403097Y-120470898D01*
X211604717Y-120336180D01*
X211776180Y-120164717D01*
X211910898Y-119963097D01*
X212003693Y-119739069D01*
X212051000Y-119501243D01*
X212051000Y-119258757D01*
X212003693Y-119020931D01*
X211910898Y-118796903D01*
X211776180Y-118595283D01*
X211604717Y-118423820D01*
X211403097Y-118289102D01*
X211179069Y-118196307D01*
X210941243Y-118149000D01*
X210698757Y-118149000D01*
X210460931Y-118196307D01*
X210383833Y-118228242D01*
X209236591Y-117081000D01*
X209612821Y-117081000D01*
X209636307Y-117199069D01*
X209729102Y-117423097D01*
X209863820Y-117624717D01*
X210035283Y-117796180D01*
X210236903Y-117930898D01*
X210460931Y-118023693D01*
X210698757Y-118071000D01*
X210941243Y-118071000D01*
X211179069Y-118023693D01*
X211403097Y-117930898D01*
X211604717Y-117796180D01*
X211776180Y-117624717D01*
X211910898Y-117423097D01*
X212003693Y-117199069D01*
X212051000Y-116961243D01*
X212051000Y-116718757D01*
X212003693Y-116480931D01*
X211910898Y-116256903D01*
X211776180Y-116055283D01*
X211604717Y-115883820D01*
X211403097Y-115749102D01*
X211179069Y-115656307D01*
X210941243Y-115609000D01*
X210698757Y-115609000D01*
X210460931Y-115656307D01*
X210236903Y-115749102D01*
X210035283Y-115883820D01*
X209863820Y-116055283D01*
X209854655Y-116069000D01*
X209766591Y-116069000D01*
X210383833Y-115451758D01*
X210460931Y-115483693D01*
X210698757Y-115531000D01*
X210941243Y-115531000D01*
X211179069Y-115483693D01*
X211403097Y-115390898D01*
X211604717Y-115256180D01*
X211776180Y-115084717D01*
X211910898Y-114883097D01*
X212003693Y-114659069D01*
X212051000Y-114421243D01*
X212051000Y-114178757D01*
X212003693Y-113940931D01*
X211910898Y-113716903D01*
X211776180Y-113515283D01*
X211604717Y-113343820D01*
X211403097Y-113209102D01*
X211179069Y-113116307D01*
X210941243Y-113069000D01*
X210698757Y-113069000D01*
X210460931Y-113116307D01*
X210236903Y-113209102D01*
X210035283Y-113343820D01*
X209863820Y-113515283D01*
X209729102Y-113716903D01*
X209636307Y-113940931D01*
X209589000Y-114178757D01*
X209589000Y-114421243D01*
X209636307Y-114659069D01*
X209668242Y-114736167D01*
X208985409Y-115419000D01*
X207257843Y-115419000D01*
X207257843Y-115050000D01*
X207250487Y-114975311D01*
X207228701Y-114903492D01*
X207193322Y-114837304D01*
X207145711Y-114779289D01*
X207087696Y-114731678D01*
X207021508Y-114696299D01*
X206949689Y-114674513D01*
X206875000Y-114667157D01*
X205425000Y-114667157D01*
X205350311Y-114674513D01*
X205278492Y-114696299D01*
X205212304Y-114731678D01*
X205166826Y-114769000D01*
X205084854Y-114769000D01*
X205060000Y-114766552D01*
X205035146Y-114769000D01*
X204960807Y-114776322D01*
X204865425Y-114805255D01*
X204777521Y-114852241D01*
X204700473Y-114915473D01*
X204684624Y-114934785D01*
X204383785Y-115235624D01*
X204364473Y-115251473D01*
X204301241Y-115328521D01*
X204254255Y-115416426D01*
X204225322Y-115511808D01*
X204218000Y-115586147D01*
X204218000Y-115586154D01*
X204215553Y-115611000D01*
X203635000Y-115611000D01*
X203635000Y-114481000D01*
X203915854Y-114481000D01*
X203925001Y-114480099D01*
X203934148Y-114481000D01*
X205166826Y-114481000D01*
X205212304Y-114518322D01*
X205278492Y-114553701D01*
X205350311Y-114575487D01*
X205425000Y-114582843D01*
X206875000Y-114582843D01*
X206949689Y-114575487D01*
X207021508Y-114553701D01*
X207087696Y-114518322D01*
X207145711Y-114470711D01*
X207193322Y-114412696D01*
X207228701Y-114346508D01*
X207250487Y-114274689D01*
X207257843Y-114200000D01*
X207257843Y-113750000D01*
X207250487Y-113675311D01*
X207242809Y-113650000D01*
X207250487Y-113624689D01*
X207257843Y-113550000D01*
X207257843Y-113100000D01*
X207250487Y-113025311D01*
X207242809Y-113000000D01*
X207250487Y-112974689D01*
X207257843Y-112900000D01*
X207257843Y-112450000D01*
X207250487Y-112375311D01*
X207242809Y-112350000D01*
X207250487Y-112324689D01*
X207257843Y-112250000D01*
X207257843Y-111800000D01*
X207250487Y-111725311D01*
X207242809Y-111700000D01*
X207250487Y-111674689D01*
X207254025Y-111638757D01*
X209589000Y-111638757D01*
X209589000Y-111881243D01*
X209636307Y-112119069D01*
X209729102Y-112343097D01*
X209863820Y-112544717D01*
X210035283Y-112716180D01*
X210236903Y-112850898D01*
X210460931Y-112943693D01*
X210698757Y-112991000D01*
X210941243Y-112991000D01*
X211179069Y-112943693D01*
X211403097Y-112850898D01*
X211604717Y-112716180D01*
X211776180Y-112544717D01*
X211910898Y-112343097D01*
X212003693Y-112119069D01*
X212051000Y-111881243D01*
X212051000Y-111638757D01*
X212003693Y-111400931D01*
X211910898Y-111176903D01*
X211776180Y-110975283D01*
X211604717Y-110803820D01*
X211403097Y-110669102D01*
X211179069Y-110576307D01*
X210941243Y-110529000D01*
X210698757Y-110529000D01*
X210460931Y-110576307D01*
X210236903Y-110669102D01*
X210035283Y-110803820D01*
X209863820Y-110975283D01*
X209729102Y-111176903D01*
X209636307Y-111400931D01*
X209589000Y-111638757D01*
X207254025Y-111638757D01*
X207257843Y-111600000D01*
X207257843Y-111232689D01*
X207379942Y-111182113D01*
X207507859Y-111096642D01*
X207616642Y-110987859D01*
X207702113Y-110859942D01*
X207760987Y-110717809D01*
X207791000Y-110566922D01*
X207791000Y-110413078D01*
X207760987Y-110262191D01*
X207702113Y-110120058D01*
X207616642Y-109992141D01*
X207507859Y-109883358D01*
X207379942Y-109797887D01*
X207237809Y-109739013D01*
X207086922Y-109709000D01*
X206933078Y-109709000D01*
X206782191Y-109739013D01*
X206640058Y-109797887D01*
X206512141Y-109883358D01*
X206403358Y-109992141D01*
X206389440Y-110012970D01*
X206365425Y-110020255D01*
X206277521Y-110067241D01*
X206200473Y-110130473D01*
X206184628Y-110149780D01*
X205809780Y-110524629D01*
X205790474Y-110540473D01*
X205727242Y-110617521D01*
X205722538Y-110626322D01*
X205680255Y-110705426D01*
X205661530Y-110767157D01*
X205425000Y-110767157D01*
X205350311Y-110774513D01*
X205278492Y-110796299D01*
X205212304Y-110831678D01*
X205158147Y-110876123D01*
X205076642Y-110754141D01*
X204967859Y-110645358D01*
X204839942Y-110559887D01*
X204697809Y-110501013D01*
X204546922Y-110471000D01*
X204476585Y-110471000D01*
X204458031Y-110377721D01*
X204399157Y-110235588D01*
X204313686Y-110107671D01*
X204265275Y-110059260D01*
X204296190Y-110021589D01*
X204354671Y-109912179D01*
X204390683Y-109793462D01*
X204402843Y-109670001D01*
X204402843Y-109098757D01*
X209589000Y-109098757D01*
X209589000Y-109341243D01*
X209636307Y-109579069D01*
X209729102Y-109803097D01*
X209863820Y-110004717D01*
X210035283Y-110176180D01*
X210236903Y-110310898D01*
X210460931Y-110403693D01*
X210698757Y-110451000D01*
X210941243Y-110451000D01*
X211179069Y-110403693D01*
X211403097Y-110310898D01*
X211604717Y-110176180D01*
X211776180Y-110004717D01*
X211910898Y-109803097D01*
X212003693Y-109579069D01*
X212051000Y-109341243D01*
X212051000Y-109098757D01*
X212003693Y-108860931D01*
X211910898Y-108636903D01*
X211776180Y-108435283D01*
X211604717Y-108263820D01*
X211403097Y-108129102D01*
X211179069Y-108036307D01*
X210941243Y-107989000D01*
X210698757Y-107989000D01*
X210460931Y-108036307D01*
X210236903Y-108129102D01*
X210035283Y-108263820D01*
X209863820Y-108435283D01*
X209729102Y-108636903D01*
X209636307Y-108860931D01*
X209589000Y-109098757D01*
X204402843Y-109098757D01*
X204402843Y-108769999D01*
X204390683Y-108646538D01*
X204354671Y-108527821D01*
X204316282Y-108456000D01*
X205260156Y-108456000D01*
X205285002Y-108458447D01*
X205309848Y-108456000D01*
X205309856Y-108456000D01*
X205384195Y-108448678D01*
X205479577Y-108419745D01*
X205567481Y-108372759D01*
X205644529Y-108309527D01*
X205660378Y-108290215D01*
X206470220Y-107480374D01*
X206489527Y-107464529D01*
X206552759Y-107387481D01*
X206599745Y-107299577D01*
X206628678Y-107204195D01*
X206636000Y-107129856D01*
X206636000Y-107129855D01*
X206638448Y-107105002D01*
X206636000Y-107080148D01*
X206636000Y-106558757D01*
X209589000Y-106558757D01*
X209589000Y-106801243D01*
X209636307Y-107039069D01*
X209729102Y-107263097D01*
X209863820Y-107464717D01*
X210035283Y-107636180D01*
X210236903Y-107770898D01*
X210460931Y-107863693D01*
X210698757Y-107911000D01*
X210941243Y-107911000D01*
X211179069Y-107863693D01*
X211403097Y-107770898D01*
X211604717Y-107636180D01*
X211776180Y-107464717D01*
X211910898Y-107263097D01*
X212003693Y-107039069D01*
X212051000Y-106801243D01*
X212051000Y-106558757D01*
X212003693Y-106320931D01*
X211910898Y-106096903D01*
X211776180Y-105895283D01*
X211604717Y-105723820D01*
X211403097Y-105589102D01*
X211179069Y-105496307D01*
X210941243Y-105449000D01*
X210698757Y-105449000D01*
X210460931Y-105496307D01*
X210236903Y-105589102D01*
X210035283Y-105723820D01*
X209863820Y-105895283D01*
X209729102Y-106096903D01*
X209636307Y-106320931D01*
X209589000Y-106558757D01*
X206636000Y-106558757D01*
X206636000Y-105949139D01*
X206690538Y-105965683D01*
X206813999Y-105977843D01*
X207714001Y-105977843D01*
X207837462Y-105965683D01*
X207956179Y-105929671D01*
X208065589Y-105871190D01*
X208161488Y-105792488D01*
X208240190Y-105696589D01*
X208298671Y-105587179D01*
X208334683Y-105468462D01*
X208346843Y-105345001D01*
X208346843Y-104694999D01*
X208334683Y-104571538D01*
X208298671Y-104452821D01*
X208240190Y-104343411D01*
X208161488Y-104247512D01*
X208065589Y-104168810D01*
X207956179Y-104110329D01*
X207837462Y-104074317D01*
X207714001Y-104062157D01*
X206813999Y-104062157D01*
X206690538Y-104074317D01*
X206571821Y-104110329D01*
X206462411Y-104168810D01*
X206366512Y-104247512D01*
X206287810Y-104343411D01*
X206229329Y-104452821D01*
X206210771Y-104514000D01*
X206154854Y-104514000D01*
X206130000Y-104511552D01*
X206105146Y-104514000D01*
X205612784Y-104514000D01*
X205600711Y-104499289D01*
X205542696Y-104451678D01*
X205476508Y-104416299D01*
X205404689Y-104394513D01*
X205330000Y-104387157D01*
X203770000Y-104387157D01*
X203695311Y-104394513D01*
X203623492Y-104416299D01*
X203557304Y-104451678D01*
X203499289Y-104499289D01*
X203451678Y-104557304D01*
X203416299Y-104623492D01*
X203394513Y-104695311D01*
X203387157Y-104770000D01*
X203387157Y-104886566D01*
X203255376Y-104754785D01*
X203239527Y-104735473D01*
X203162479Y-104672241D01*
X203074575Y-104625255D01*
X202979193Y-104596322D01*
X202968621Y-104595281D01*
X202948322Y-104557304D01*
X202900711Y-104499289D01*
X202842696Y-104451678D01*
X202776508Y-104416299D01*
X202704689Y-104394513D01*
X202630000Y-104387157D01*
X201070000Y-104387157D01*
X200995311Y-104394513D01*
X200923492Y-104416299D01*
X200857304Y-104451678D01*
X200799289Y-104499289D01*
X200751678Y-104557304D01*
X200734736Y-104589000D01*
X200208403Y-104589000D01*
X200206683Y-104571538D01*
X200170671Y-104452821D01*
X200112190Y-104343411D01*
X200033488Y-104247512D01*
X199937589Y-104168810D01*
X199828179Y-104110329D01*
X199709462Y-104074317D01*
X199586001Y-104062157D01*
X198685999Y-104062157D01*
X198562538Y-104074317D01*
X198443821Y-104110329D01*
X198334411Y-104168810D01*
X198315731Y-104184140D01*
X198150348Y-104018757D01*
X209589000Y-104018757D01*
X209589000Y-104261243D01*
X209636307Y-104499069D01*
X209729102Y-104723097D01*
X209863820Y-104924717D01*
X210035283Y-105096180D01*
X210236903Y-105230898D01*
X210460931Y-105323693D01*
X210698757Y-105371000D01*
X210941243Y-105371000D01*
X211179069Y-105323693D01*
X211403097Y-105230898D01*
X211604717Y-105096180D01*
X211776180Y-104924717D01*
X211910898Y-104723097D01*
X212003693Y-104499069D01*
X212051000Y-104261243D01*
X212051000Y-104018757D01*
X212003693Y-103780931D01*
X211910898Y-103556903D01*
X211776180Y-103355283D01*
X211604717Y-103183820D01*
X211403097Y-103049102D01*
X211179069Y-102956307D01*
X210941243Y-102909000D01*
X210698757Y-102909000D01*
X210460931Y-102956307D01*
X210236903Y-103049102D01*
X210035283Y-103183820D01*
X209863820Y-103355283D01*
X209729102Y-103556903D01*
X209636307Y-103780931D01*
X209589000Y-104018757D01*
X198150348Y-104018757D01*
X197873010Y-103741419D01*
X197873010Y-102054581D01*
X197914581Y-102013010D01*
X198912170Y-102013010D01*
X198977375Y-102078215D01*
X198993224Y-102097527D01*
X199070272Y-102160759D01*
X199152135Y-102204516D01*
X199158176Y-102207745D01*
X199253557Y-102236678D01*
X199263445Y-102237652D01*
X199327897Y-102244000D01*
X199327904Y-102244000D01*
X199352750Y-102246447D01*
X199377596Y-102244000D01*
X200627154Y-102244000D01*
X200652000Y-102246447D01*
X200676846Y-102244000D01*
X200676854Y-102244000D01*
X200751193Y-102236678D01*
X200846575Y-102207745D01*
X200934479Y-102160759D01*
X201011527Y-102097527D01*
X201027376Y-102078215D01*
X201123000Y-101982591D01*
X201142356Y-102001947D01*
X201087810Y-102068411D01*
X201029329Y-102177821D01*
X200993317Y-102296538D01*
X200981157Y-102419999D01*
X200981157Y-103320001D01*
X200993317Y-103443462D01*
X201029329Y-103562179D01*
X201087810Y-103671589D01*
X201166512Y-103767488D01*
X201262411Y-103846190D01*
X201371821Y-103904671D01*
X201490538Y-103940683D01*
X201613999Y-103952843D01*
X202264001Y-103952843D01*
X202387462Y-103940683D01*
X202506179Y-103904671D01*
X202615589Y-103846190D01*
X202711488Y-103767488D01*
X202790190Y-103671589D01*
X202848671Y-103562179D01*
X202884683Y-103443462D01*
X202896843Y-103320001D01*
X202896843Y-102909344D01*
X202956141Y-102968642D01*
X203084058Y-103054113D01*
X203226191Y-103112987D01*
X203377078Y-103143000D01*
X203530922Y-103143000D01*
X203681809Y-103112987D01*
X203823942Y-103054113D01*
X203951859Y-102968642D01*
X204005311Y-102915190D01*
X204025242Y-102952479D01*
X204088474Y-103029527D01*
X204107781Y-103045372D01*
X204265157Y-103202748D01*
X204265157Y-103320001D01*
X204277317Y-103443462D01*
X204313329Y-103562179D01*
X204371810Y-103671589D01*
X204450512Y-103767488D01*
X204546411Y-103846190D01*
X204655821Y-103904671D01*
X204774538Y-103940683D01*
X204897999Y-103952843D01*
X205548001Y-103952843D01*
X205671462Y-103940683D01*
X205790179Y-103904671D01*
X205899589Y-103846190D01*
X205995488Y-103767488D01*
X206074190Y-103671589D01*
X206132671Y-103562179D01*
X206168683Y-103443462D01*
X206180843Y-103320001D01*
X206180843Y-102419999D01*
X206168683Y-102296538D01*
X206132671Y-102177821D01*
X206074190Y-102068411D01*
X205995488Y-101972512D01*
X205899589Y-101893810D01*
X205790179Y-101835329D01*
X205671462Y-101799317D01*
X205548001Y-101787157D01*
X204954000Y-101787157D01*
X204954000Y-101724843D01*
X205098000Y-101724843D01*
X205172689Y-101717487D01*
X205198000Y-101709809D01*
X205223311Y-101717487D01*
X205298000Y-101724843D01*
X205898000Y-101724843D01*
X205972689Y-101717487D01*
X206044508Y-101695701D01*
X206110696Y-101660322D01*
X206168711Y-101612711D01*
X206216322Y-101554696D01*
X206251701Y-101488508D01*
X206273487Y-101416689D01*
X206280843Y-101342000D01*
X206280843Y-100357982D01*
X206286640Y-100356829D01*
X206410574Y-100305494D01*
X206522112Y-100230967D01*
X206616967Y-100136112D01*
X206691494Y-100024574D01*
X206742829Y-99900640D01*
X206769000Y-99769073D01*
X206769000Y-99634927D01*
X206742829Y-99503360D01*
X206691494Y-99379426D01*
X206616967Y-99267888D01*
X206522112Y-99173033D01*
X206410574Y-99098506D01*
X206286640Y-99047171D01*
X206155073Y-99021000D01*
X206020927Y-99021000D01*
X205889360Y-99047171D01*
X205765426Y-99098506D01*
X205653888Y-99173033D01*
X205559033Y-99267888D01*
X205513149Y-99336559D01*
X204425372Y-98248783D01*
X204409523Y-98229471D01*
X204332475Y-98166239D01*
X204244571Y-98119253D01*
X204149189Y-98090320D01*
X204074850Y-98082998D01*
X204074842Y-98082998D01*
X204049996Y-98080551D01*
X204025150Y-98082998D01*
X202370849Y-98082998D01*
X202346003Y-98080551D01*
X202321157Y-98082998D01*
X202321150Y-98082998D01*
X202256698Y-98089346D01*
X202246810Y-98090320D01*
X202224611Y-98097054D01*
X202151429Y-98119253D01*
X202063525Y-98166239D01*
X201986477Y-98229471D01*
X201970632Y-98248778D01*
X200882851Y-99336559D01*
X200836967Y-99267888D01*
X200742112Y-99173033D01*
X200630574Y-99098506D01*
X200506640Y-99047171D01*
X200375073Y-99021000D01*
X200240927Y-99021000D01*
X200109360Y-99047171D01*
X199985426Y-99098506D01*
X199873888Y-99173033D01*
X199779033Y-99267888D01*
X199704506Y-99379426D01*
X199653171Y-99503360D01*
X199627000Y-99634927D01*
X199627000Y-99769073D01*
X199653171Y-99900640D01*
X199704506Y-100024574D01*
X199779033Y-100136112D01*
X199873888Y-100230967D01*
X199985426Y-100305494D01*
X200109360Y-100356829D01*
X200115157Y-100357982D01*
X200115157Y-101232000D01*
X199562342Y-101232000D01*
X199497137Y-101166795D01*
X199481288Y-101147483D01*
X199404240Y-101084251D01*
X199316336Y-101037265D01*
X199220954Y-101008332D01*
X199146615Y-101001010D01*
X199146607Y-101001010D01*
X199121761Y-100998563D01*
X199096915Y-101001010D01*
X197729844Y-101001010D01*
X197704990Y-100998562D01*
X197680136Y-101001010D01*
X197605797Y-101008332D01*
X197510415Y-101037265D01*
X197422511Y-101084251D01*
X197345463Y-101147483D01*
X197329614Y-101166795D01*
X197157419Y-101338990D01*
X197134581Y-101338990D01*
X197055376Y-101259785D01*
X197039527Y-101240473D01*
X196962479Y-101177241D01*
X196874575Y-101130255D01*
X196812843Y-101111529D01*
X196812843Y-100750000D01*
X196805487Y-100675311D01*
X196783701Y-100603492D01*
X196748322Y-100537304D01*
X196700711Y-100479289D01*
X196642696Y-100431678D01*
X196576508Y-100396299D01*
X196504689Y-100374513D01*
X196430000Y-100367157D01*
X194730000Y-100367157D01*
X194655311Y-100374513D01*
X194583492Y-100396299D01*
X194517304Y-100431678D01*
X194459289Y-100479289D01*
X194411678Y-100537304D01*
X194376299Y-100603492D01*
X194354513Y-100675311D01*
X194347157Y-100750000D01*
X194106000Y-100750000D01*
X194106000Y-95798229D01*
X194699000Y-95798229D01*
X194699000Y-95971771D01*
X194732856Y-96141978D01*
X194799268Y-96302310D01*
X194895682Y-96446605D01*
X195018395Y-96569318D01*
X195162690Y-96665732D01*
X195323022Y-96732144D01*
X195493229Y-96766000D01*
X195666771Y-96766000D01*
X195836978Y-96732144D01*
X195997310Y-96665732D01*
X196141605Y-96569318D01*
X196264318Y-96446605D01*
X196360732Y-96302310D01*
X196427144Y-96141978D01*
X196461000Y-95971771D01*
X196461000Y-95798229D01*
X196427144Y-95628022D01*
X196360732Y-95467690D01*
X196264318Y-95323395D01*
X196141605Y-95200682D01*
X195997310Y-95104268D01*
X195836978Y-95037856D01*
X195666771Y-95004000D01*
X195493229Y-95004000D01*
X195323022Y-95037856D01*
X195162690Y-95104268D01*
X195018395Y-95200682D01*
X194895682Y-95323395D01*
X194799268Y-95467690D01*
X194732856Y-95628022D01*
X194699000Y-95798229D01*
X194106000Y-95798229D01*
X194106000Y-94411000D01*
X212294000Y-94411000D01*
X212294001Y-123394000D01*
M02*
