%TF.GenerationSoftware,KiCad,Pcbnew,(5.1.5-0-10_14)*%
%TF.CreationDate,2020-02-16T20:03:40+10:00*%
%TF.ProjectId,turtleboard,74757274-6c65-4626-9f61-72642e6b6963,rev?*%
%TF.SameCoordinates,Original*%
%TF.FileFunction,Soldermask,Bot*%
%TF.FilePolarity,Negative*%
%FSLAX46Y46*%
G04 Gerber Fmt 4.6, Leading zero omitted, Abs format (unit mm)*
G04 Created by KiCad (PCBNEW (5.1.5-0-10_14)) date 2020-02-16 20:03:40*
%MOMM*%
%LPD*%
G04 APERTURE LIST*
%ADD10C,0.100000*%
G04 APERTURE END LIST*
D10*
G36*
X210933512Y-121023927D02*
G01*
X211082812Y-121053624D01*
X211246784Y-121121544D01*
X211394354Y-121220147D01*
X211519853Y-121345646D01*
X211618456Y-121493216D01*
X211686376Y-121657188D01*
X211721000Y-121831259D01*
X211721000Y-122008741D01*
X211686376Y-122182812D01*
X211618456Y-122346784D01*
X211519853Y-122494354D01*
X211394354Y-122619853D01*
X211246784Y-122718456D01*
X211082812Y-122786376D01*
X210933512Y-122816073D01*
X210908742Y-122821000D01*
X210731258Y-122821000D01*
X210706488Y-122816073D01*
X210557188Y-122786376D01*
X210393216Y-122718456D01*
X210245646Y-122619853D01*
X210120147Y-122494354D01*
X210021544Y-122346784D01*
X209953624Y-122182812D01*
X209919000Y-122008741D01*
X209919000Y-121831259D01*
X209953624Y-121657188D01*
X210021544Y-121493216D01*
X210120147Y-121345646D01*
X210245646Y-121220147D01*
X210393216Y-121121544D01*
X210557188Y-121053624D01*
X210706488Y-121023927D01*
X210731258Y-121019000D01*
X210908742Y-121019000D01*
X210933512Y-121023927D01*
G37*
G36*
X195693512Y-121023927D02*
G01*
X195842812Y-121053624D01*
X196006784Y-121121544D01*
X196154354Y-121220147D01*
X196279853Y-121345646D01*
X196378456Y-121493216D01*
X196446376Y-121657188D01*
X196481000Y-121831259D01*
X196481000Y-122008741D01*
X196446376Y-122182812D01*
X196378456Y-122346784D01*
X196279853Y-122494354D01*
X196154354Y-122619853D01*
X196006784Y-122718456D01*
X195842812Y-122786376D01*
X195693512Y-122816073D01*
X195668742Y-122821000D01*
X195491258Y-122821000D01*
X195466488Y-122816073D01*
X195317188Y-122786376D01*
X195153216Y-122718456D01*
X195005646Y-122619853D01*
X194880147Y-122494354D01*
X194781544Y-122346784D01*
X194713624Y-122182812D01*
X194679000Y-122008741D01*
X194679000Y-121831259D01*
X194713624Y-121657188D01*
X194781544Y-121493216D01*
X194880147Y-121345646D01*
X195005646Y-121220147D01*
X195153216Y-121121544D01*
X195317188Y-121053624D01*
X195466488Y-121023927D01*
X195491258Y-121019000D01*
X195668742Y-121019000D01*
X195693512Y-121023927D01*
G37*
G36*
X207170721Y-121390174D02*
G01*
X207270995Y-121431709D01*
X207270996Y-121431710D01*
X207361242Y-121492010D01*
X207437990Y-121568758D01*
X207437991Y-121568760D01*
X207498291Y-121659005D01*
X207539826Y-121759279D01*
X207561000Y-121865730D01*
X207561000Y-121974270D01*
X207539826Y-122080721D01*
X207498291Y-122180995D01*
X207497077Y-122182812D01*
X207437990Y-122271242D01*
X207361242Y-122347990D01*
X207315812Y-122378345D01*
X207270995Y-122408291D01*
X207170721Y-122449826D01*
X207064270Y-122471000D01*
X206955730Y-122471000D01*
X206849279Y-122449826D01*
X206749005Y-122408291D01*
X206704188Y-122378345D01*
X206658758Y-122347990D01*
X206582010Y-122271242D01*
X206522923Y-122182812D01*
X206521709Y-122180995D01*
X206480174Y-122080721D01*
X206459000Y-121974270D01*
X206459000Y-121865730D01*
X206480174Y-121759279D01*
X206521709Y-121659005D01*
X206582009Y-121568760D01*
X206582010Y-121568758D01*
X206658758Y-121492010D01*
X206749004Y-121431710D01*
X206749005Y-121431709D01*
X206849279Y-121390174D01*
X206955730Y-121369000D01*
X207064270Y-121369000D01*
X207170721Y-121390174D01*
G37*
G36*
X195693512Y-118483927D02*
G01*
X195842812Y-118513624D01*
X196006784Y-118581544D01*
X196154354Y-118680147D01*
X196279853Y-118805646D01*
X196378456Y-118953216D01*
X196446376Y-119117188D01*
X196481000Y-119291259D01*
X196481000Y-119468741D01*
X196446376Y-119642812D01*
X196378456Y-119806784D01*
X196279853Y-119954354D01*
X196154354Y-120079853D01*
X196006784Y-120178456D01*
X195842812Y-120246376D01*
X195693512Y-120276073D01*
X195668742Y-120281000D01*
X195491258Y-120281000D01*
X195466488Y-120276073D01*
X195317188Y-120246376D01*
X195153216Y-120178456D01*
X195005646Y-120079853D01*
X194880147Y-119954354D01*
X194781544Y-119806784D01*
X194713624Y-119642812D01*
X194679000Y-119468741D01*
X194679000Y-119291259D01*
X194713624Y-119117188D01*
X194781544Y-118953216D01*
X194880147Y-118805646D01*
X195005646Y-118680147D01*
X195153216Y-118581544D01*
X195317188Y-118513624D01*
X195466488Y-118483927D01*
X195491258Y-118479000D01*
X195668742Y-118479000D01*
X195693512Y-118483927D01*
G37*
G36*
X210933512Y-118483927D02*
G01*
X211082812Y-118513624D01*
X211246784Y-118581544D01*
X211394354Y-118680147D01*
X211519853Y-118805646D01*
X211618456Y-118953216D01*
X211686376Y-119117188D01*
X211721000Y-119291259D01*
X211721000Y-119468741D01*
X211686376Y-119642812D01*
X211618456Y-119806784D01*
X211519853Y-119954354D01*
X211394354Y-120079853D01*
X211246784Y-120178456D01*
X211082812Y-120246376D01*
X210933512Y-120276073D01*
X210908742Y-120281000D01*
X210731258Y-120281000D01*
X210706488Y-120276073D01*
X210557188Y-120246376D01*
X210393216Y-120178456D01*
X210245646Y-120079853D01*
X210120147Y-119954354D01*
X210021544Y-119806784D01*
X209953624Y-119642812D01*
X209919000Y-119468741D01*
X209919000Y-119291259D01*
X209953624Y-119117188D01*
X210021544Y-118953216D01*
X210120147Y-118805646D01*
X210245646Y-118680147D01*
X210393216Y-118581544D01*
X210557188Y-118513624D01*
X210706488Y-118483927D01*
X210731258Y-118479000D01*
X210908742Y-118479000D01*
X210933512Y-118483927D01*
G37*
G36*
X210933512Y-115943927D02*
G01*
X211082812Y-115973624D01*
X211246784Y-116041544D01*
X211394354Y-116140147D01*
X211519853Y-116265646D01*
X211618456Y-116413216D01*
X211686376Y-116577188D01*
X211721000Y-116751259D01*
X211721000Y-116928741D01*
X211686376Y-117102812D01*
X211618456Y-117266784D01*
X211519853Y-117414354D01*
X211394354Y-117539853D01*
X211246784Y-117638456D01*
X211082812Y-117706376D01*
X210933512Y-117736073D01*
X210908742Y-117741000D01*
X210731258Y-117741000D01*
X210706488Y-117736073D01*
X210557188Y-117706376D01*
X210393216Y-117638456D01*
X210245646Y-117539853D01*
X210120147Y-117414354D01*
X210021544Y-117266784D01*
X209953624Y-117102812D01*
X209919000Y-116928741D01*
X209919000Y-116751259D01*
X209953624Y-116577188D01*
X210021544Y-116413216D01*
X210120147Y-116265646D01*
X210245646Y-116140147D01*
X210393216Y-116041544D01*
X210557188Y-115973624D01*
X210706488Y-115943927D01*
X210731258Y-115939000D01*
X210908742Y-115939000D01*
X210933512Y-115943927D01*
G37*
G36*
X195693512Y-115943927D02*
G01*
X195842812Y-115973624D01*
X196006784Y-116041544D01*
X196154354Y-116140147D01*
X196279853Y-116265646D01*
X196378456Y-116413216D01*
X196446376Y-116577188D01*
X196481000Y-116751259D01*
X196481000Y-116928741D01*
X196446376Y-117102812D01*
X196378456Y-117266784D01*
X196279853Y-117414354D01*
X196154354Y-117539853D01*
X196006784Y-117638456D01*
X195842812Y-117706376D01*
X195693512Y-117736073D01*
X195668742Y-117741000D01*
X195491258Y-117741000D01*
X195466488Y-117736073D01*
X195317188Y-117706376D01*
X195153216Y-117638456D01*
X195005646Y-117539853D01*
X194880147Y-117414354D01*
X194781544Y-117266784D01*
X194713624Y-117102812D01*
X194679000Y-116928741D01*
X194679000Y-116751259D01*
X194713624Y-116577188D01*
X194781544Y-116413216D01*
X194880147Y-116265646D01*
X195005646Y-116140147D01*
X195153216Y-116041544D01*
X195317188Y-115973624D01*
X195466488Y-115943927D01*
X195491258Y-115939000D01*
X195668742Y-115939000D01*
X195693512Y-115943927D01*
G37*
G36*
X210933512Y-113403927D02*
G01*
X211082812Y-113433624D01*
X211246784Y-113501544D01*
X211394354Y-113600147D01*
X211519853Y-113725646D01*
X211618456Y-113873216D01*
X211686376Y-114037188D01*
X211721000Y-114211259D01*
X211721000Y-114388741D01*
X211686376Y-114562812D01*
X211618456Y-114726784D01*
X211519853Y-114874354D01*
X211394354Y-114999853D01*
X211246784Y-115098456D01*
X211082812Y-115166376D01*
X210933512Y-115196073D01*
X210908742Y-115201000D01*
X210731258Y-115201000D01*
X210706488Y-115196073D01*
X210557188Y-115166376D01*
X210393216Y-115098456D01*
X210245646Y-114999853D01*
X210120147Y-114874354D01*
X210021544Y-114726784D01*
X209953624Y-114562812D01*
X209919000Y-114388741D01*
X209919000Y-114211259D01*
X209953624Y-114037188D01*
X210021544Y-113873216D01*
X210120147Y-113725646D01*
X210245646Y-113600147D01*
X210393216Y-113501544D01*
X210557188Y-113433624D01*
X210706488Y-113403927D01*
X210731258Y-113399000D01*
X210908742Y-113399000D01*
X210933512Y-113403927D01*
G37*
G36*
X195693512Y-113403927D02*
G01*
X195842812Y-113433624D01*
X196006784Y-113501544D01*
X196154354Y-113600147D01*
X196279853Y-113725646D01*
X196378456Y-113873216D01*
X196446376Y-114037188D01*
X196481000Y-114211259D01*
X196481000Y-114388741D01*
X196446376Y-114562812D01*
X196378456Y-114726784D01*
X196279853Y-114874354D01*
X196154354Y-114999853D01*
X196006784Y-115098456D01*
X195842812Y-115166376D01*
X195693512Y-115196073D01*
X195668742Y-115201000D01*
X195491258Y-115201000D01*
X195466488Y-115196073D01*
X195317188Y-115166376D01*
X195153216Y-115098456D01*
X195005646Y-114999853D01*
X194880147Y-114874354D01*
X194781544Y-114726784D01*
X194713624Y-114562812D01*
X194679000Y-114388741D01*
X194679000Y-114211259D01*
X194713624Y-114037188D01*
X194781544Y-113873216D01*
X194880147Y-113725646D01*
X195005646Y-113600147D01*
X195153216Y-113501544D01*
X195317188Y-113433624D01*
X195466488Y-113403927D01*
X195491258Y-113399000D01*
X195668742Y-113399000D01*
X195693512Y-113403927D01*
G37*
G36*
X210933512Y-110863927D02*
G01*
X211082812Y-110893624D01*
X211246784Y-110961544D01*
X211394354Y-111060147D01*
X211519853Y-111185646D01*
X211618456Y-111333216D01*
X211686376Y-111497188D01*
X211721000Y-111671259D01*
X211721000Y-111848741D01*
X211686376Y-112022812D01*
X211618456Y-112186784D01*
X211519853Y-112334354D01*
X211394354Y-112459853D01*
X211246784Y-112558456D01*
X211082812Y-112626376D01*
X210933512Y-112656073D01*
X210908742Y-112661000D01*
X210731258Y-112661000D01*
X210706488Y-112656073D01*
X210557188Y-112626376D01*
X210393216Y-112558456D01*
X210245646Y-112459853D01*
X210120147Y-112334354D01*
X210021544Y-112186784D01*
X209953624Y-112022812D01*
X209919000Y-111848741D01*
X209919000Y-111671259D01*
X209953624Y-111497188D01*
X210021544Y-111333216D01*
X210120147Y-111185646D01*
X210245646Y-111060147D01*
X210393216Y-110961544D01*
X210557188Y-110893624D01*
X210706488Y-110863927D01*
X210731258Y-110859000D01*
X210908742Y-110859000D01*
X210933512Y-110863927D01*
G37*
G36*
X195693512Y-110863927D02*
G01*
X195842812Y-110893624D01*
X196006784Y-110961544D01*
X196154354Y-111060147D01*
X196279853Y-111185646D01*
X196378456Y-111333216D01*
X196446376Y-111497188D01*
X196481000Y-111671259D01*
X196481000Y-111848741D01*
X196446376Y-112022812D01*
X196378456Y-112186784D01*
X196279853Y-112334354D01*
X196154354Y-112459853D01*
X196006784Y-112558456D01*
X195842812Y-112626376D01*
X195693512Y-112656073D01*
X195668742Y-112661000D01*
X195491258Y-112661000D01*
X195466488Y-112656073D01*
X195317188Y-112626376D01*
X195153216Y-112558456D01*
X195005646Y-112459853D01*
X194880147Y-112334354D01*
X194781544Y-112186784D01*
X194713624Y-112022812D01*
X194679000Y-111848741D01*
X194679000Y-111671259D01*
X194713624Y-111497188D01*
X194781544Y-111333216D01*
X194880147Y-111185646D01*
X195005646Y-111060147D01*
X195153216Y-110961544D01*
X195317188Y-110893624D01*
X195466488Y-110863927D01*
X195491258Y-110859000D01*
X195668742Y-110859000D01*
X195693512Y-110863927D01*
G37*
G36*
X210933512Y-108323927D02*
G01*
X211082812Y-108353624D01*
X211246784Y-108421544D01*
X211394354Y-108520147D01*
X211519853Y-108645646D01*
X211618456Y-108793216D01*
X211686376Y-108957188D01*
X211721000Y-109131259D01*
X211721000Y-109308741D01*
X211686376Y-109482812D01*
X211618456Y-109646784D01*
X211519853Y-109794354D01*
X211394354Y-109919853D01*
X211246784Y-110018456D01*
X211082812Y-110086376D01*
X210933512Y-110116073D01*
X210908742Y-110121000D01*
X210731258Y-110121000D01*
X210706488Y-110116073D01*
X210557188Y-110086376D01*
X210393216Y-110018456D01*
X210245646Y-109919853D01*
X210120147Y-109794354D01*
X210021544Y-109646784D01*
X209953624Y-109482812D01*
X209919000Y-109308741D01*
X209919000Y-109131259D01*
X209953624Y-108957188D01*
X210021544Y-108793216D01*
X210120147Y-108645646D01*
X210245646Y-108520147D01*
X210393216Y-108421544D01*
X210557188Y-108353624D01*
X210706488Y-108323927D01*
X210731258Y-108319000D01*
X210908742Y-108319000D01*
X210933512Y-108323927D01*
G37*
G36*
X195693512Y-108323927D02*
G01*
X195842812Y-108353624D01*
X196006784Y-108421544D01*
X196154354Y-108520147D01*
X196279853Y-108645646D01*
X196378456Y-108793216D01*
X196446376Y-108957188D01*
X196481000Y-109131259D01*
X196481000Y-109308741D01*
X196446376Y-109482812D01*
X196378456Y-109646784D01*
X196279853Y-109794354D01*
X196154354Y-109919853D01*
X196006784Y-110018456D01*
X195842812Y-110086376D01*
X195693512Y-110116073D01*
X195668742Y-110121000D01*
X195491258Y-110121000D01*
X195466488Y-110116073D01*
X195317188Y-110086376D01*
X195153216Y-110018456D01*
X195005646Y-109919853D01*
X194880147Y-109794354D01*
X194781544Y-109646784D01*
X194713624Y-109482812D01*
X194679000Y-109308741D01*
X194679000Y-109131259D01*
X194713624Y-108957188D01*
X194781544Y-108793216D01*
X194880147Y-108645646D01*
X195005646Y-108520147D01*
X195153216Y-108421544D01*
X195317188Y-108353624D01*
X195466488Y-108323927D01*
X195491258Y-108319000D01*
X195668742Y-108319000D01*
X195693512Y-108323927D01*
G37*
G36*
X210933512Y-105783927D02*
G01*
X211082812Y-105813624D01*
X211246784Y-105881544D01*
X211394354Y-105980147D01*
X211519853Y-106105646D01*
X211618456Y-106253216D01*
X211686376Y-106417188D01*
X211721000Y-106591259D01*
X211721000Y-106768741D01*
X211686376Y-106942812D01*
X211618456Y-107106784D01*
X211519853Y-107254354D01*
X211394354Y-107379853D01*
X211246784Y-107478456D01*
X211082812Y-107546376D01*
X210933512Y-107576073D01*
X210908742Y-107581000D01*
X210731258Y-107581000D01*
X210706488Y-107576073D01*
X210557188Y-107546376D01*
X210393216Y-107478456D01*
X210245646Y-107379853D01*
X210120147Y-107254354D01*
X210021544Y-107106784D01*
X209953624Y-106942812D01*
X209919000Y-106768741D01*
X209919000Y-106591259D01*
X209953624Y-106417188D01*
X210021544Y-106253216D01*
X210120147Y-106105646D01*
X210245646Y-105980147D01*
X210393216Y-105881544D01*
X210557188Y-105813624D01*
X210706488Y-105783927D01*
X210731258Y-105779000D01*
X210908742Y-105779000D01*
X210933512Y-105783927D01*
G37*
G36*
X195693512Y-105783927D02*
G01*
X195842812Y-105813624D01*
X196006784Y-105881544D01*
X196154354Y-105980147D01*
X196279853Y-106105646D01*
X196378456Y-106253216D01*
X196446376Y-106417188D01*
X196481000Y-106591259D01*
X196481000Y-106768741D01*
X196446376Y-106942812D01*
X196378456Y-107106784D01*
X196279853Y-107254354D01*
X196154354Y-107379853D01*
X196006784Y-107478456D01*
X195842812Y-107546376D01*
X195693512Y-107576073D01*
X195668742Y-107581000D01*
X195491258Y-107581000D01*
X195466488Y-107576073D01*
X195317188Y-107546376D01*
X195153216Y-107478456D01*
X195005646Y-107379853D01*
X194880147Y-107254354D01*
X194781544Y-107106784D01*
X194713624Y-106942812D01*
X194679000Y-106768741D01*
X194679000Y-106591259D01*
X194713624Y-106417188D01*
X194781544Y-106253216D01*
X194880147Y-106105646D01*
X195005646Y-105980147D01*
X195153216Y-105881544D01*
X195317188Y-105813624D01*
X195466488Y-105783927D01*
X195491258Y-105779000D01*
X195668742Y-105779000D01*
X195693512Y-105783927D01*
G37*
G36*
X210933512Y-103243927D02*
G01*
X211082812Y-103273624D01*
X211246784Y-103341544D01*
X211394354Y-103440147D01*
X211519853Y-103565646D01*
X211618456Y-103713216D01*
X211686376Y-103877188D01*
X211721000Y-104051259D01*
X211721000Y-104228741D01*
X211686376Y-104402812D01*
X211618456Y-104566784D01*
X211519853Y-104714354D01*
X211394354Y-104839853D01*
X211246784Y-104938456D01*
X211082812Y-105006376D01*
X210933512Y-105036073D01*
X210908742Y-105041000D01*
X210731258Y-105041000D01*
X210706488Y-105036073D01*
X210557188Y-105006376D01*
X210393216Y-104938456D01*
X210245646Y-104839853D01*
X210120147Y-104714354D01*
X210021544Y-104566784D01*
X209953624Y-104402812D01*
X209919000Y-104228741D01*
X209919000Y-104051259D01*
X209953624Y-103877188D01*
X210021544Y-103713216D01*
X210120147Y-103565646D01*
X210245646Y-103440147D01*
X210393216Y-103341544D01*
X210557188Y-103273624D01*
X210706488Y-103243927D01*
X210731258Y-103239000D01*
X210908742Y-103239000D01*
X210933512Y-103243927D01*
G37*
G36*
X195693512Y-103243927D02*
G01*
X195842812Y-103273624D01*
X196006784Y-103341544D01*
X196154354Y-103440147D01*
X196279853Y-103565646D01*
X196378456Y-103713216D01*
X196446376Y-103877188D01*
X196481000Y-104051259D01*
X196481000Y-104228741D01*
X196446376Y-104402812D01*
X196378456Y-104566784D01*
X196279853Y-104714354D01*
X196154354Y-104839853D01*
X196006784Y-104938456D01*
X195842812Y-105006376D01*
X195693512Y-105036073D01*
X195668742Y-105041000D01*
X195491258Y-105041000D01*
X195466488Y-105036073D01*
X195317188Y-105006376D01*
X195153216Y-104938456D01*
X195005646Y-104839853D01*
X194880147Y-104714354D01*
X194781544Y-104566784D01*
X194713624Y-104402812D01*
X194679000Y-104228741D01*
X194679000Y-104051259D01*
X194713624Y-103877188D01*
X194781544Y-103713216D01*
X194880147Y-103565646D01*
X195005646Y-103440147D01*
X195153216Y-103341544D01*
X195317188Y-103273624D01*
X195466488Y-103243927D01*
X195491258Y-103239000D01*
X195668742Y-103239000D01*
X195693512Y-103243927D01*
G37*
G36*
X196481000Y-102501000D02*
G01*
X194679000Y-102501000D01*
X194679000Y-100699000D01*
X196481000Y-100699000D01*
X196481000Y-102501000D01*
G37*
G36*
X211721000Y-102501000D02*
G01*
X209919000Y-102501000D01*
X209919000Y-100699000D01*
X211721000Y-100699000D01*
X211721000Y-102501000D01*
G37*
G36*
X207616213Y-99138249D02*
G01*
X207710652Y-99166897D01*
X207797687Y-99213418D01*
X207873975Y-99276025D01*
X207936582Y-99352313D01*
X207983103Y-99439348D01*
X208011751Y-99533787D01*
X208019000Y-99607388D01*
X208019000Y-100756612D01*
X208011751Y-100830213D01*
X207983103Y-100924652D01*
X207936582Y-101011687D01*
X207873975Y-101087975D01*
X207797687Y-101150582D01*
X207710651Y-101197103D01*
X207616212Y-101225751D01*
X207518000Y-101235424D01*
X207419787Y-101225751D01*
X207325348Y-101197103D01*
X207238313Y-101150582D01*
X207162025Y-101087975D01*
X207099418Y-101011687D01*
X207052897Y-100924651D01*
X207024249Y-100830212D01*
X207017000Y-100756611D01*
X207017001Y-99607388D01*
X207024250Y-99533787D01*
X207052898Y-99439348D01*
X207099419Y-99352313D01*
X207162026Y-99276025D01*
X207238314Y-99213418D01*
X207325349Y-99166897D01*
X207419788Y-99138249D01*
X207518000Y-99128576D01*
X207616213Y-99138249D01*
G37*
G36*
X198976213Y-99138249D02*
G01*
X199070652Y-99166897D01*
X199157687Y-99213418D01*
X199233975Y-99276025D01*
X199296582Y-99352313D01*
X199343103Y-99439348D01*
X199371751Y-99533787D01*
X199379000Y-99607388D01*
X199379000Y-100756612D01*
X199371751Y-100830213D01*
X199343103Y-100924652D01*
X199296582Y-101011687D01*
X199233975Y-101087975D01*
X199157687Y-101150582D01*
X199070651Y-101197103D01*
X198976212Y-101225751D01*
X198878000Y-101235424D01*
X198779787Y-101225751D01*
X198685348Y-101197103D01*
X198598313Y-101150582D01*
X198522025Y-101087975D01*
X198459418Y-101011687D01*
X198412897Y-100924651D01*
X198384249Y-100830212D01*
X198377000Y-100756611D01*
X198377001Y-99607388D01*
X198384250Y-99533787D01*
X198412898Y-99439348D01*
X198459419Y-99352313D01*
X198522026Y-99276025D01*
X198598314Y-99213418D01*
X198685349Y-99166897D01*
X198779788Y-99138249D01*
X198878000Y-99128576D01*
X198976213Y-99138249D01*
G37*
G36*
X200410383Y-99364489D02*
G01*
X200410386Y-99364490D01*
X200410385Y-99364490D01*
X200474258Y-99390946D01*
X200531748Y-99429360D01*
X200580640Y-99478252D01*
X200619054Y-99535742D01*
X200640624Y-99587818D01*
X200645511Y-99599617D01*
X200659000Y-99667430D01*
X200659000Y-99736570D01*
X200645511Y-99804383D01*
X200645510Y-99804385D01*
X200619054Y-99868258D01*
X200580640Y-99925748D01*
X200531748Y-99974640D01*
X200474258Y-100013054D01*
X200422182Y-100034624D01*
X200410383Y-100039511D01*
X200342570Y-100053000D01*
X200273430Y-100053000D01*
X200205617Y-100039511D01*
X200193818Y-100034624D01*
X200141742Y-100013054D01*
X200084252Y-99974640D01*
X200035360Y-99925748D01*
X199996946Y-99868258D01*
X199970490Y-99804385D01*
X199970489Y-99804383D01*
X199957000Y-99736570D01*
X199957000Y-99667430D01*
X199970489Y-99599617D01*
X199975376Y-99587818D01*
X199996946Y-99535742D01*
X200035360Y-99478252D01*
X200084252Y-99429360D01*
X200141742Y-99390946D01*
X200205615Y-99364490D01*
X200205614Y-99364490D01*
X200205617Y-99364489D01*
X200273430Y-99351000D01*
X200342570Y-99351000D01*
X200410383Y-99364489D01*
G37*
G36*
X206190383Y-99364489D02*
G01*
X206190386Y-99364490D01*
X206190385Y-99364490D01*
X206254258Y-99390946D01*
X206311748Y-99429360D01*
X206360640Y-99478252D01*
X206399054Y-99535742D01*
X206420624Y-99587818D01*
X206425511Y-99599617D01*
X206439000Y-99667430D01*
X206439000Y-99736570D01*
X206425511Y-99804383D01*
X206425510Y-99804385D01*
X206399054Y-99868258D01*
X206360640Y-99925748D01*
X206311748Y-99974640D01*
X206254258Y-100013054D01*
X206202182Y-100034624D01*
X206190383Y-100039511D01*
X206122570Y-100053000D01*
X206053430Y-100053000D01*
X205985617Y-100039511D01*
X205973818Y-100034624D01*
X205921742Y-100013054D01*
X205864252Y-99974640D01*
X205815360Y-99925748D01*
X205776946Y-99868258D01*
X205750490Y-99804385D01*
X205750489Y-99804383D01*
X205737000Y-99736570D01*
X205737000Y-99667430D01*
X205750489Y-99599617D01*
X205755376Y-99587818D01*
X205776946Y-99535742D01*
X205815360Y-99478252D01*
X205864252Y-99429360D01*
X205921742Y-99390946D01*
X205985615Y-99364490D01*
X205985614Y-99364490D01*
X205985617Y-99364489D01*
X206053430Y-99351000D01*
X206122570Y-99351000D01*
X206190383Y-99364489D01*
G37*
G36*
X207616213Y-95118249D02*
G01*
X207710652Y-95146897D01*
X207797687Y-95193418D01*
X207873975Y-95256025D01*
X207936582Y-95332313D01*
X207983103Y-95419348D01*
X208011751Y-95513787D01*
X208019000Y-95587388D01*
X208019000Y-96436612D01*
X208011751Y-96510213D01*
X207983103Y-96604652D01*
X207936582Y-96691687D01*
X207873975Y-96767975D01*
X207797687Y-96830582D01*
X207710651Y-96877103D01*
X207616212Y-96905751D01*
X207518000Y-96915424D01*
X207419787Y-96905751D01*
X207325348Y-96877103D01*
X207238313Y-96830582D01*
X207162025Y-96767975D01*
X207099418Y-96691687D01*
X207052897Y-96604651D01*
X207024249Y-96510212D01*
X207017000Y-96436611D01*
X207017000Y-95587398D01*
X207024250Y-95513786D01*
X207041474Y-95457009D01*
X207052898Y-95419348D01*
X207099419Y-95332313D01*
X207162026Y-95256025D01*
X207238314Y-95193418D01*
X207325349Y-95146897D01*
X207419788Y-95118249D01*
X207518000Y-95108576D01*
X207616213Y-95118249D01*
G37*
G36*
X198976213Y-95118249D02*
G01*
X199070652Y-95146897D01*
X199157687Y-95193418D01*
X199233975Y-95256025D01*
X199296582Y-95332313D01*
X199343103Y-95419348D01*
X199371751Y-95513787D01*
X199379000Y-95587388D01*
X199379000Y-96436612D01*
X199371751Y-96510213D01*
X199343103Y-96604652D01*
X199296582Y-96691687D01*
X199233975Y-96767975D01*
X199157687Y-96830582D01*
X199070651Y-96877103D01*
X198976212Y-96905751D01*
X198878000Y-96915424D01*
X198779787Y-96905751D01*
X198685348Y-96877103D01*
X198598313Y-96830582D01*
X198522025Y-96767975D01*
X198459418Y-96691687D01*
X198412897Y-96604651D01*
X198384249Y-96510212D01*
X198377000Y-96436611D01*
X198377000Y-95587398D01*
X198384250Y-95513786D01*
X198401474Y-95457009D01*
X198412898Y-95419348D01*
X198459419Y-95332313D01*
X198522026Y-95256025D01*
X198598314Y-95193418D01*
X198685349Y-95146897D01*
X198779788Y-95118249D01*
X198878000Y-95108576D01*
X198976213Y-95118249D01*
G37*
G36*
X195740721Y-95355174D02*
G01*
X195840995Y-95396709D01*
X195874884Y-95419353D01*
X195931242Y-95457010D01*
X196007990Y-95533758D01*
X196007991Y-95533760D01*
X196068291Y-95624005D01*
X196109826Y-95724279D01*
X196131000Y-95830730D01*
X196131000Y-95939270D01*
X196109826Y-96045721D01*
X196068291Y-96145995D01*
X196068290Y-96145996D01*
X196007990Y-96236242D01*
X195931242Y-96312990D01*
X195885812Y-96343345D01*
X195840995Y-96373291D01*
X195740721Y-96414826D01*
X195634270Y-96436000D01*
X195525730Y-96436000D01*
X195419279Y-96414826D01*
X195319005Y-96373291D01*
X195274188Y-96343345D01*
X195228758Y-96312990D01*
X195152010Y-96236242D01*
X195091710Y-96145996D01*
X195091709Y-96145995D01*
X195050174Y-96045721D01*
X195029000Y-95939270D01*
X195029000Y-95830730D01*
X195050174Y-95724279D01*
X195091709Y-95624005D01*
X195152009Y-95533760D01*
X195152010Y-95533758D01*
X195228758Y-95457010D01*
X195285116Y-95419353D01*
X195319005Y-95396709D01*
X195419279Y-95355174D01*
X195525730Y-95334000D01*
X195634270Y-95334000D01*
X195740721Y-95355174D01*
G37*
M02*
