%TF.GenerationSoftware,KiCad,Pcbnew,(5.1.5-0-10_14)*%
%TF.CreationDate,2020-02-16T20:03:40+10:00*%
%TF.ProjectId,turtleboard,74757274-6c65-4626-9f61-72642e6b6963,rev?*%
%TF.SameCoordinates,Original*%
%TF.FileFunction,Legend,Top*%
%TF.FilePolarity,Positive*%
%FSLAX46Y46*%
G04 Gerber Fmt 4.6, Leading zero omitted, Abs format (unit mm)*
G04 Created by KiCad (PCBNEW (5.1.5-0-10_14)) date 2020-02-16 20:03:40*
%MOMM*%
%LPD*%
G04 APERTURE LIST*
%ADD10C,0.250000*%
%ADD11C,0.120000*%
%ADD12C,0.150000*%
G04 APERTURE END LIST*
D10*
X197882380Y-121705714D02*
X198263333Y-121705714D01*
X198025238Y-121372380D02*
X198025238Y-122229523D01*
X198072857Y-122324761D01*
X198168095Y-122372380D01*
X198263333Y-122372380D01*
X199025238Y-121705714D02*
X199025238Y-122372380D01*
X198596666Y-121705714D02*
X198596666Y-122229523D01*
X198644285Y-122324761D01*
X198739523Y-122372380D01*
X198882380Y-122372380D01*
X198977619Y-122324761D01*
X199025238Y-122277142D01*
X199501428Y-122372380D02*
X199501428Y-121705714D01*
X199501428Y-121896190D02*
X199549047Y-121800952D01*
X199596666Y-121753333D01*
X199691904Y-121705714D01*
X199787142Y-121705714D01*
X199977619Y-121705714D02*
X200358571Y-121705714D01*
X200120476Y-121372380D02*
X200120476Y-122229523D01*
X200168095Y-122324761D01*
X200263333Y-122372380D01*
X200358571Y-122372380D01*
X200834761Y-122372380D02*
X200739523Y-122324761D01*
X200691904Y-122229523D01*
X200691904Y-121372380D01*
X201596666Y-122324761D02*
X201501428Y-122372380D01*
X201310952Y-122372380D01*
X201215714Y-122324761D01*
X201168095Y-122229523D01*
X201168095Y-121848571D01*
X201215714Y-121753333D01*
X201310952Y-121705714D01*
X201501428Y-121705714D01*
X201596666Y-121753333D01*
X201644285Y-121848571D01*
X201644285Y-121943809D01*
X201168095Y-122039047D01*
X202072857Y-122372380D02*
X202072857Y-121372380D01*
X202072857Y-121753333D02*
X202168095Y-121705714D01*
X202358571Y-121705714D01*
X202453809Y-121753333D01*
X202501428Y-121800952D01*
X202549047Y-121896190D01*
X202549047Y-122181904D01*
X202501428Y-122277142D01*
X202453809Y-122324761D01*
X202358571Y-122372380D01*
X202168095Y-122372380D01*
X202072857Y-122324761D01*
X203120476Y-122372380D02*
X203025238Y-122324761D01*
X202977619Y-122277142D01*
X202930000Y-122181904D01*
X202930000Y-121896190D01*
X202977619Y-121800952D01*
X203025238Y-121753333D01*
X203120476Y-121705714D01*
X203263333Y-121705714D01*
X203358571Y-121753333D01*
X203406190Y-121800952D01*
X203453809Y-121896190D01*
X203453809Y-122181904D01*
X203406190Y-122277142D01*
X203358571Y-122324761D01*
X203263333Y-122372380D01*
X203120476Y-122372380D01*
X204310952Y-122372380D02*
X204310952Y-121848571D01*
X204263333Y-121753333D01*
X204168095Y-121705714D01*
X203977619Y-121705714D01*
X203882380Y-121753333D01*
X204310952Y-122324761D02*
X204215714Y-122372380D01*
X203977619Y-122372380D01*
X203882380Y-122324761D01*
X203834761Y-122229523D01*
X203834761Y-122134285D01*
X203882380Y-122039047D01*
X203977619Y-121991428D01*
X204215714Y-121991428D01*
X204310952Y-121943809D01*
X204787142Y-122372380D02*
X204787142Y-121705714D01*
X204787142Y-121896190D02*
X204834761Y-121800952D01*
X204882380Y-121753333D01*
X204977619Y-121705714D01*
X205072857Y-121705714D01*
X205834761Y-122372380D02*
X205834761Y-121372380D01*
X205834761Y-122324761D02*
X205739523Y-122372380D01*
X205549047Y-122372380D01*
X205453809Y-122324761D01*
X205406190Y-122277142D01*
X205358571Y-122181904D01*
X205358571Y-121896190D01*
X205406190Y-121800952D01*
X205453809Y-121753333D01*
X205549047Y-121705714D01*
X205739523Y-121705714D01*
X205834761Y-121753333D01*
D11*
X207668000Y-98922000D02*
X207668000Y-97122000D01*
X198728000Y-98922000D02*
X198728000Y-97122000D01*
D12*
X199450000Y-110850000D02*
X205425000Y-110850000D01*
X200975000Y-117750000D02*
X205425000Y-117750000D01*
D11*
X209490000Y-100270000D02*
X210820000Y-100270000D01*
X209490000Y-101600000D02*
X209490000Y-100270000D01*
X209490000Y-102870000D02*
X212150000Y-102870000D01*
X212150000Y-102870000D02*
X212150000Y-123250000D01*
X209490000Y-102870000D02*
X209490000Y-123250000D01*
X209490000Y-123250000D02*
X212150000Y-123250000D01*
X194250000Y-100270000D02*
X195580000Y-100270000D01*
X194250000Y-101600000D02*
X194250000Y-100270000D01*
X194250000Y-102870000D02*
X196910000Y-102870000D01*
X196910000Y-102870000D02*
X196910000Y-123250000D01*
X194250000Y-102870000D02*
X194250000Y-123250000D01*
X194250000Y-123250000D02*
X196910000Y-123250000D01*
X199896252Y-108510000D02*
X199373748Y-108510000D01*
X199896252Y-109930000D02*
X199373748Y-109930000D01*
X200144748Y-120344000D02*
X200667252Y-120344000D01*
X200144748Y-118924000D02*
X200667252Y-118924000D01*
X206509252Y-102160000D02*
X205986748Y-102160000D01*
X206509252Y-103580000D02*
X205986748Y-103580000D01*
X200652748Y-103580000D02*
X201175252Y-103580000D01*
X200652748Y-102160000D02*
X201175252Y-102160000D01*
X208117000Y-118674000D02*
X205257000Y-118674000D01*
X208117000Y-120594000D02*
X208117000Y-118674000D01*
X205257000Y-120594000D02*
X208117000Y-120594000D01*
X204100000Y-104435000D02*
X201650000Y-104435000D01*
X202300000Y-107655000D02*
X204100000Y-107655000D01*
X204208748Y-109930000D02*
X204731252Y-109930000D01*
X204208748Y-108510000D02*
X204731252Y-108510000D01*
X206554000Y-105783748D02*
X206554000Y-106306252D01*
X207974000Y-105783748D02*
X207974000Y-106306252D01*
X198426000Y-105783748D02*
X198426000Y-106306252D01*
X199846000Y-105783748D02*
X199846000Y-106306252D01*
D12*
X202864666Y-102284380D02*
X202864666Y-102998666D01*
X202817047Y-103141523D01*
X202721809Y-103236761D01*
X202578952Y-103284380D01*
X202483714Y-103284380D01*
X203864666Y-103284380D02*
X203293238Y-103284380D01*
X203578952Y-103284380D02*
X203578952Y-102284380D01*
X203483714Y-102427238D01*
X203388476Y-102522476D01*
X203293238Y-102570095D01*
M02*
