%TF.GenerationSoftware,KiCad,Pcbnew,(5.1.5-0-10_14)*%
%TF.CreationDate,2020-02-16T20:03:40+10:00*%
%TF.ProjectId,turtleboard,74757274-6c65-4626-9f61-72642e6b6963,rev?*%
%TF.SameCoordinates,Original*%
%TF.FileFunction,Legend,Bot*%
%TF.FilePolarity,Positive*%
%FSLAX46Y46*%
G04 Gerber Fmt 4.6, Leading zero omitted, Abs format (unit mm)*
G04 Created by KiCad (PCBNEW (5.1.5-0-10_14)) date 2020-02-16 20:03:40*
%MOMM*%
%LPD*%
G04 APERTURE LIST*
%ADD10C,0.150000*%
%ADD11C,0.200000*%
G04 APERTURE END LIST*
D10*
X209525904Y-104544761D02*
X209383047Y-104592380D01*
X209144952Y-104592380D01*
X209049714Y-104544761D01*
X209002095Y-104497142D01*
X208954476Y-104401904D01*
X208954476Y-104306666D01*
X209002095Y-104211428D01*
X209049714Y-104163809D01*
X209144952Y-104116190D01*
X209335428Y-104068571D01*
X209430666Y-104020952D01*
X209478285Y-103973333D01*
X209525904Y-103878095D01*
X209525904Y-103782857D01*
X209478285Y-103687619D01*
X209430666Y-103640000D01*
X209335428Y-103592380D01*
X209097333Y-103592380D01*
X208954476Y-103640000D01*
X208621142Y-103592380D02*
X208383047Y-104592380D01*
X208192571Y-103878095D01*
X208002095Y-104592380D01*
X207764000Y-103592380D01*
X206811619Y-104497142D02*
X206859238Y-104544761D01*
X207002095Y-104592380D01*
X207097333Y-104592380D01*
X207240190Y-104544761D01*
X207335428Y-104449523D01*
X207383047Y-104354285D01*
X207430666Y-104163809D01*
X207430666Y-104020952D01*
X207383047Y-103830476D01*
X207335428Y-103735238D01*
X207240190Y-103640000D01*
X207097333Y-103592380D01*
X207002095Y-103592380D01*
X206859238Y-103640000D01*
X206811619Y-103687619D01*
X205906857Y-104592380D02*
X206383047Y-104592380D01*
X206383047Y-103592380D01*
X205573523Y-104592380D02*
X205573523Y-103592380D01*
X205002095Y-104592380D02*
X205430666Y-104020952D01*
X205002095Y-103592380D02*
X205573523Y-104163809D01*
X209383047Y-107084761D02*
X209240190Y-107132380D01*
X209002095Y-107132380D01*
X208906857Y-107084761D01*
X208859238Y-107037142D01*
X208811619Y-106941904D01*
X208811619Y-106846666D01*
X208859238Y-106751428D01*
X208906857Y-106703809D01*
X209002095Y-106656190D01*
X209192571Y-106608571D01*
X209287809Y-106560952D01*
X209335428Y-106513333D01*
X209383047Y-106418095D01*
X209383047Y-106322857D01*
X209335428Y-106227619D01*
X209287809Y-106180000D01*
X209192571Y-106132380D01*
X208954476Y-106132380D01*
X208811619Y-106180000D01*
X208478285Y-106132380D02*
X208240190Y-107132380D01*
X208049714Y-106418095D01*
X207859238Y-107132380D01*
X207621142Y-106132380D01*
X207240190Y-107132380D02*
X207240190Y-106132380D01*
X207002095Y-106132380D01*
X206859238Y-106180000D01*
X206764000Y-106275238D01*
X206716380Y-106370476D01*
X206668761Y-106560952D01*
X206668761Y-106703809D01*
X206716380Y-106894285D01*
X206764000Y-106989523D01*
X206859238Y-107084761D01*
X207002095Y-107132380D01*
X207240190Y-107132380D01*
X206240190Y-107132380D02*
X206240190Y-106132380D01*
X205573523Y-106132380D02*
X205383047Y-106132380D01*
X205287809Y-106180000D01*
X205192571Y-106275238D01*
X205144952Y-106465714D01*
X205144952Y-106799047D01*
X205192571Y-106989523D01*
X205287809Y-107084761D01*
X205383047Y-107132380D01*
X205573523Y-107132380D01*
X205668761Y-107084761D01*
X205764000Y-106989523D01*
X205811619Y-106799047D01*
X205811619Y-106465714D01*
X205764000Y-106275238D01*
X205668761Y-106180000D01*
X205573523Y-106132380D01*
X211708952Y-94448380D02*
X211708952Y-95162666D01*
X211756571Y-95305523D01*
X211851809Y-95400761D01*
X211994666Y-95448380D01*
X212089904Y-95448380D01*
X211232761Y-95448380D02*
X211232761Y-94448380D01*
X211232761Y-94924571D02*
X210661333Y-94924571D01*
X210661333Y-95448380D02*
X210661333Y-94448380D01*
X205184190Y-95147380D02*
X205088952Y-95147380D01*
X204993714Y-95195000D01*
X204946095Y-95242619D01*
X204898476Y-95337857D01*
X204850857Y-95528333D01*
X204850857Y-95766428D01*
X204898476Y-95956904D01*
X204946095Y-96052142D01*
X204993714Y-96099761D01*
X205088952Y-96147380D01*
X205184190Y-96147380D01*
X205279428Y-96099761D01*
X205327047Y-96052142D01*
X205374666Y-95956904D01*
X205422285Y-95766428D01*
X205422285Y-95528333D01*
X205374666Y-95337857D01*
X205327047Y-95242619D01*
X205279428Y-95195000D01*
X205184190Y-95147380D01*
X204517523Y-95147380D02*
X203850857Y-95147380D01*
X204279428Y-96147380D01*
X203517523Y-95242619D02*
X203469904Y-95195000D01*
X203374666Y-95147380D01*
X203136571Y-95147380D01*
X203041333Y-95195000D01*
X202993714Y-95242619D01*
X202946095Y-95337857D01*
X202946095Y-95433095D01*
X202993714Y-95575952D01*
X203565142Y-96147380D01*
X202946095Y-96147380D01*
X202327047Y-95147380D02*
X202231809Y-95147380D01*
X202136571Y-95195000D01*
X202088952Y-95242619D01*
X202041333Y-95337857D01*
X201993714Y-95528333D01*
X201993714Y-95766428D01*
X202041333Y-95956904D01*
X202088952Y-96052142D01*
X202136571Y-96099761D01*
X202231809Y-96147380D01*
X202327047Y-96147380D01*
X202422285Y-96099761D01*
X202469904Y-96052142D01*
X202517523Y-95956904D01*
X202565142Y-95766428D01*
X202565142Y-95528333D01*
X202517523Y-95337857D01*
X202469904Y-95242619D01*
X202422285Y-95195000D01*
X202327047Y-95147380D01*
X205136571Y-97130714D02*
X204898476Y-97797380D01*
X204660380Y-97130714D01*
X203755619Y-97797380D02*
X204327047Y-97797380D01*
X204041333Y-97797380D02*
X204041333Y-96797380D01*
X204136571Y-96940238D01*
X204231809Y-97035476D01*
X204327047Y-97083095D01*
X203327047Y-97702142D02*
X203279428Y-97749761D01*
X203327047Y-97797380D01*
X203374666Y-97749761D01*
X203327047Y-97702142D01*
X203327047Y-97797380D01*
X202327047Y-97797380D02*
X202898476Y-97797380D01*
X202612761Y-97797380D02*
X202612761Y-96797380D01*
X202708000Y-96940238D01*
X202803238Y-97035476D01*
X202898476Y-97083095D01*
D11*
X202878750Y-119076530D02*
X202889160Y-119093570D01*
X202838430Y-119031130D02*
X202878750Y-119076530D01*
X202766759Y-118974640D02*
X202838430Y-119031130D01*
X202674690Y-118923550D02*
X202766759Y-118974640D01*
X202562810Y-118877320D02*
X202674690Y-118923550D01*
X202431630Y-118835380D02*
X202562810Y-118877320D01*
X202281730Y-118797240D02*
X202431630Y-118835380D01*
X202113720Y-118762300D02*
X202281730Y-118797240D01*
X201974610Y-118737500D02*
X202113720Y-118762300D01*
X201928110Y-118730130D02*
X201974610Y-118737500D01*
X201544270Y-118688350D02*
X201928110Y-118730130D01*
X201519910Y-118678910D02*
X201544270Y-118688350D01*
X201453230Y-118634420D02*
X201519910Y-118678910D01*
X201425510Y-118574050D02*
X201453230Y-118634420D01*
X201456050Y-118514690D02*
X201425510Y-118574050D01*
X201517410Y-118472850D02*
X201456050Y-118514690D01*
X201539870Y-118463740D02*
X201517410Y-118472850D01*
X201611220Y-118439820D02*
X201539870Y-118463740D01*
X201829370Y-118380250D02*
X201611220Y-118439820D01*
X202102050Y-118328810D02*
X201829370Y-118380250D01*
X202358770Y-118307770D02*
X202102050Y-118328810D01*
X202600370Y-118315520D02*
X202358770Y-118307770D01*
X202827750Y-118350350D02*
X202600370Y-118315520D01*
X203041769Y-118410680D02*
X202827750Y-118350350D01*
X203243270Y-118494840D02*
X203041769Y-118410680D01*
X203387260Y-118572090D02*
X203243270Y-118494840D01*
X203433160Y-118601170D02*
X203387260Y-118572090D01*
X203462680Y-118626990D02*
X203433160Y-118601170D01*
X203537430Y-118720310D02*
X203462680Y-118626990D01*
X203575790Y-118826320D02*
X203537430Y-118720310D01*
X203572590Y-118924090D02*
X203575790Y-118826320D01*
X203557450Y-118994880D02*
X203572590Y-118924090D01*
X203552300Y-119018490D02*
X203557450Y-118994880D01*
X203605950Y-119031500D02*
X203552300Y-119018490D01*
X203770450Y-119056890D02*
X203605950Y-119031500D01*
X203956270Y-119057820D02*
X203770450Y-119056890D01*
X204108400Y-119019680D02*
X203956270Y-119057820D01*
X204201160Y-118965530D02*
X204108400Y-119019680D01*
X204225690Y-118941060D02*
X204201160Y-118965530D01*
X204450680Y-118741250D02*
X204225690Y-118941060D01*
X204486430Y-118715270D02*
X204450680Y-118741250D01*
X204657380Y-118615210D02*
X204486430Y-118715270D01*
X204816370Y-118559930D02*
X204657380Y-118615210D01*
X204846170Y-118556410D02*
X204816370Y-118559930D01*
X204864770Y-118558630D02*
X204846170Y-118556410D01*
X204920270Y-118568390D02*
X204864770Y-118558630D01*
X204976670Y-118583640D02*
X204920270Y-118568390D01*
X205019070Y-118601320D02*
X204976670Y-118583640D01*
X205043770Y-118615380D02*
X205019070Y-118601320D01*
X205051570Y-118620810D02*
X205043770Y-118615380D01*
X205070970Y-118636600D02*
X205051570Y-118620810D01*
X205118370Y-118697570D02*
X205070970Y-118636600D01*
X205135070Y-118771090D02*
X205118370Y-118697570D01*
X205115570Y-118842160D02*
X205135070Y-118771090D01*
X205085670Y-118895170D02*
X205115570Y-118842160D01*
X205074270Y-118911820D02*
X205085670Y-118895170D01*
X205059570Y-118935530D02*
X205074270Y-118911820D01*
X205013470Y-119005520D02*
X205059570Y-118935530D01*
X204961670Y-119076870D02*
X205013470Y-119005520D01*
X204917570Y-119129660D02*
X204961670Y-119076870D01*
X204879270Y-119167680D02*
X204917570Y-119129660D01*
X204845470Y-119194870D02*
X204879270Y-119167680D01*
X204814470Y-119214991D02*
X204845470Y-119194870D01*
X204784870Y-119231870D02*
X204814470Y-119214991D01*
X204762370Y-119244780D02*
X204784870Y-119231870D01*
X204755070Y-119249390D02*
X204762370Y-119244780D01*
X204721870Y-119263931D02*
X204755070Y-119249390D01*
X204626190Y-119315960D02*
X204721870Y-119263931D01*
X204535310Y-119385410D02*
X204626190Y-119315960D01*
X204481500Y-119457730D02*
X204535310Y-119385410D01*
X204463910Y-119514090D02*
X204481500Y-119457730D01*
X204464020Y-119532870D02*
X204463910Y-119514090D01*
X204649730Y-119863050D02*
X204464020Y-119532870D01*
X204658800Y-119853930D02*
X204649730Y-119863050D01*
X204690770Y-119831310D02*
X204658800Y-119853930D01*
X204739770Y-119810640D02*
X204690770Y-119831310D01*
X204796570Y-119801030D02*
X204739770Y-119810640D01*
X204845270Y-119800940D02*
X204796570Y-119801030D01*
X204861370Y-119802560D02*
X204845270Y-119800940D01*
X204893770Y-119800340D02*
X204861370Y-119802560D01*
X204993470Y-119827190D02*
X204893770Y-119800340D01*
X205120870Y-119914810D02*
X204993470Y-119827190D01*
X205240470Y-120058420D02*
X205120870Y-119914810D01*
X205349370Y-120251070D02*
X205240470Y-120058420D01*
X205444270Y-120485820D02*
X205349370Y-120251070D01*
X205522270Y-120755740D02*
X205444270Y-120485820D01*
X205580270Y-121053910D02*
X205522270Y-120755740D01*
X205609870Y-121293280D02*
X205580270Y-121053910D01*
X205615370Y-121373350D02*
X205609870Y-121293280D01*
X205614770Y-121425820D02*
X205615370Y-121373350D01*
X205601470Y-121583270D02*
X205614770Y-121425820D01*
X205566270Y-121730130D02*
X205601470Y-121583270D01*
X205511370Y-121818560D02*
X205566270Y-121730130D01*
X205457170Y-121851120D02*
X205511370Y-121818560D01*
X205438170Y-121853340D02*
X205457170Y-121851120D01*
X205418770Y-121847370D02*
X205438170Y-121853340D01*
X205367670Y-121806570D02*
X205418770Y-121847370D01*
X205312370Y-121713250D02*
X205367670Y-121806570D01*
X205272470Y-121572140D02*
X205312370Y-121713250D01*
X205252170Y-121429730D02*
X205272470Y-121572140D01*
X205248670Y-121382030D02*
X205252170Y-121429730D01*
X205229170Y-121318341D02*
X205248670Y-121382030D01*
X205157170Y-121131430D02*
X205229170Y-121318341D01*
X205046470Y-120909710D02*
X205157170Y-121131430D01*
X204917370Y-120715050D02*
X205046470Y-120909710D01*
X204810270Y-120585550D02*
X204917370Y-120715050D01*
X204771170Y-120545770D02*
X204810270Y-120585550D01*
X204769370Y-120596230D02*
X204771170Y-120545770D01*
X204759670Y-120747550D02*
X204769370Y-120596230D01*
X204743570Y-120869930D02*
X204759670Y-120747550D01*
X204723770Y-120931240D02*
X204743570Y-120869930D01*
X204707570Y-120948820D02*
X204723770Y-120931240D01*
X204701570Y-120949640D02*
X204707570Y-120948820D01*
X204690570Y-120994070D02*
X204701570Y-120949640D01*
X204646370Y-121124710D02*
X204690570Y-120994070D01*
X204589510Y-121226550D02*
X204646370Y-121124710D01*
X204531470Y-121277000D02*
X204589510Y-121226550D01*
X204487790Y-121294590D02*
X204531470Y-121277000D01*
X204472700Y-121298100D02*
X204487790Y-121294590D01*
X204455340Y-121323060D02*
X204472700Y-121298100D01*
X204400810Y-121396370D02*
X204455340Y-121323060D01*
X204342010Y-121466620D02*
X204400810Y-121396370D01*
X204294220Y-121513230D02*
X204342010Y-121466620D01*
X204255430Y-121540560D02*
X204294220Y-121513230D01*
X204223580Y-121552880D02*
X204255430Y-121540560D01*
X204196660Y-121554620D02*
X204223580Y-121552880D01*
X204172690Y-121550120D02*
X204196660Y-121554620D01*
X204155380Y-121545230D02*
X204172690Y-121550120D01*
X204149620Y-121543770D02*
X204155380Y-121545230D01*
X204119680Y-121571550D02*
X204149620Y-121543770D01*
X204026260Y-121651030D02*
X204119680Y-121571550D01*
X203917580Y-121725840D02*
X204026260Y-121651030D01*
X203828440Y-121757740D02*
X203917580Y-121725840D01*
X203774300Y-121747060D02*
X203828440Y-121757740D01*
X203763610Y-121736250D02*
X203774300Y-121747060D01*
X203738720Y-121750420D02*
X203763610Y-121736250D01*
X203663250Y-121791430D02*
X203738720Y-121750420D01*
X203563040Y-121833810D02*
X203663250Y-121791430D01*
X203463000Y-121850140D02*
X203563040Y-121833810D01*
X203385840Y-121837880D02*
X203463000Y-121850140D01*
X203363270Y-121827240D02*
X203385840Y-121837880D01*
X203341690Y-121837120D02*
X203363270Y-121827240D01*
X203272340Y-121856810D02*
X203341690Y-121837120D01*
X203177730Y-121868640D02*
X203272340Y-121856810D01*
X203080680Y-121868910D02*
X203177730Y-121868640D01*
X203007049Y-121865270D02*
X203080680Y-121868910D01*
X202982580Y-121863920D02*
X203007049Y-121865270D01*
X202894800Y-122117880D02*
X202982580Y-121863920D01*
X202880370Y-122182660D02*
X202894800Y-122117880D01*
X202832359Y-122376070D02*
X202880370Y-122182660D01*
X202771590Y-122575398D02*
X202832359Y-122376070D01*
X202712720Y-122704738D02*
X202771590Y-122575398D01*
X202671110Y-122751938D02*
X202712720Y-122704738D01*
X202656190Y-122753078D02*
X202671110Y-122751938D01*
X202635090Y-122767509D02*
X202656190Y-122753078D01*
X202566400Y-122802991D02*
X202635090Y-122767509D01*
X202495760Y-122813788D02*
X202566400Y-122802991D01*
X202447630Y-122778414D02*
X202495760Y-122813788D01*
X202427020Y-122712334D02*
X202447630Y-122778414D01*
X202425510Y-122689981D02*
X202427020Y-122712334D01*
X202410090Y-122683471D02*
X202425510Y-122689981D01*
X202368050Y-122654066D02*
X202410090Y-122683471D01*
X202322150Y-122588093D02*
X202368050Y-122654066D01*
X202293400Y-122477145D02*
X202322150Y-122588093D01*
X202285970Y-122348889D02*
X202293400Y-122477145D01*
X202287540Y-122306350D02*
X202285970Y-122348889D01*
X202238380Y-122212770D02*
X202287540Y-122306350D01*
X202234150Y-122203110D02*
X202238380Y-122212770D01*
X202241630Y-122162150D02*
X202234150Y-122203110D01*
X202275610Y-122069760D02*
X202241630Y-122162150D01*
X202338480Y-121938030D02*
X202275610Y-122069760D01*
X202405430Y-121811180D02*
X202338480Y-121938030D01*
X202428540Y-121769410D02*
X202405430Y-121811180D01*
X202407700Y-121769730D02*
X202428540Y-121769410D01*
X202345260Y-121770600D02*
X202407700Y-121769730D01*
X202263400Y-121768270D02*
X202345260Y-121770600D01*
X202184940Y-121757680D02*
X202263400Y-121768270D01*
X202111810Y-121734250D02*
X202184940Y-121757680D01*
X202045950Y-121693070D02*
X202111810Y-121734250D01*
X201989260Y-121629600D02*
X202045950Y-121693070D01*
X201943680Y-121539050D02*
X201989260Y-121629600D01*
X201916770Y-121447740D02*
X201943680Y-121539050D01*
X201911180Y-121416710D02*
X201916770Y-121447740D01*
X201884930Y-121437700D02*
X201911180Y-121416710D01*
X201605520Y-121633880D02*
X201884930Y-121437700D01*
X201575520Y-121651780D02*
X201605520Y-121633880D01*
X201572050Y-121656390D02*
X201575520Y-121651780D01*
X201557340Y-121667200D02*
X201572050Y-121656390D01*
X201533410Y-121675820D02*
X201557340Y-121667200D01*
X201506180Y-121678750D02*
X201533410Y-121675820D01*
X201478190Y-121676960D02*
X201506180Y-121678750D01*
X201452040Y-121671530D02*
X201478190Y-121676960D01*
X201430180Y-121663560D02*
X201452040Y-121671530D01*
X201415200Y-121654120D02*
X201430180Y-121663560D01*
X201409660Y-121646740D02*
X201415200Y-121654120D01*
X201409660Y-121644300D02*
X201409660Y-121646740D01*
X201377550Y-121652660D02*
X201409660Y-121644300D01*
X201279080Y-121669910D02*
X201377550Y-121652660D01*
X201168400Y-121672300D02*
X201279080Y-121669910D01*
X201079540Y-121649190D02*
X201168400Y-121672300D01*
X201669540Y-120844230D02*
X201676000Y-120904000D01*
X201658300Y-120663990D02*
X201669540Y-120844230D01*
X201658800Y-120448710D02*
X201658300Y-120663990D01*
X201027010Y-121614030D02*
X201079540Y-121649190D01*
X201014430Y-121598410D02*
X201027010Y-121614030D01*
X200990180Y-121596020D02*
X201014430Y-121598410D01*
X201676220Y-120256490D02*
X201658800Y-120448710D01*
X201709360Y-120085550D02*
X201676220Y-120256490D01*
X201757000Y-119934340D02*
X201709360Y-120085550D01*
X201817930Y-119801140D02*
X201757000Y-119934340D01*
X202169480Y-119415240D02*
X202067870Y-119493050D01*
X202278260Y-119347100D02*
X202169480Y-119415240D01*
X202392950Y-119287050D02*
X202278260Y-119347100D01*
X200919050Y-121572310D02*
X200990180Y-121596020D01*
X200874180Y-121519350D02*
X200919050Y-121572310D01*
X200875700Y-121441660D02*
X200874180Y-121519350D01*
X200905970Y-121365120D02*
X200875700Y-121441660D01*
X200919540Y-121341560D02*
X200905970Y-121365120D01*
X200934680Y-121321490D02*
X200919540Y-121341560D01*
X200988660Y-121267670D02*
X200934680Y-121321490D01*
X201072430Y-121204850D02*
X200988660Y-121267670D01*
X201167090Y-121150320D02*
X201072430Y-121204850D01*
X202512260Y-119233270D02*
X202392950Y-119287050D01*
X202635040Y-119184170D02*
X202512260Y-119233270D01*
X202886010Y-119093350D02*
X202854480Y-119104480D01*
X201890840Y-119684340D02*
X201817930Y-119801140D01*
X201974550Y-119582180D02*
X201890840Y-119684340D01*
X202067870Y-119493050D02*
X201974550Y-119582180D01*
X202760040Y-119138060D02*
X202635040Y-119184170D01*
X202854480Y-119104480D02*
X202760040Y-119138060D01*
X201269040Y-121101230D02*
X201167090Y-121150320D01*
X201374560Y-121054890D02*
X201269040Y-121101230D01*
X201480040Y-121008390D02*
X201374560Y-121054890D01*
X201581700Y-120959020D02*
X201480040Y-121008390D01*
X201653200Y-120918990D02*
X201581700Y-120959020D01*
X201676000Y-120904000D02*
X201653200Y-120918990D01*
D10*
X200461333Y-101052380D02*
X200128000Y-102052380D01*
X199794666Y-101052380D01*
X199128000Y-101528571D02*
X198985142Y-101576190D01*
X198937523Y-101623809D01*
X198889904Y-101719047D01*
X198889904Y-101861904D01*
X198937523Y-101957142D01*
X198985142Y-102004761D01*
X199080380Y-102052380D01*
X199461333Y-102052380D01*
X199461333Y-101052380D01*
X199128000Y-101052380D01*
X199032761Y-101100000D01*
X198985142Y-101147619D01*
X198937523Y-101242857D01*
X198937523Y-101338095D01*
X198985142Y-101433333D01*
X199032761Y-101480952D01*
X199128000Y-101528571D01*
X199461333Y-101528571D01*
X198461333Y-101052380D02*
X198461333Y-101861904D01*
X198413714Y-101957142D01*
X198366095Y-102004761D01*
X198270857Y-102052380D01*
X198080380Y-102052380D01*
X197985142Y-102004761D01*
X197937523Y-101957142D01*
X197889904Y-101861904D01*
X197889904Y-101052380D01*
X197461333Y-102004761D02*
X197318476Y-102052380D01*
X197080380Y-102052380D01*
X196985142Y-102004761D01*
X196937523Y-101957142D01*
X196889904Y-101861904D01*
X196889904Y-101766666D01*
X196937523Y-101671428D01*
X196985142Y-101623809D01*
X197080380Y-101576190D01*
X197270857Y-101528571D01*
X197366095Y-101480952D01*
X197413714Y-101433333D01*
X197461333Y-101338095D01*
X197461333Y-101242857D01*
X197413714Y-101147619D01*
X197366095Y-101100000D01*
X197270857Y-101052380D01*
X197032761Y-101052380D01*
X196889904Y-101100000D01*
X209041904Y-101100000D02*
X209137142Y-101052380D01*
X209280000Y-101052380D01*
X209422857Y-101100000D01*
X209518095Y-101195238D01*
X209565714Y-101290476D01*
X209613333Y-101480952D01*
X209613333Y-101623809D01*
X209565714Y-101814285D01*
X209518095Y-101909523D01*
X209422857Y-102004761D01*
X209280000Y-102052380D01*
X209184761Y-102052380D01*
X209041904Y-102004761D01*
X208994285Y-101957142D01*
X208994285Y-101623809D01*
X209184761Y-101623809D01*
X208565714Y-102052380D02*
X208565714Y-101052380D01*
X207994285Y-102052380D01*
X207994285Y-101052380D01*
X207518095Y-102052380D02*
X207518095Y-101052380D01*
X207280000Y-101052380D01*
X207137142Y-101100000D01*
X207041904Y-101195238D01*
X206994285Y-101290476D01*
X206946666Y-101480952D01*
X206946666Y-101623809D01*
X206994285Y-101814285D01*
X207041904Y-101909523D01*
X207137142Y-102004761D01*
X207280000Y-102052380D01*
X207518095Y-102052380D01*
X199120000Y-122372380D02*
X199120000Y-121372380D01*
X198453333Y-121372380D02*
X198262857Y-121372380D01*
X198167619Y-121420000D01*
X198072380Y-121515238D01*
X198024761Y-121705714D01*
X198024761Y-122039047D01*
X198072380Y-122229523D01*
X198167619Y-122324761D01*
X198262857Y-122372380D01*
X198453333Y-122372380D01*
X198548571Y-122324761D01*
X198643809Y-122229523D01*
X198691428Y-122039047D01*
X198691428Y-121705714D01*
X198643809Y-121515238D01*
X198548571Y-121420000D01*
X198453333Y-121372380D01*
X197072380Y-122372380D02*
X197643809Y-122372380D01*
X197358095Y-122372380D02*
X197358095Y-121372380D01*
X197453333Y-121515238D01*
X197548571Y-121610476D01*
X197643809Y-121658095D01*
X209565714Y-108672380D02*
X208994285Y-108672380D01*
X209280000Y-109672380D02*
X209280000Y-108672380D01*
X208756190Y-108672380D02*
X208089523Y-109672380D01*
X208089523Y-108672380D02*
X208756190Y-109672380D01*
X207518095Y-108672380D02*
X207327619Y-108672380D01*
X207232380Y-108720000D01*
X207137142Y-108815238D01*
X207089523Y-109005714D01*
X207089523Y-109339047D01*
X207137142Y-109529523D01*
X207232380Y-109624761D01*
X207327619Y-109672380D01*
X207518095Y-109672380D01*
X207613333Y-109624761D01*
X207708571Y-109529523D01*
X207756190Y-109339047D01*
X207756190Y-109005714D01*
X207708571Y-108815238D01*
X207613333Y-108720000D01*
X207518095Y-108672380D01*
X208684761Y-112212380D02*
X209018095Y-111736190D01*
X209256190Y-112212380D02*
X209256190Y-111212380D01*
X208875238Y-111212380D01*
X208780000Y-111260000D01*
X208732380Y-111307619D01*
X208684761Y-111402857D01*
X208684761Y-111545714D01*
X208732380Y-111640952D01*
X208780000Y-111688571D01*
X208875238Y-111736190D01*
X209256190Y-111736190D01*
X208351428Y-111212380D02*
X207684761Y-112212380D01*
X207684761Y-111212380D02*
X208351428Y-112212380D01*
X207303809Y-112212380D02*
X207303809Y-111212380D01*
X209343428Y-114752380D02*
X209343428Y-113752380D01*
X209010095Y-114466666D01*
X208676761Y-113752380D01*
X208676761Y-114752380D01*
X208010095Y-113752380D02*
X207819619Y-113752380D01*
X207724380Y-113800000D01*
X207629142Y-113895238D01*
X207581523Y-114085714D01*
X207581523Y-114419047D01*
X207629142Y-114609523D01*
X207724380Y-114704761D01*
X207819619Y-114752380D01*
X208010095Y-114752380D01*
X208105333Y-114704761D01*
X208200571Y-114609523D01*
X208248190Y-114419047D01*
X208248190Y-114085714D01*
X208200571Y-113895238D01*
X208105333Y-113800000D01*
X208010095Y-113752380D01*
X207200571Y-114704761D02*
X207057714Y-114752380D01*
X206819619Y-114752380D01*
X206724380Y-114704761D01*
X206676761Y-114657142D01*
X206629142Y-114561904D01*
X206629142Y-114466666D01*
X206676761Y-114371428D01*
X206724380Y-114323809D01*
X206819619Y-114276190D01*
X207010095Y-114228571D01*
X207105333Y-114180952D01*
X207152952Y-114133333D01*
X207200571Y-114038095D01*
X207200571Y-113942857D01*
X207152952Y-113847619D01*
X207105333Y-113800000D01*
X207010095Y-113752380D01*
X206772000Y-113752380D01*
X206629142Y-113800000D01*
X206200571Y-114752380D02*
X206200571Y-113752380D01*
X209343428Y-117292380D02*
X209343428Y-116292380D01*
X209010095Y-117006666D01*
X208676761Y-116292380D01*
X208676761Y-117292380D01*
X208200571Y-117292380D02*
X208200571Y-116292380D01*
X207772000Y-117244761D02*
X207629142Y-117292380D01*
X207391047Y-117292380D01*
X207295809Y-117244761D01*
X207248190Y-117197142D01*
X207200571Y-117101904D01*
X207200571Y-117006666D01*
X207248190Y-116911428D01*
X207295809Y-116863809D01*
X207391047Y-116816190D01*
X207581523Y-116768571D01*
X207676761Y-116720952D01*
X207724380Y-116673333D01*
X207772000Y-116578095D01*
X207772000Y-116482857D01*
X207724380Y-116387619D01*
X207676761Y-116340000D01*
X207581523Y-116292380D01*
X207343428Y-116292380D01*
X207200571Y-116340000D01*
X206581523Y-116292380D02*
X206391047Y-116292380D01*
X206295809Y-116340000D01*
X206200571Y-116435238D01*
X206152952Y-116625714D01*
X206152952Y-116959047D01*
X206200571Y-117149523D01*
X206295809Y-117244761D01*
X206391047Y-117292380D01*
X206581523Y-117292380D01*
X206676761Y-117244761D01*
X206772000Y-117149523D01*
X206819619Y-116959047D01*
X206819619Y-116625714D01*
X206772000Y-116435238D01*
X206676761Y-116340000D01*
X206581523Y-116292380D01*
X209565714Y-119784761D02*
X209422857Y-119832380D01*
X209184761Y-119832380D01*
X209089523Y-119784761D01*
X209041904Y-119737142D01*
X208994285Y-119641904D01*
X208994285Y-119546666D01*
X209041904Y-119451428D01*
X209089523Y-119403809D01*
X209184761Y-119356190D01*
X209375238Y-119308571D01*
X209470476Y-119260952D01*
X209518095Y-119213333D01*
X209565714Y-119118095D01*
X209565714Y-119022857D01*
X209518095Y-118927619D01*
X209470476Y-118880000D01*
X209375238Y-118832380D01*
X209137142Y-118832380D01*
X208994285Y-118880000D01*
X207994285Y-119737142D02*
X208041904Y-119784761D01*
X208184761Y-119832380D01*
X208280000Y-119832380D01*
X208422857Y-119784761D01*
X208518095Y-119689523D01*
X208565714Y-119594285D01*
X208613333Y-119403809D01*
X208613333Y-119260952D01*
X208565714Y-119070476D01*
X208518095Y-118975238D01*
X208422857Y-118880000D01*
X208280000Y-118832380D01*
X208184761Y-118832380D01*
X208041904Y-118880000D01*
X207994285Y-118927619D01*
X207565714Y-119832380D02*
X207565714Y-118832380D01*
X206994285Y-119832380D02*
X207422857Y-119260952D01*
X206994285Y-118832380D02*
X207565714Y-119403809D01*
X208954666Y-122277142D02*
X209002285Y-122324761D01*
X209145142Y-122372380D01*
X209240380Y-122372380D01*
X209383238Y-122324761D01*
X209478476Y-122229523D01*
X209526095Y-122134285D01*
X209573714Y-121943809D01*
X209573714Y-121800952D01*
X209526095Y-121610476D01*
X209478476Y-121515238D01*
X209383238Y-121420000D01*
X209240380Y-121372380D01*
X209145142Y-121372380D01*
X209002285Y-121420000D01*
X208954666Y-121467619D01*
X208573714Y-122324761D02*
X208430857Y-122372380D01*
X208192761Y-122372380D01*
X208097523Y-122324761D01*
X208049904Y-122277142D01*
X208002285Y-122181904D01*
X208002285Y-122086666D01*
X208049904Y-121991428D01*
X208097523Y-121943809D01*
X208192761Y-121896190D01*
X208383238Y-121848571D01*
X208478476Y-121800952D01*
X208526095Y-121753333D01*
X208573714Y-121658095D01*
X208573714Y-121562857D01*
X208526095Y-121467619D01*
X208478476Y-121420000D01*
X208383238Y-121372380D01*
X208145142Y-121372380D01*
X208002285Y-121420000D01*
X199120000Y-119832380D02*
X199120000Y-118832380D01*
X198453333Y-118832380D02*
X198262857Y-118832380D01*
X198167619Y-118880000D01*
X198072380Y-118975238D01*
X198024761Y-119165714D01*
X198024761Y-119499047D01*
X198072380Y-119689523D01*
X198167619Y-119784761D01*
X198262857Y-119832380D01*
X198453333Y-119832380D01*
X198548571Y-119784761D01*
X198643809Y-119689523D01*
X198691428Y-119499047D01*
X198691428Y-119165714D01*
X198643809Y-118975238D01*
X198548571Y-118880000D01*
X198453333Y-118832380D01*
X197405714Y-118832380D02*
X197310476Y-118832380D01*
X197215238Y-118880000D01*
X197167619Y-118927619D01*
X197120000Y-119022857D01*
X197072380Y-119213333D01*
X197072380Y-119451428D01*
X197120000Y-119641904D01*
X197167619Y-119737142D01*
X197215238Y-119784761D01*
X197310476Y-119832380D01*
X197405714Y-119832380D01*
X197500952Y-119784761D01*
X197548571Y-119737142D01*
X197596190Y-119641904D01*
X197643809Y-119451428D01*
X197643809Y-119213333D01*
X197596190Y-119022857D01*
X197548571Y-118927619D01*
X197500952Y-118880000D01*
X197405714Y-118832380D01*
X200270857Y-117292380D02*
X200270857Y-116292380D01*
X199699428Y-117292380D01*
X199699428Y-116292380D01*
X198651809Y-117292380D02*
X198985142Y-116816190D01*
X199223238Y-117292380D02*
X199223238Y-116292380D01*
X198842285Y-116292380D01*
X198747047Y-116340000D01*
X198699428Y-116387619D01*
X198651809Y-116482857D01*
X198651809Y-116625714D01*
X198699428Y-116720952D01*
X198747047Y-116768571D01*
X198842285Y-116816190D01*
X199223238Y-116816190D01*
X198270857Y-117244761D02*
X198128000Y-117292380D01*
X197889904Y-117292380D01*
X197794666Y-117244761D01*
X197747047Y-117197142D01*
X197699428Y-117101904D01*
X197699428Y-117006666D01*
X197747047Y-116911428D01*
X197794666Y-116863809D01*
X197889904Y-116816190D01*
X198080380Y-116768571D01*
X198175619Y-116720952D01*
X198223238Y-116673333D01*
X198270857Y-116578095D01*
X198270857Y-116482857D01*
X198223238Y-116387619D01*
X198175619Y-116340000D01*
X198080380Y-116292380D01*
X197842285Y-116292380D01*
X197699428Y-116340000D01*
X197413714Y-116292380D02*
X196842285Y-116292380D01*
X197128000Y-117292380D02*
X197128000Y-116292380D01*
X199310476Y-114704761D02*
X199167619Y-114752380D01*
X198929523Y-114752380D01*
X198834285Y-114704761D01*
X198786666Y-114657142D01*
X198739047Y-114561904D01*
X198739047Y-114466666D01*
X198786666Y-114371428D01*
X198834285Y-114323809D01*
X198929523Y-114276190D01*
X199120000Y-114228571D01*
X199215238Y-114180952D01*
X199262857Y-114133333D01*
X199310476Y-114038095D01*
X199310476Y-113942857D01*
X199262857Y-113847619D01*
X199215238Y-113800000D01*
X199120000Y-113752380D01*
X198881904Y-113752380D01*
X198739047Y-113800000D01*
X197739047Y-114657142D02*
X197786666Y-114704761D01*
X197929523Y-114752380D01*
X198024761Y-114752380D01*
X198167619Y-114704761D01*
X198262857Y-114609523D01*
X198310476Y-114514285D01*
X198358095Y-114323809D01*
X198358095Y-114180952D01*
X198310476Y-113990476D01*
X198262857Y-113895238D01*
X198167619Y-113800000D01*
X198024761Y-113752380D01*
X197929523Y-113752380D01*
X197786666Y-113800000D01*
X197739047Y-113847619D01*
X196834285Y-114752380D02*
X197310476Y-114752380D01*
X197310476Y-113752380D01*
X199334285Y-112164761D02*
X199191428Y-112212380D01*
X198953333Y-112212380D01*
X198858095Y-112164761D01*
X198810476Y-112117142D01*
X198762857Y-112021904D01*
X198762857Y-111926666D01*
X198810476Y-111831428D01*
X198858095Y-111783809D01*
X198953333Y-111736190D01*
X199143809Y-111688571D01*
X199239047Y-111640952D01*
X199286666Y-111593333D01*
X199334285Y-111498095D01*
X199334285Y-111402857D01*
X199286666Y-111307619D01*
X199239047Y-111260000D01*
X199143809Y-111212380D01*
X198905714Y-111212380D01*
X198762857Y-111260000D01*
X198334285Y-112212380D02*
X198334285Y-111212380D01*
X198096190Y-111212380D01*
X197953333Y-111260000D01*
X197858095Y-111355238D01*
X197810476Y-111450476D01*
X197762857Y-111640952D01*
X197762857Y-111783809D01*
X197810476Y-111974285D01*
X197858095Y-112069523D01*
X197953333Y-112164761D01*
X198096190Y-112212380D01*
X198334285Y-112212380D01*
X197381904Y-111926666D02*
X196905714Y-111926666D01*
X197477142Y-112212380D02*
X197143809Y-111212380D01*
X196810476Y-112212380D01*
X200969333Y-109148571D02*
X200826476Y-109196190D01*
X200778857Y-109243809D01*
X200731238Y-109339047D01*
X200731238Y-109481904D01*
X200778857Y-109577142D01*
X200826476Y-109624761D01*
X200921714Y-109672380D01*
X201302666Y-109672380D01*
X201302666Y-108672380D01*
X200969333Y-108672380D01*
X200874095Y-108720000D01*
X200826476Y-108767619D01*
X200778857Y-108862857D01*
X200778857Y-108958095D01*
X200826476Y-109053333D01*
X200874095Y-109100952D01*
X200969333Y-109148571D01*
X201302666Y-109148571D01*
X200112190Y-108672380D02*
X199921714Y-108672380D01*
X199826476Y-108720000D01*
X199731238Y-108815238D01*
X199683619Y-109005714D01*
X199683619Y-109339047D01*
X199731238Y-109529523D01*
X199826476Y-109624761D01*
X199921714Y-109672380D01*
X200112190Y-109672380D01*
X200207428Y-109624761D01*
X200302666Y-109529523D01*
X200350285Y-109339047D01*
X200350285Y-109005714D01*
X200302666Y-108815238D01*
X200207428Y-108720000D01*
X200112190Y-108672380D01*
X199064571Y-108672380D02*
X198874095Y-108672380D01*
X198778857Y-108720000D01*
X198683619Y-108815238D01*
X198636000Y-109005714D01*
X198636000Y-109339047D01*
X198683619Y-109529523D01*
X198778857Y-109624761D01*
X198874095Y-109672380D01*
X199064571Y-109672380D01*
X199159809Y-109624761D01*
X199255047Y-109529523D01*
X199302666Y-109339047D01*
X199302666Y-109005714D01*
X199255047Y-108815238D01*
X199159809Y-108720000D01*
X199064571Y-108672380D01*
X198350285Y-108672380D02*
X197778857Y-108672380D01*
X198064571Y-109672380D02*
X198064571Y-108672380D01*
X197255047Y-108672380D02*
X197159809Y-108672380D01*
X197064571Y-108720000D01*
X197016952Y-108767619D01*
X196969333Y-108862857D01*
X196921714Y-109053333D01*
X196921714Y-109291428D01*
X196969333Y-109481904D01*
X197016952Y-109577142D01*
X197064571Y-109624761D01*
X197159809Y-109672380D01*
X197255047Y-109672380D01*
X197350285Y-109624761D01*
X197397904Y-109577142D01*
X197445523Y-109481904D01*
X197493142Y-109291428D01*
X197493142Y-109053333D01*
X197445523Y-108862857D01*
X197397904Y-108767619D01*
X197350285Y-108720000D01*
X197255047Y-108672380D01*
X198881904Y-106180000D02*
X198977142Y-106132380D01*
X199120000Y-106132380D01*
X199262857Y-106180000D01*
X199358095Y-106275238D01*
X199405714Y-106370476D01*
X199453333Y-106560952D01*
X199453333Y-106703809D01*
X199405714Y-106894285D01*
X199358095Y-106989523D01*
X199262857Y-107084761D01*
X199120000Y-107132380D01*
X199024761Y-107132380D01*
X198881904Y-107084761D01*
X198834285Y-107037142D01*
X198834285Y-106703809D01*
X199024761Y-106703809D01*
X198405714Y-107132380D02*
X198405714Y-106132380D01*
X197834285Y-107132380D01*
X197834285Y-106132380D01*
X197358095Y-107132380D02*
X197358095Y-106132380D01*
X197120000Y-106132380D01*
X196977142Y-106180000D01*
X196881904Y-106275238D01*
X196834285Y-106370476D01*
X196786666Y-106560952D01*
X196786666Y-106703809D01*
X196834285Y-106894285D01*
X196881904Y-106989523D01*
X196977142Y-107084761D01*
X197120000Y-107132380D01*
X197358095Y-107132380D01*
X199358095Y-103592380D02*
X198739047Y-103592380D01*
X199072380Y-103973333D01*
X198929523Y-103973333D01*
X198834285Y-104020952D01*
X198786666Y-104068571D01*
X198739047Y-104163809D01*
X198739047Y-104401904D01*
X198786666Y-104497142D01*
X198834285Y-104544761D01*
X198929523Y-104592380D01*
X199215238Y-104592380D01*
X199310476Y-104544761D01*
X199358095Y-104497142D01*
X198453333Y-103592380D02*
X198120000Y-104592380D01*
X197786666Y-103592380D01*
X197548571Y-103592380D02*
X196929523Y-103592380D01*
X197262857Y-103973333D01*
X197120000Y-103973333D01*
X197024761Y-104020952D01*
X196977142Y-104068571D01*
X196929523Y-104163809D01*
X196929523Y-104401904D01*
X196977142Y-104497142D01*
X197024761Y-104544761D01*
X197120000Y-104592380D01*
X197405714Y-104592380D01*
X197500952Y-104544761D01*
X197548571Y-104497142D01*
M02*
