M48
; DRILL file {KiCad (5.1.5-0-10_14)} date Sunday, 16 February 2020 at 08:03:43 pm
; FORMAT={-:-/ absolute / inch / decimal}
; #@! TF.CreationDate,2020-02-16T20:03:43+10:00
; #@! TF.GenerationSoftware,Kicad,Pcbnew,(5.1.5-0-10_14)
; #@! TF.FileFunction,Plated,1,2,PTH
FMAT,2
INCH
T1C0.0157
T2C0.0236
T3C0.0394
%
G90
G05
T1
X7.8044Y-4.0618
X7.925Y-4.25
X7.95Y-4.625
X7.96Y-4.525
X7.9687Y-4.575
X7.9878Y-4.3882
X8.01Y-4.03
X8.02Y-4.3545
X8.02Y-3.9142
X8.05Y-4.38
X8.15Y-4.35
T3
X7.7Y-4.0
X7.7Y-4.1
X7.7Y-4.2
X7.7Y-4.3
X7.7Y-4.4
X7.7Y-4.5
X7.7Y-4.6
X7.7Y-4.7
X7.7Y-4.8
X8.3Y-4.0
X8.3Y-4.1
X8.3Y-4.2
X8.3Y-4.3
X8.3Y-4.4
X8.3Y-4.5
X8.3Y-4.6
X8.3Y-4.7
X8.3Y-4.8
T2
G00X7.8298Y-3.7643
M15
G01X7.8298Y-3.7957
M16
G05
G00X7.8298Y-3.9225
M15
G01X7.8298Y-3.9658
M16
G05
G00X8.17Y-3.7643
M15
G01X8.17Y-3.7957
M16
G05
G00X8.17Y-3.9225
M15
G01X8.17Y-3.9658
M16
G05
T0
M30
